<?xml version="1.0" encoding="utf-8"?>
<!-- Generator: Adobe Illustrator 16.0.4, SVG Export Plug-In . SVG Version: 6.00 Build 0)  -->
<!DOCTYPE svg PUBLIC "-//W3C//DTD SVG 1.1//EN" "http://www.w3.org/Graphics/SVG/1.1/DTD/svg11.dtd">
<svg version="1.1" xmlns="http://www.w3.org/2000/svg" xmlns:xlink="http://www.w3.org/1999/xlink" x="0px" y="0px" width="50px"
	 height="50px" viewBox="0 0 50 50" enable-background="new 0 0 50 50" xml:space="preserve">
<g id="Ebene_1">
</g>
<g id="Ebene_2">
	<path fill="#44AEE5" d="M41.475,31.301l-7.556-7.555l2.14-2.09l-3.049-3.048l1.402-1.463l3.049,3.049l4.063-4.063L33.394,8
		l-7.61,7.61l-4.675-4.675c-0.143-0.144-0.332-0.213-0.527-0.244l0.005-0.025l-12.3-2.064l2.139,12.234l0.017-0.002
		c0.033,0.188,0.105,0.372,0.252,0.518l4.674,4.674l-7.375,7.376l8.13,8.13l4.063-4.064l-3.048-3.049l1.474-1.458l3.048,3.049
		l1.839-1.852l7.561,7.561C31.241,41.898,31.487,42,31.743,42s0.501-0.102,0.682-0.282l9.05-9.052
		C41.852,32.289,41.852,31.678,41.475,31.301z M20.426,12.981l3.993,3.993l5.081,5.081l9.927,9.928l-1.597,1.598l-6.879-6.88
		l-8.129-8.13l-3.993-3.993L20.426,12.981z M34.634,36.779l-6.88-6.881l-8.129-8.129l-3.993-3.993l1.834-1.834l3.993,3.993
		l8.129,8.13l6.879,6.88L34.634,36.779z M12.705,11.138l5.715,1.121l-6.414,6.415l-1.101-5.666L12.705,11.138z M12.74,20.67
		l1.528-1.529l3.993,3.993l8.129,8.13l6.88,6.881l-1.527,1.526l-9.929-9.929l-5.082-5.08L12.74,20.67z"/>
</g>
</svg>
