<?xml version="1.0" encoding="utf-8"?>
<!-- Generator: Adobe Illustrator 16.0.4, SVG Export Plug-In . SVG Version: 6.00 Build 0)  -->
<!DOCTYPE svg PUBLIC "-//W3C//DTD SVG 1.1//EN" "http://www.w3.org/Graphics/SVG/1.1/DTD/svg11.dtd">
<svg version="1.1" xmlns="http://www.w3.org/2000/svg" xmlns:xlink="http://www.w3.org/1999/xlink" x="0px" y="0px" width="91px"
	 height="86px" viewBox="0 0 91 86" enable-background="new 0 0 91 86" xml:space="preserve">
<g id="Ebene_1">
</g>
<g id="Ebene_2">
	<g>
		<rect fill="#44AEE5" width="91" height="64"/>
		<polyline fill="#0071BC" points="70,86 70,64 91,64 		"/>
	</g>
	<g>
		<polygon fill="#FFFFFF" points="46,50.66 53,46.585 53,38.434 46,42.521 		"/>
		<polygon fill="#FFFFFF" points="37,46.638 44,50.657 44,42.502 37,38.471 		"/>
		<polygon fill="#FFFFFF" points="45.118,32.815 38.138,36.844 45.073,40.845 52.08,36.804 		"/>
		<polygon fill="#FFFFFF" points="52.08,16.132 45.118,12.144 38.138,16.171 45.073,20.173 		"/>
		<polygon fill="#FFFFFF" points="44,22.919 37,27.007 37,35.146 44,31.07 		"/>
		<polygon fill="#FFFFFF" points="28,31.122 35,35.143 35,26.986 28,22.956 		"/>
		<polygon fill="#FFFFFF" points="28,41.642 35,45.661 35,37.505 28,33.476 		"/>
		<polygon fill="#FFFFFF" points="35.957,17.301 28.977,21.328 35.913,25.33 42.92,21.289 		"/>
		<polygon fill="#FFFFFF" points="53,27.007 46,22.919 46,31.07 53,35.146 		"/>
		<polygon fill="#FFFFFF" points="62,22.956 55,26.986 55,35.143 62,31.122 		"/>
		<polygon fill="#FFFFFF" points="55,45.661 62,41.642 62,33.476 55,37.505 		"/>
		<polygon fill="#FFFFFF" points="54.166,17.301 47.207,21.289 54.211,25.33 61.148,21.328 		"/>
	</g>
</g>
</svg>
