<?xml version="1.0" encoding="utf-8"?>
<!-- Generator: Adobe Illustrator 16.0.4, SVG Export Plug-In . SVG Version: 6.00 Build 0)  -->
<!DOCTYPE svg PUBLIC "-//W3C//DTD SVG 1.1//EN" "http://www.w3.org/Graphics/SVG/1.1/DTD/svg11.dtd">
<svg version="1.1" xmlns="http://www.w3.org/2000/svg" xmlns:xlink="http://www.w3.org/1999/xlink" x="0px" y="0px" width="91px"
	 height="86px" viewBox="0 0 91 86" enable-background="new 0 0 91 86" xml:space="preserve">
<g id="Ebene_1">
</g>
<g id="Ebene_2">
	<g>
		<rect fill="#44AEE5" width="91" height="64"/>
		<polyline fill="#0071BC" points="70,86 70,64 91,64 		"/>
	</g>
	<path fill="#FFFFFF" d="M62.35,38.213l-7.556-7.555l2.14-2.09l-3.049-3.048l1.402-1.463l3.049,3.049l4.063-4.063l-8.131-8.131
		l-7.61,7.61l-4.675-4.675c-0.143-0.144-0.332-0.213-0.527-0.244l0.005-0.025l-12.3-2.064L31.3,27.748l0.017-0.002
		c0.033,0.188,0.105,0.372,0.252,0.518l4.674,4.674l-7.375,7.376l8.13,8.13l4.063-4.064l-3.048-3.049l1.474-1.458l3.048,3.049
		l1.839-1.852l7.561,7.561c0.181,0.181,0.426,0.282,0.682,0.282s0.501-0.102,0.682-0.282l9.05-9.052
		C62.727,39.201,62.727,38.59,62.35,38.213z M41.301,19.894l3.993,3.993l5.081,5.081l9.927,9.928l-1.597,1.598l-6.879-6.88
		l-8.129-8.13l-3.993-3.993L41.301,19.894z M55.509,43.691l-6.88-6.881L40.5,28.682l-3.993-3.993l1.834-1.834l3.993,3.993
		l8.129,8.13l6.879,6.88L55.509,43.691z M33.58,18.05l5.715,1.121l-6.414,6.415L31.78,19.92L33.58,18.05z M33.615,27.582
		l1.528-1.529l3.993,3.993l8.129,8.13l6.88,6.881l-1.527,1.526l-9.929-9.929l-5.082-5.08L33.615,27.582z"/>
</g>
</svg>
