<?xml version="1.0" encoding="utf-8"?>
<!-- Generator: Adobe Illustrator 16.0.4, SVG Export Plug-In . SVG Version: 6.00 Build 0)  -->
<!DOCTYPE svg PUBLIC "-//W3C//DTD SVG 1.1//EN" "http://www.w3.org/Graphics/SVG/1.1/DTD/svg11.dtd">
<svg version="1.1" xmlns="http://www.w3.org/2000/svg" xmlns:xlink="http://www.w3.org/1999/xlink" x="0px" y="0px" width="50px"
	 height="50px" viewBox="0 0 50 50" enable-background="new 0 0 50 50" xml:space="preserve">
<g id="Ebene_1">
</g>
<g id="Ebene_2">
	<g>
		<polygon fill="#44AEE5" points="26.125,44.66 33.125,40.585 33.125,32.434 26.125,36.521 		"/>
		<polygon fill="#44AEE5" points="17.125,40.638 24.125,44.657 24.125,36.502 17.125,32.471 		"/>
		<polygon fill="#44AEE5" points="25.243,26.815 18.263,30.844 25.198,34.845 32.205,30.804 		"/>
		<polygon fill="#44AEE5" points="32.205,10.132 25.243,6.144 18.263,10.171 25.198,14.173 		"/>
		<polygon fill="#44AEE5" points="24.125,16.919 17.125,21.007 17.125,29.146 24.125,25.07 		"/>
		<polygon fill="#44AEE5" points="8.125,25.122 15.125,29.143 15.125,20.986 8.125,16.956 		"/>
		<polygon fill="#44AEE5" points="8.125,35.642 15.125,39.661 15.125,31.505 8.125,27.476 		"/>
		<polygon fill="#44AEE5" points="16.082,11.301 9.102,15.328 16.038,19.33 23.045,15.289 		"/>
		<polygon fill="#44AEE5" points="33.125,21.007 26.125,16.919 26.125,25.07 33.125,29.146 		"/>
		<polygon fill="#44AEE5" points="42.125,16.956 35.125,20.986 35.125,29.143 42.125,25.122 		"/>
		<polygon fill="#44AEE5" points="35.125,39.661 42.125,35.642 42.125,27.476 35.125,31.505 		"/>
		<polygon fill="#44AEE5" points="34.291,11.301 27.332,15.289 34.336,19.33 41.273,15.328 		"/>
	</g>
</g>
</svg>
