<?xml version="1.0" encoding="utf-8"?>
<!-- Generator: Adobe Illustrator 16.0.0, SVG Export Plug-In . SVG Version: 6.00 Build 0)  -->
<!DOCTYPE svg PUBLIC "-//W3C//DTD SVG 1.0//EN" "http://www.w3.org/TR/2001/REC-SVG-20010904/DTD/svg10.dtd">
<svg version="1.0" id="Ebene_1" xmlns="http://www.w3.org/2000/svg" xmlns:xlink="http://www.w3.org/1999/xlink" x="0px" y="0px"
	 width="119.156px" height="25px" viewBox="0 0 119.156 25" enable-background="new 0 0 119.156 25" xml:space="preserve">
<g>
	<path fill-rule="evenodd" clip-rule="evenodd" fill="#61696E" d="M34.445,21.513v-1.131h0.869v-4.913h-1.09v-1.132h2.552
		c0,0.539-0.055,1.411-0.055,1.411c0.389-1.245,1.233-1.549,2.216-1.549c0.216,0,0.43,0.03,0.58,0.063l-0.171,1.413
		c-0.144-0.036-0.305-0.056-0.528-0.056c-1.366,0-1.959,1.179-1.959,2.527v2.235h1.049v1.131H34.445z"/>
	<g>
		<g>
			<path fill-rule="evenodd" clip-rule="evenodd" fill="#61696E" d="M58.987,20.382v-3.464c0-1.756-0.785-2.747-2.953-2.747
				c-1.532,0-2.507,0.469-2.894,0.649V16.5h1.38v-0.948c0.235-0.096,0.81-0.248,1.348-0.248c1.27,0,1.61,0.621,1.61,1.504v0.235
				c-3.048,0-4.642,0.82-4.642,2.581c0,0.911,0.616,2.056,2.341,2.056c1.426,0,2.186-0.854,2.405-1.223
				c-0.041,0.32-0.063,0.824-0.063,1.057h2.378v-1.131L58.987,20.382z M57.478,18.644c0,0.911-0.699,1.82-1.899,1.82
				c-0.731,0-1.196-0.428-1.196-0.966c0-1.062,1.495-1.435,3.096-1.449L57.478,18.644z"/>
		</g>
	</g>
	<g>
		<g>
			<path fill-rule="evenodd" clip-rule="evenodd" fill="#61696E" d="M5.051,14.171c-1.108,0-2.017,0.552-2.349,1.212
				c0.002,0.002,0.002-3.688,0.002-3.688l-2.705,0v1.132l1.159,0v8.305c0.701,0.274,1.498,0.546,2.746,0.546
				c3.091,0,4.027-2.111,4.027-4.25C7.933,15.576,6.928,14.171,5.051,14.171z M4.085,20.382c-0.672,0-1.092-0.151-1.38-0.285v-2.572
				c0.027-1.145,0.663-2.056,1.877-2.056c1.173,0,1.783,0.814,1.783,2.07C6.365,19.029,5.713,20.382,4.085,20.382z"/>
		</g>
	</g>
	<path fill-rule="evenodd" clip-rule="evenodd" fill="#61696E" d="M21.457,15.469h1.076l-0.001,4.029
		c0,1.615,0.634,2.208,2.062,2.208c0.607,0,1.15-0.166,1.537-0.359l0.055-1.131c-0.345,0.138-0.736,0.276-1.15,0.276
		c-0.717,0-0.957-0.333-0.957-1.644v-3.38h1.905v-1.132h-1.905v-1.46l-1.546,0.111v1.349h-1.076V15.469z"/>
	<path fill-rule="evenodd" clip-rule="evenodd" fill="#61696E" d="M16.419,15.469h1.077l-0.001,4.029
		c0,1.615,0.634,2.208,2.062,2.208c0.607,0,1.15-0.166,1.537-0.359l0.055-1.131c-0.345,0.138-0.736,0.276-1.15,0.276
		c-0.718,0-0.957-0.333-0.957-1.644v-3.38h1.905v-1.132h-1.905v-1.46l-1.545,0.111v1.349h-1.077V15.469z"/>
	<g>
		<g>
			<path fill-rule="evenodd" clip-rule="evenodd" fill="#61696E" d="M74.187,17.967c0-2.222-1.09-3.846-3.243-3.846
				c-2.318,0-3.52,1.707-3.52,3.832c0,2.249,1.408,3.763,3.782,3.776c1.076,0,2.029-0.29,2.525-0.497l0.083-1.27
				c-0.621,0.317-1.407,0.552-2.305,0.552c-1.421,0-2.442-0.948-2.456-2.342h5.134V17.967z M72.559,17.125h-3.505
				c0.055-0.87,0.497-1.873,1.808-1.873s1.698,1.141,1.698,1.734V17.125z"/>
		</g>
	</g>
	<g>
		<g>
			<path fill-rule="evenodd" clip-rule="evenodd" fill="#61696E" d="M44.844,14.171c-0.92,0-1.707,0.351-2.295,1.287v-1.121h-2.452
				v1.132h1.007v8.377h-0.8v1.132h3.464v-1.132h-1.146v-2.382c0.415,0.151,0.877,0.215,1.366,0.215c2.457,0,3.834-1.725,3.834-4.099
				C47.823,15.52,46.583,14.171,44.844,14.171z M44.003,20.464c-0.58,0-1.063-0.11-1.38-0.304l0.001-2.001
				c0.001-1.67,0.606-2.69,1.862-2.69c1.159,0,1.769,1.007,1.769,2.346C46.255,19.223,45.424,20.464,44.003,20.464z"/>
		</g>
	</g>
	<path fill-rule="evenodd" clip-rule="evenodd" fill="#61696E" d="M65.232,16.472h1.297v-1.928
		c-0.304-0.138-0.952-0.373-2.042-0.373c-2.512,0-3.864,1.601-3.864,3.795c0,1.794,0.98,3.712,3.851,3.712
		c0.897,0,1.67-0.248,1.959-0.372l0.083-1.339c-0.359,0.207-1.146,0.414-1.835,0.414c-1.904,0-2.512-1.325-2.512-2.567
		c0-1.366,0.731-2.429,2.153-2.429c0.345,0,0.69,0.055,0.911,0.124V16.472z"/>
	<g>
		<g>
			<path fill-rule="evenodd" clip-rule="evenodd" fill="#61696E" d="M33.339,17.967c0-2.222-1.09-3.846-3.243-3.846
				c-2.318,0-3.519,1.707-3.519,3.832c0,2.249,1.408,3.763,3.781,3.776c1.077,0,2.029-0.29,2.525-0.497l0.083-1.27
				c-0.621,0.317-1.408,0.552-2.305,0.552c-1.421,0-2.443-0.948-2.457-2.342h5.134V17.967z M31.71,17.125h-3.505
				c0.055-0.87,0.497-1.873,1.808-1.873c1.312,0,1.698,1.141,1.698,1.734V17.125z"/>
		</g>
	</g>
	<polygon fill-rule="evenodd" clip-rule="evenodd" fill="#61696E" points="48.636,21.513 52.017,21.513 52.017,20.382 
		51.051,20.382 51.05,11.696 48.249,11.696 48.249,12.828 49.505,12.828 49.505,20.382 48.636,20.382 	"/>
	<g>
		<g>
			<path fill-rule="evenodd" clip-rule="evenodd" fill="#61696E" d="M15.732,17.967c0-2.222-1.09-3.846-3.243-3.846
				c-2.319,0-3.52,1.707-3.52,3.832c0,2.249,1.408,3.763,3.782,3.776c1.076,0,2.028-0.29,2.525-0.497l0.083-1.27
				c-0.621,0.317-1.407,0.552-2.304,0.552c-1.422,0-2.443-0.948-2.457-2.342h5.134V17.967z M14.104,17.125h-3.505
				c0.055-0.87,0.497-1.873,1.808-1.873s1.698,1.141,1.698,1.734V17.125z"/>
		</g>
	</g>
	<path fill-rule="evenodd" clip-rule="evenodd" fill="#61696E" d="M87.815,21.497h3.222V20.88h-1.345l0.028-2.479
		c0.028-2.031,1.135-3.6,2.396-3.6c0.364,0,0.616,0.07,0.882,0.182l0.112-0.7c-0.28-0.07-0.561-0.154-1.009-0.154
		c-1.303,0-2.066,1.075-2.409,2.134c0,0,0.084-1.294,0.084-1.966h-2.115v0.616h1.359l-0.056,5.967h-1.148V21.497z"/>
	<circle fill="#61696E" cx="77.304" cy="20.587" r="0.894"/>
	<polygon fill="#8E969E" points="110.096,10.136 116.192,17.257 110.041,11.599 112.062,16.688 108.796,11.232 103.527,15.814 
		108.167,10.441 100.643,11.135 107.396,9.799 101.579,2.348 108.431,9.026 106.422,2.595 109.198,9.069 115.378,3.581 
		110.38,9.323 117.868,7.29 	"/>
	<path fill="#BED139" d="M109.44,10.297c0.003,2.083-0.002,9.258-0.002,9.258s-6.218-8.795-0.999-9.738
		c-1.848,0.002-9.417-0.001-9.417-0.001s8.344-6.485,9.716-0.558C108.735,7.175,108.741,0,108.741,0s6.207,8.78,1.013,9.735
		c1.871-0.001,9.403,0.004,9.403,0.004S110.812,16.224,109.44,10.297z"/>
	<g>
		<defs>
			<path id="SVGID_1_" d="M109.737,9.502l5.704-2.64c0,0-7,12.734-7,3.242l-5.703,2.641C102.738,12.745,109.737,0.01,109.737,9.502z
				"/>
		</defs>
		<clipPath id="SVGID_2_">
			<use xlink:href="#SVGID_1_"  overflow="visible"/>
		</clipPath>
		<path clip-path="url(#SVGID_2_)" fill="#A1B960" d="M109.737,9.502l5.704-2.64c0,0-7,12.734-7,3.242l-5.703,2.641
			C102.738,12.745,109.737,0.01,109.737,9.502z"/>
		<polygon clip-path="url(#SVGID_2_)" fill="#849D55" points="110.096,10.136 116.192,17.257 110.041,11.599 112.062,16.688 
			108.796,11.232 103.527,15.814 108.167,10.441 100.643,11.135 107.396,9.799 101.579,2.348 108.431,9.026 106.422,2.595 
			109.198,9.069 115.378,3.581 110.38,9.323 117.868,7.29 		"/>
		<path clip-path="url(#SVGID_2_)" fill="#8DAD24" d="M109.44,10.297c0.003,2.083-0.002,9.258-0.002,9.258s-6.218-8.795-0.999-9.738
			c-1.848,0.002-9.417-0.001-9.417-0.001s8.344-6.485,9.716-0.558C108.735,7.175,108.741,0,108.741,0s6.207,8.78,1.013,9.735
			c1.871-0.001,9.403,0.004,9.403,0.004S110.812,16.224,109.44,10.297z"/>
	</g>
	<path fill-rule="evenodd" clip-rule="evenodd" fill="#61696E" d="M83.108,14.754c1.717,0,2.61,1.307,2.61,3.143
		s-0.894,3.143-2.61,3.143c-1.716,0-2.61-1.307-2.61-3.143S81.392,14.754,83.108,14.754z M83.108,21.618
		c2.179,0,3.301-1.679,3.301-3.721s-1.122-3.721-3.301-3.721s-3.301,1.679-3.301,3.721S80.929,21.618,83.108,21.618z"/>
	<path fill="#61696E" d="M98.223,21.708L96.177,21.4c-0.63,0.112-1.933,0.546-1.933,1.569c0,0.687,0.896,1.415,2.62,1.415
		c1.289,0,2.675-0.435,2.675-1.569C99.539,22.072,99.021,21.89,98.223,21.708z M94.482,16.595c0,1.037,0.687,2.031,2.144,2.031
		c1.274,0,2.059-0.812,2.059-2.017c0-1.092-0.784-1.989-2.143-1.989C95.379,14.621,94.482,15.377,94.482,16.595z M99.262,17.54
		c-0.343,0.95-1.226,1.704-2.524,1.704c-1.163,0-1.709,0.406-1.709,0.798c0,0.378,0.434,0.546,1.177,0.672l2.325,0.42
		c0.883,0.154,1.737,0.42,1.737,1.625c0,0.995-0.812,2.241-3.446,2.241c-1.863,0-3.306-0.645-3.306-1.947
		c0-0.91,0.91-1.681,1.919-1.835c-0.476-0.112-1.135-0.378-1.135-1.079c0-0.728,0.714-1.008,1.289-1.106
		c-0.672-0.182-1.835-0.728-1.835-2.381c0-1.499,1.079-2.704,2.788-2.704c0.052,0,0.103,0.001,0.154,0.003h3.12v0.602h-1.416
		c0.629,0.495,0.997,1.25,0.997,2.099C99.396,16.993,99.346,17.286,99.262,17.54z"/>
</g>
</svg>
