<?xml version="1.0" encoding="utf-8"?>
<!-- Generator: Adobe Illustrator 16.0.0, SVG Export Plug-In . SVG Version: 6.00 Build 0)  -->
<!DOCTYPE svg PUBLIC "-//W3C//DTD SVG 1.1//EN" "http://www.w3.org/Graphics/SVG/1.1/DTD/svg11.dtd">
<svg version="1.1" id="Ebene_1" xmlns="http://www.w3.org/2000/svg" xmlns:xlink="http://www.w3.org/1999/xlink" x="0px" y="0px"
	 width="32.966px" height="31.012px" viewBox="0 0 32.966 31.012" enable-background="new 0 0 32.966 31.012" xml:space="preserve">
<g id="Ebene_1_1_">
</g>
<g id="Ebene_2_1_">
	<g>
		<path fill="#44AEE5" d="M32.934,11.409c-0.072-0.217-0.262-0.351-0.49-0.383L21.772,9.582L16.913,0.11
			c-0.103-0.204-0.312-0.062-0.539-0.062c-0.001,0-0.002,0-0.004,0c-0.23,0-0.44-0.137-0.539,0.071l-4.679,9.463l-10.639,1.59
			c-0.229,0.035-0.416,0.184-0.485,0.405c-0.069,0.22-0.009,0.455,0.157,0.615l7.783,7.481L6.246,30.312
			c-0.034,0.226,0.061,0.455,0.246,0.589c0.105,0.074,0.228,0.111,0.353,0.111c0.097,0,0.194-0.021,0.284-0.07l9.486-5.072
			l9.577,4.967c0.205,0.108,0.451,0.088,0.638-0.049c0.185-0.137,0.276-0.366,0.237-0.592L25.146,19.58l7.642-7.561
			C32.949,11.856,33.009,11.626,32.934,11.409z M16.014,9.258c-0.32,0.947-0.831,1.828-1.361,2.438
			c-0.266,0.307-0.522,0.55-0.723,0.712c-0.199,0.164-0.338,0.249-0.338,0.249s-0.06-0.151-0.116-0.402
			c-0.062-0.25-0.119-0.598-0.146-1.003c-0.055-0.808,0.075-1.817,0.392-2.765c0.318-0.947,0.825-1.829,1.356-2.44
			c0.269-0.305,0.525-0.546,0.726-0.709c0.197-0.164,0.338-0.249,0.338-0.249s0.061,0.152,0.119,0.402
			c0.062,0.251,0.119,0.6,0.146,1.005C16.464,7.302,16.332,8.313,16.014,9.258z M23.521,27.15c-0.27-0.035-0.637-0.109-1.05-0.232
			c-0.825-0.248-1.794-0.748-2.64-1.405c-0.845-0.659-1.568-1.476-2.015-2.212c-0.221-0.369-0.385-0.705-0.486-0.957
			c-0.103-0.25-0.143-0.414-0.143-0.414s0.17-0.002,0.437,0.037c0.27,0.033,0.637,0.109,1.049,0.234
			c0.824,0.246,1.794,0.746,2.641,1.402c0.848,0.656,1.571,1.47,2.017,2.208c0.224,0.369,0.386,0.706,0.484,0.958
			c0.103,0.25,0.145,0.416,0.145,0.416S23.79,27.188,23.521,27.15z"/>
	</g>
</g>
</svg>
