<?xml version="1.0" encoding="utf-8"?>
<!-- Generator: Adobe Illustrator 16.0.0, SVG Export Plug-In . SVG Version: 6.00 Build 0)  -->
<!DOCTYPE svg PUBLIC "-//W3C//DTD SVG 1.1//EN" "http://www.w3.org/Graphics/SVG/1.1/DTD/svg11.dtd">
<svg version="1.1" id="Ebene_1" xmlns="http://www.w3.org/2000/svg" xmlns:xlink="http://www.w3.org/1999/xlink" x="0px" y="0px"
	 width="24.307px" height="25px" viewBox="0 0 24.307 25" enable-background="new 0 0 24.307 25" xml:space="preserve">
<g>
	<g>
		<path fill="#808080" d="M12.819,14.273l-1.172-0.911c-0.357-0.296-0.845-0.687-0.845-1.403c0-0.718,0.488-1.175,0.912-1.598
			c1.366-1.076,2.731-2.219,2.731-4.63c0-2.48-1.56-3.784-2.308-4.402h2.016L16.268,0H9.856C8.098,0,5.564,0.416,3.708,1.948
			C2.309,3.155,1.626,4.819,1.626,6.317c0,2.542,1.954,5.119,5.4,5.119c0.326,0,0.682-0.032,1.041-0.063
			c-0.162,0.391-0.325,0.717-0.325,1.271c0,1.009,0.521,1.63,0.977,2.216c-1.465,0.102-4.199,0.263-6.215,1.502
			C0.584,17.502,0,19.165,0,20.337C0,22.751,2.276,25,6.994,25c5.596,0,8.557-3.097,8.557-6.16
			C15.553,16.588,14.25,15.479,12.819,14.273z M8.557,10.523c-2.798,0-4.067-3.619-4.067-5.802c0-0.85,0.161-1.728,0.714-2.413
			c0.522-0.653,1.431-1.076,2.28-1.076c2.699,0,4.098,3.651,4.098,6c0,0.587-0.065,1.628-0.812,2.38
			C10.246,10.135,9.371,10.523,8.557,10.523z M8.59,23.635c-3.481,0-5.726-1.666-5.726-3.98s2.081-3.098,2.797-3.357
			c1.365-0.459,3.124-0.523,3.416-0.523c0.326,0,0.488,0,0.748,0.033c2.473,1.76,3.548,2.639,3.548,4.305
			C13.374,22.131,11.713,23.635,8.59,23.635z"/>
		<polygon fill="#808080" points="21.035,10.473 21.035,7.214 19.425,7.214 19.425,10.473 16.171,10.473 16.171,12.101 
			19.425,12.101 19.425,15.381 21.035,15.381 21.035,12.101 24.307,12.101 24.307,10.473 		"/>
	</g>
</g>
<g>
</g>
<g>
</g>
<g>
</g>
<g>
</g>
<g>
</g>
<g>
</g>
<g>
</g>
<g>
</g>
<g>
</g>
<g>
</g>
<g>
</g>
<g>
</g>
<g>
</g>
<g>
</g>
<g>
</g>
</svg>
