<?xml version="1.0" encoding="utf-8"?>
<!-- Generator: Adobe Illustrator 16.0.4, SVG Export Plug-In . SVG Version: 6.00 Build 0)  -->
<!DOCTYPE svg PUBLIC "-//W3C//DTD SVG 1.1//EN" "http://www.w3.org/Graphics/SVG/1.1/DTD/svg11.dtd">
<svg version="1.1" xmlns="http://www.w3.org/2000/svg" xmlns:xlink="http://www.w3.org/1999/xlink" x="0px" y="0px" width="91px"
	 height="86px" viewBox="0 0 91 86" enable-background="new 0 0 91 86" xml:space="preserve">
<g id="Ebene_1">
</g>
<g id="Ebene_2">
	<g>
		<polyline fill="#0071BC" points="70,86 70,64 91,64 		"/>
		<g>
			<rect fill="#44AEE5" width="91" height="64"/>
			<g>
				<rect x="51.812" y="21.799" fill="#FFFFFF" width="5" height="19"/>
				<path fill="#FFFFFF" d="M43.346,25.867H20.562v10.43h22.784l6.216,4.018V22.281L43.346,25.867z M36.803,33.316
					c-1.168,0-2.114-0.947-2.114-2.115c0-1.166,0.946-2.113,2.114-2.113c1.167,0,2.114,0.947,2.114,2.113
					C38.917,32.369,37.97,33.316,36.803,33.316z"/>
				<rect x="58.812" y="29.799" fill="#FFFFFF" width="12" height="3"/>
				<polygon fill="#FFFFFF" points="59,23.51 59,26.705 71,22.307 71,19.111 				"/>
				<polygon fill="#FFFFFF" points="59,35.422 59,38.73 71,44.293 71,40.984 				"/>
			</g>
		</g>
	</g>
</g>
</svg>
