<?xml version="1.0" encoding="utf-8"?>
<!-- Generator: Adobe Illustrator 16.0.4, SVG Export Plug-In . SVG Version: 6.00 Build 0)  -->
<!DOCTYPE svg PUBLIC "-//W3C//DTD SVG 1.1//EN" "http://www.w3.org/Graphics/SVG/1.1/DTD/svg11.dtd">
<svg version="1.1" xmlns="http://www.w3.org/2000/svg" xmlns:xlink="http://www.w3.org/1999/xlink" x="0px" y="0px" width="50px"
	 height="50px" viewBox="0 0 50 50" enable-background="new 0 0 50 50" xml:space="preserve">
<g id="Ebene_1">
</g>
<g id="Ebene_2">
	<g>
		<rect x="31.125" y="15.5" fill="#44AEE5" width="5" height="19"/>
		<path fill="#44AEE5" d="M22.659,19.569H-0.125v10.43h22.784l6.216,4.018V15.983L22.659,19.569z M16.115,27.019
			c-1.168,0-2.114-0.947-2.114-2.115c0-1.166,0.946-2.113,2.114-2.113c1.167,0,2.114,0.947,2.114,2.113
			C18.229,26.071,17.283,27.019,16.115,27.019z"/>
		<rect x="38.125" y="23.5" fill="#44AEE5" width="12" height="3"/>
		<polygon fill="#44AEE5" points="38.125,17.212 38.125,20.407 50.125,16.008 50.125,12.812 		"/>
		<polygon fill="#44AEE5" points="38.125,29.124 38.125,32.433 50.125,37.994 50.125,34.686 		"/>
	</g>
</g>
</svg>
