<?xml version="1.0" encoding="utf-8"?>
<!-- Generator: Adobe Illustrator 16.0.4, SVG Export Plug-In . SVG Version: 6.00 Build 0)  -->
<!DOCTYPE svg PUBLIC "-//W3C//DTD SVG 1.1//EN" "http://www.w3.org/Graphics/SVG/1.1/DTD/svg11.dtd">
<svg version="1.1" xmlns="http://www.w3.org/2000/svg" xmlns:xlink="http://www.w3.org/1999/xlink" x="0px" y="0px" width="50px"
	 height="50px" viewBox="0 0 50 50" enable-background="new 0 0 50 50" xml:space="preserve">
<g id="Ebene_1">
</g>
<g id="Ebene_2">
	<g>
		<path fill="#44AEE5" d="M19.705,22.223c0.488-0.45,0.603-0.752,1.004-1.279c1.593-2.087,2.905-4.346,4.061-6.699
			c0.09-0.188,0.134-0.368,0.125-0.578c-0.024-0.504-0.012-1.012-0.022-1.52c-0.021-1.162-0.03-2.325-0.046-3.489
			c0-0.084,0.021-0.154,0.068-0.226c0.519-0.759,1.231-1.227,2.126-1.427c0.246-0.056,0.497-0.069,0.746-0.097
			c0.1,0,0.202,0,0.303,0c0.137,0.011,0.274,0.021,0.41,0.037c0.608,0.073,1.191,0.23,1.728,0.537
			c0.184,0.104,0.329,0.245,0.437,0.434c0.662,1.133,1.215,2.314,1.641,3.559c0.382,1.113,0.63,2.249,0.545,3.441
			c-0.049,0.685-0.125,1.363-0.256,2.033c-0.168,0.871-0.409,1.723-0.617,2.584c-0.046,0.191-0.046,0.191,0.15,0.191
			c3.309,0,6.617,0.001,9.925,0c0.486,0,0.935,0.117,1.352,0.36c1.355,0.792,1.961,2.512,1.418,4.011
			c-0.256,0.705-0.697,1.28-1.248,1.775c-0.067,0.062-0.076,0.105-0.032,0.185c0.306,0.575,0.407,1.185,0.301,1.825
			c-0.149,0.893-0.598,1.619-1.255,2.229c-0.097,0.089-0.12,0.164-0.081,0.291c0.181,0.602,0.251,1.214,0.151,1.839
			c-0.138,0.867-0.549,1.584-1.205,2.16c-0.067,0.06-0.083,0.11-0.062,0.199c0.218,0.868,0.214,1.732-0.104,2.583
			c-0.336,0.899-0.934,1.59-1.736,2.104c-0.667,0.428-1.389,0.7-2.193,0.7c-5.06,0.001-10.119,0-15.178,0.001
			c-0.176,0-0.348-0.022-0.515-0.072c-0.609-0.187-1.117-0.53-1.56-0.979c-0.029-0.03-0.052-0.069-0.127-0.095
			c0,0.26,0.003,0.499-0.001,0.74c-0.003,0.182-0.002,0.365-0.028,0.541c-0.085,0.535-0.627,0.969-1.192,0.969
			c-3.733,0-7.468,0-11.202,0c-0.053,0-0.107-0.002-0.16-0.009c-0.54-0.082-1.063-0.614-1.149-1.185
			c-0.039-0.26-0.047-0.525-0.068-0.792c-0.046-0.58-0.091-1.161-0.136-1.743c-0.036-0.469-0.071-0.936-0.107-1.404
			c-0.045-0.573-0.089-1.15-0.133-1.725c-0.036-0.471-0.071-0.942-0.108-1.414c-0.043-0.574-0.089-1.147-0.134-1.726
			c-0.036-0.47-0.07-0.942-0.106-1.412C5.39,29.11,5.343,28.54,5.3,27.967c-0.036-0.476-0.071-0.954-0.107-1.434
			c-0.045-0.588-0.09-1.177-0.136-1.765C5.038,24.568,5.018,24.364,5,24.16c0-0.309,0-0.616,0-0.926
			c0.016-0.035,0.031-0.067,0.049-0.1c0.303-0.559,0.736-0.912,1.404-0.908c0.795,0.008,1.589,0.007,2.385,0.011
			c2.193,0.011,4.387,0.006,6.58,0.008L19.705,22.223z M29.967,38.386c0,0.002,0,0.005,0,0.007c2.495,0,4.991-0.002,7.487,0.002
			c0.207,0,0.397-0.043,0.581-0.136c0.604-0.303,1.108-0.727,1.503-1.276c0.234-0.324,0.398-0.68,0.418-1.084
			c0.028-0.534-0.207-0.952-0.592-1.299c-0.2-0.183-0.25-0.415-0.131-0.652c0.044-0.084,0.104-0.146,0.201-0.166
			c0.106-0.024,0.205-0.064,0.3-0.115c0.617-0.339,1.031-0.855,1.271-1.504c0.275-0.743,0.104-1.37-0.486-1.898
			c-0.26-0.233-0.183-0.647,0.147-0.795c0.414-0.185,0.778-0.438,1.075-0.781c0.417-0.484,0.6-1.044,0.489-1.679
			c-0.079-0.451-0.271-0.854-0.608-1.177c-0.208-0.199-0.135-0.576,0.129-0.652c0.218-0.064,0.416-0.168,0.607-0.287
			c0.772-0.484,1.188-1.365,1.04-2.229c-0.15-0.873-0.83-1.36-1.537-1.372c-1.553-0.021-3.106-0.005-4.659-0.005
			c-2.335,0-4.671,0-7.005-0.002c-0.129,0-0.133-0.009-0.106-0.135c0.003-0.015,0.006-0.025,0.008-0.039
			c0.366-1.629,0.713-3.264,0.933-4.92c0.076-0.578,0.124-1.16,0.147-1.744c0.021-0.508-0.083-1.001-0.21-1.488
			c-0.358-1.382-0.896-2.697-1.5-3.987c-0.026-0.058-0.065-0.1-0.118-0.132C28.91,8.553,28.427,8.428,27.9,8.458
			c-0.441,0.024-0.842,0.153-1.209,0.396c-0.11,0.072-0.154,0.151-0.154,0.285c0.004,1.673,0.002,3.343,0.003,5.013
			c0,0.09-0.01,0.172-0.051,0.252c-0.524,1.014-1.064,2.019-1.635,3.007c-1.179,2.036-2.477,3.995-3.944,5.841
			c-0.064,0.079-0.139,0.145-0.222,0.202c-0.612,0.418-1.221,0.805-1.835,1.22c-0.117,0.079-0.161,0.162-0.161,0.302
			c0.004,3.993,0.003,8.021,0.004,12.013c0,0.034,0.001,0.067,0,0.101c-0.003,0.067,0.031,0.095,0.098,0.097
			c0.314,0.002,0.631,0.028,0.945,0.005c0.273-0.018,0.505,0.036,0.739,0.186c0.481,0.31,0.981,0.593,1.488,0.861
			c0.111,0.057,0.224,0.107,0.352,0.111c0.208,0.006,0.416,0.015,0.624,0.017c0.822,0.011,1.644,0.013,2.466,0.019
			C26.926,38.394,28.447,38.386,29.967,38.386z"/>
		<circle fill="#FFFFFF" cx="14.274" cy="36.616" r="1.647"/>
	</g>
</g>
</svg>
