<?xml version="1.0" encoding="utf-8"?>
<!-- Generator: Adobe Illustrator 16.0.0, SVG Export Plug-In . SVG Version: 6.00 Build 0)  -->
<!DOCTYPE svg PUBLIC "-//W3C//DTD SVG 1.1//EN" "http://www.w3.org/Graphics/SVG/1.1/DTD/svg11.dtd">
<svg version="1.1" xmlns="http://www.w3.org/2000/svg" xmlns:xlink="http://www.w3.org/1999/xlink" x="0px" y="0px" width="91px"
	 height="86px" viewBox="0 0 91 86" enable-background="new 0 0 91 86" xml:space="preserve">
<g id="Ebene_1">
	<rect x="4175" y="-464" fill="#FFFFFF" width="40" height="44"/>
	<rect x="4434" y="-422" fill="#FFFFFF" width="40" height="44"/>
	<rect x="4594" y="-76" fill="#FFFFFF" width="40" height="44"/>
	<rect x="3882" y="-76" fill="#FFFFFF" width="40" height="44"/>
</g>
<g id="Ebene_2">
	<g id="Your_Icon">
		<path d="M3599.485-902.091v-3.06h-9.484v3.06h-3.06v-3.06h-9.484v3.06h-0.649h-2.104v9.179h2.104h0.649v3.366h3.06v2.753h3.06
			v3.365h3.059v2.754h3.672v-2.754h3.06v-3.365h0.273h2.785v-2.753h3.061v-3.366h0.629h2.125v-9.179"/>
	</g>
	<g>
		<path d="M3581.431-981.206l-13.454-7.299v-4.041l13.454-7.263v4.759l-8.377,4.475l8.377,4.643V-981.206z"/>
		<path d="M3584.321-984.913l4.542-0.553c0.145,1.159,0.535,2.044,1.169,2.655c0.635,0.613,1.402,0.919,2.305,0.919
			c0.97,0,1.785-0.366,2.446-1.103c0.662-0.733,0.993-1.724,0.993-2.972c0-1.181-0.316-2.115-0.952-2.806
			c-0.635-0.69-1.408-1.035-2.319-1.035c-0.603,0-1.32,0.116-2.154,0.352l0.517-3.825c1.269,0.032,2.236-0.24,2.906-0.823
			c0.667-0.586,1.002-1.364,1.002-2.333c0-0.824-0.245-1.48-0.734-1.971c-0.491-0.49-1.142-0.735-1.954-0.735
			c-0.802,0-1.486,0.278-2.055,0.836c-0.569,0.557-0.913,1.369-1.036,2.438l-4.324-0.735c0.301-1.481,0.753-2.66,1.36-3.546
			c0.607-0.885,1.452-1.582,2.538-2.087c1.086-0.507,2.302-0.764,3.649-0.764c2.305,0,4.153,0.735,5.544,2.205
			c1.146,1.202,1.721,2.56,1.721,4.074c0,2.148-1.174,3.863-3.522,5.144c1.401,0.3,2.523,0.975,3.363,2.021
			c0.841,1.045,1.262,2.309,1.262,3.79c0,2.149-0.786,3.98-2.354,5.494c-1.571,1.515-3.525,2.271-5.862,2.271
			c-2.216,0-4.053-0.634-5.512-1.908C3585.4-981.184,3584.554-982.854,3584.321-984.913z"/>
	</g>
	<rect x="3240" y="-1166" width="30" height="13"/>
	<rect x="3274" y="-1170" width="7" height="21"/>
	<ellipse cx="3280.593" cy="-1159.498" rx="6.657" ry="10.558"/>
	<path d="M3281.488-1159.498c0,5.831-3.258,10.558-7.277,10.558c-4.018,0-9.128-4.727-9.128-10.558s5.11-10.558,9.128-10.558
		C3278.23-1170.056,3281.488-1165.329,3281.488-1159.498z"/>
	<path d="M3235.879-1159.586c0-3.637,1.941-6.391,4.1-6.391s4.712,2.754,4.712,6.391c0,3.639-2.745,6.587-4.903,6.587
		S3235.879-1155.947,3235.879-1159.586z"/>
	<path fill="#FFFFFF" d="M3284.583-1159.498c0,4.514-1.801,8.173-2.747,8.173c-0.945,0-2.35-3.659-2.35-8.173
		s1.404-8.173,2.35-8.173C3282.782-1167.671,3284.583-1164.012,3284.583-1159.498z"/>
	<rect x="3286" y="-1161" width="16" height="4"/>
	<rect x="3284" y="-1152" transform="matrix(0.9077 0.4197 -0.4197 0.9077 -178.6868 -1487.7831)" width="16" height="4.001"/>
	<rect x="3284" y="-1169" transform="matrix(0.9386 -0.345 0.345 0.9386 604.8047 1064.1731)" width="16" height="4"/>
	<g>
		<path d="M3541.789-893.52l8.163-2.971l-1.065-2.928l-8.247,3.003c0.085-0.032,0.576,1.165,0.791,1.754
			C3541.558-894.312,3541.462-894.505,3541.789-893.52z"/>
		<path d="M3549.26-887.373l0.746-2.897l-8.04-1.915c0.108,1.046,0.052,2.032-0.154,2.902L3549.26-887.373z"/>
		<path d="M3545.133-903.66l-2.438-1.75l-4.972,5.572c0.749,0.488,1.464,1.182,2.091,2.038L3545.133-903.66z"/>
	</g>
	<path d="M3539.205-896.112c-0.233-0.425-0.485-0.823-0.756-1.191c-0.627-0.855-1.377-1.65-2.125-2.139
		c-1.177-0.768-2.468-1.134-3.589-0.726l-4.354,1.585c-1.586,0.576-3.064,2.219-3.618,4.632l-12.062,4.39l0,0
		c0,0-0.529,0.192-0.533,0.193c-1.473,0.537-2.159,2.873-1.256,5.354c0.903,2.482,2.784,4.033,4.257,3.498l12.786-4.654
		c1.622,0.514,4.165,1.797,5.753,1.219l4.354-1.583c1.226-0.446,2.04-1.664,2.405-3.202c0.207-0.869,0.253-1.882,0.144-2.928
		c-0.057-0.562-0.168-1.152-0.324-1.736c-0.093-0.347-0.196-0.699-0.323-1.048C3539.748-895.038,3539.489-895.596,3539.205-896.112z
		 M3538.297-887.533c-0.177,0.063-0.444-0.053-0.762-0.313c-0.267-0.22-0.567-0.539-0.883-0.948
		c-0.686-0.893-1.431-2.196-1.989-3.731c-0.56-1.534-0.826-3.013-0.874-4.136c-0.022-0.518,0.003-0.955,0.067-1.295
		c0.075-0.402,0.205-0.665,0.381-0.729c0.646-0.235,2.782,1.815,3.903,4.896C3539.261-890.711,3538.941-887.769,3538.297-887.533z"
		/>
	<circle fill="#FFFFFF" cx="3521.675" cy="-887.64" r="1.494"/>
	<g>
		<g>
			<path d="M3300.632-1105H3309v-3h-8.453c0.087,0,0.138,1.245,0.138,1.85C3300.685-1105.793,3300.662-1106,3300.632-1105z"/>
			<path d="M3305.37-1096.976l1.63-2.376l-6.646-4.383c-0.246,0.982-0.622,1.856-1.096,2.575L3305.37-1096.976z"/>
			<path d="M3307-1113.076l-1.63-2.388l-6.335,3.406c0.517,0.688,0.934,1.552,1.221,2.533L3307-1113.076z"/>
		</g>
		<path d="M3299.148-1108.197c-0.071-0.462-0.169-0.905-0.292-1.327c-0.286-0.981-0.703-1.948-1.22-2.637
			c-0.812-1.082-1.86-1.839-3.008-1.839h-4.463c-1.626,0-3.505,1-4.802,3H3273l0,0c0,0-0.541,0-0.546,0
			c-1.509,0-2.9,1.889-2.9,4.432c0,2.545,1.191,4.568,2.7,4.568h13.107c1.298,1,3.178,3,4.805,3h4.463
			c1.256,0,2.394-0.834,3.23-2.105c0.474-0.719,0.85-1.62,1.096-2.603c0.133-0.527,0.227-1.098,0.278-1.679
			c0.03-0.344,0.052-0.698,0.052-1.056C3299.285-1107.047,3299.235-1107.637,3299.148-1108.197z M3295.499-1100.732
			c-0.18,0-0.384-0.194-0.585-0.534c-0.169-0.286-0.337-0.674-0.487-1.149c-0.326-1.033-0.571-2.458-0.571-4.032
			s0.245-2.999,0.571-4.032c0.15-0.476,0.318-0.863,0.487-1.149c0.201-0.339,0.405-0.534,0.585-0.534
			c0.662,0,1.921,2.56,1.921,5.716C3297.42-1103.291,3296.161-1100.732,3295.499-1100.732z"/>
		<circle fill="#FFFFFF" cx="3280.49" cy="-1106.304" r="1.145"/>
	</g>
	<polygon points="3309.516,-1221.261 3266.365,-1246 3266.516,-1295.738 3309.817,-1320.738 3352.968,-1296 3352.817,-1246.261 	"/>
	<line fill="none" stroke="#FFFFFF" stroke-width="5" stroke-miterlimit="10" x1="3309.5" y1="-1271" x2="3309.5" y2="-1188"/>
	
		<line fill="none" stroke="#FFFFFF" stroke-width="5" stroke-miterlimit="10" x1="3231.334" y1="-1316.448" x2="3309.845" y2="-1271.154"/>
	
		<line fill="none" stroke="#FFFFFF" stroke-width="5" stroke-miterlimit="10" x1="3387.846" y1="-1316.448" x2="3309.335" y2="-1271.154"/>
	<g>
		<polygon stroke="#FFFFFF" stroke-width="0.5" stroke-miterlimit="10" points="3480.059,-888.512 3474.998,-885.604 
			3474.998,-879.808 3480.059,-882.708 		"/>
		<polygon stroke="#FFFFFF" stroke-width="0.5" stroke-miterlimit="10" points="3469.245,-888.491 3469.245,-882.675 
			3474.201,-879.808 3474.201,-885.615 		"/>
		<g>
			<polygon stroke="#FFFFFF" stroke-width="0.5" stroke-miterlimit="10" points="3479.592,-889.127 3474.626,-891.972 
				3469.648,-889.101 3474.598,-886.245 			"/>
		</g>
		<g>
			<polygon stroke="#FFFFFF" stroke-width="0.5" stroke-miterlimit="10" points="3479.592,-902.385 3474.626,-905.229 
				3469.648,-902.358 3474.598,-899.503 			"/>
		</g>
		<g>
			<polygon stroke="#FFFFFF" stroke-width="0.5" stroke-miterlimit="10" points="3474.184,-898.462 3469.123,-895.554 
				3469.123,-889.758 3474.184,-892.658 			"/>
			<polygon stroke="#FFFFFF" stroke-width="0.5" stroke-miterlimit="10" points="3463.37,-898.441 3463.37,-892.625 
				3468.326,-889.758 3468.326,-895.565 			"/>
			<polygon stroke="#FFFFFF" stroke-width="0.5" stroke-miterlimit="10" points="3463.37,-891.695 3463.37,-885.879 
				3468.326,-883.012 3468.326,-888.819 			"/>
			<g>
				<polygon stroke="#FFFFFF" stroke-width="0.5" stroke-miterlimit="10" points="3473.717,-899.077 3468.751,-901.922 
					3463.773,-899.051 3468.723,-896.195 				"/>
			</g>
		</g>
		<g>
			<polygon stroke="#FFFFFF" stroke-width="0.5" stroke-miterlimit="10" points="3474.997,-898.462 3480.058,-895.554 
				3480.058,-889.758 3474.997,-892.658 			"/>
			<polygon stroke="#FFFFFF" stroke-width="0.5" stroke-miterlimit="10" points="3485.811,-898.441 3485.811,-892.625 
				3480.854,-889.758 3480.854,-895.565 			"/>
			<polygon stroke="#FFFFFF" stroke-width="0.5" stroke-miterlimit="10" points="3485.811,-891.695 3485.811,-885.879 
				3480.854,-883.012 3480.854,-888.819 			"/>
			<g>
				<polygon stroke="#FFFFFF" stroke-width="0.5" stroke-miterlimit="10" points="3475.464,-899.077 3480.43,-901.922 
					3485.407,-899.051 3480.458,-896.195 				"/>
			</g>
		</g>
	</g>
	<polygon points="3632.468,-898.564 3636.448,-906.819 3640.584,-898.609 3649.668,-897.34 3643.164,-890.897 3644.797,-881.858 
		3636.644,-886.086 3628.568,-881.769 3630.033,-890.824 3623.408,-897.195 	"/>
	<path fill="none" stroke="#FFFFFF" stroke-miterlimit="10" d="M3628.957-898.662"/>
	
		<line fill="none" stroke="#FFFFFF" stroke-width="1.5" stroke-miterlimit="10" x1="3637.121" y1="-888.778" x2="3641.164" y2="-885.755"/>
	
		<line fill="none" stroke="#FFFFFF" stroke-width="1.5" stroke-miterlimit="10" x1="3579.63" y1="-894.245" x2="3588.471" y2="-885.64"/>
	
		<line fill="none" stroke="#FFFFFF" stroke-width="1.5" stroke-miterlimit="10" x1="3634.148" y1="-896.445" x2="3635.832" y2="-901.297"/>
	<polyline fill="none" stroke="#000000" stroke-width="1.5" stroke-miterlimit="10" points="3635.428,-994.328 3634.804,-989.403 
		3630,-989.403 	"/>
	<path fill="none" stroke="#FFFFFF" stroke-width="1.5" stroke-miterlimit="10" d="M3529.071-895c0-4.789,4.046-8.664,9.047-8.664"
		/>
	<g>
		<path d="M3541.789-996.52l8.163-2.971l-1.065-2.928l-8.247,3.003c0.085-0.032,0.576,1.165,0.791,1.754
			C3541.558-997.312,3541.462-997.505,3541.789-996.52z"/>
		<path d="M3549.26-990.373l0.746-2.897l-8.04-1.915c0.108,1.046,0.052,2.032-0.154,2.902L3549.26-990.373z"/>
		<path d="M3545.133-1006.66l-2.438-1.75l-4.972,5.572c0.749,0.488,1.464,1.182,2.091,2.038L3545.133-1006.66z"/>
	</g>
	<path d="M3539.205-999.112c-0.233-0.425-0.485-0.823-0.756-1.191c-0.627-0.855-1.377-1.65-2.125-2.139
		c-1.177-0.768-2.468-1.134-3.589-0.726l-4.354,1.585c-1.586,0.576-3.064,2.219-3.618,4.632l-12.062,4.39l0,0
		c0,0-0.529,0.192-0.533,0.193c-1.473,0.537-2.159,2.873-1.256,5.354c0.903,2.482,2.784,4.033,4.257,3.498l12.786-4.654
		c1.622,0.514,4.165,1.797,5.753,1.219l4.354-1.583c1.226-0.446,2.04-1.664,2.405-3.202c0.207-0.869,0.253-1.882,0.144-2.928
		c-0.057-0.562-0.168-1.152-0.324-1.736c-0.093-0.347-0.196-0.699-0.323-1.048C3539.748-998.038,3539.489-998.596,3539.205-999.112z
		 M3538.297-990.533c-0.177,0.063-0.444-0.053-0.762-0.313c-0.267-0.22-0.567-0.539-0.883-0.948
		c-0.686-0.893-1.431-2.196-1.989-3.731c-0.56-1.534-0.826-3.013-0.874-4.136c-0.022-0.518,0.003-0.955,0.067-1.295
		c0.075-0.402,0.205-0.665,0.381-0.729c0.646-0.235,2.782,1.815,3.903,4.896C3539.261-993.711,3538.941-990.769,3538.297-990.533z"
		/>
	<circle fill="#FFFFFF" cx="3521.675" cy="-990.64" r="1.494"/>
	<path fill="none" stroke="#FFFFFF" stroke-miterlimit="10" d="M3529.071-998c0-4.789,4.046-8.664,9.047-8.664"/>
	<g>
		<polyline fill="none" stroke="#000000" stroke-miterlimit="10" points="3440.5,-1033.5 3444.471,-1039.154 3448.5,-1033.5 		"/>
		<polygon points="3446.545,-1036 3444.411,-1036 3442.396,-1036 3444.471,-1039.389 		"/>
		
			<rect x="3440.5" y="-1033.5" fill="none" stroke="#000000" stroke-linejoin="round" stroke-miterlimit="10" width="8" height="18"/>
		<line fill="none" stroke="#000000" stroke-miterlimit="10" x1="3445.882" y1="-1033" x2="3445.882" y2="-1015"/>
		<line fill="none" stroke="#000000" stroke-miterlimit="10" x1="3443.056" y1="-1033" x2="3443.056" y2="-1015"/>
	</g>
	<rect x="3427" y="-1040" width="8" height="25"/>
	<g>
		
			<line fill="none" stroke="#FFFFFF" stroke-linejoin="round" stroke-miterlimit="10" x1="3432" y1="-1035.5" x2="3435" y2="-1035.5"/>
		
			<line fill="none" stroke="#FFFFFF" stroke-linejoin="round" stroke-miterlimit="10" x1="3432" y1="-1031.5" x2="3435" y2="-1031.5"/>
		
			<line fill="none" stroke="#FFFFFF" stroke-linejoin="round" stroke-miterlimit="10" x1="3432" y1="-1027.5" x2="3435" y2="-1027.5"/>
		
			<line fill="none" stroke="#FFFFFF" stroke-linejoin="round" stroke-miterlimit="10" x1="3432" y1="-1023.5" x2="3435" y2="-1023.5"/>
		
			<line fill="none" stroke="#FFFFFF" stroke-linejoin="round" stroke-miterlimit="10" x1="3432" y1="-1019.5" x2="3435" y2="-1019.5"/>
	</g>
	<polygon points="3435.569,-904.983 3416.517,-885.931 3422.615,-879.832 3425.663,-882.881 3423.377,-885.168 3424.482,-886.262 
		3426.769,-883.975 3428.711,-885.93 3426.425,-888.217 3427.188,-888.979 3429.474,-886.692 3431.76,-888.979 3429.474,-891.265 
		3430.235,-892.026 3432.521,-889.74 3434.809,-892.026 3432.521,-894.312 3433.283,-895.075 3435.57,-892.789 3437.568,-894.74 
		3435.281,-897.026 3436.333,-898.124 3438.62,-895.837 3441.668,-898.885 	"/>
	<g>
		<polyline fill="none" stroke="#000000" stroke-miterlimit="10" points="3416.5,-996.5 3420.471,-1002.154 3424.5,-996.5 		"/>
		<polygon points="3422.545,-999 3420.411,-999 3418.396,-999 3420.471,-1002.389 		"/>
		
			<rect x="3416.5" y="-996.5" fill="none" stroke="#000000" stroke-linejoin="round" stroke-miterlimit="10" width="8" height="18"/>
		<line fill="none" stroke="#000000" stroke-miterlimit="10" x1="3421.882" y1="-996" x2="3421.882" y2="-978"/>
		<line fill="none" stroke="#000000" stroke-miterlimit="10" x1="3419.056" y1="-996" x2="3419.056" y2="-978"/>
	</g>
	<polygon points="3427,-1003 3427,-978 3435,-978 3435,-982 3432,-982 3432,-983 3435,-983 3435,-986 3432,-986 3432,-987 
		3435,-987 3435,-990 3432,-990 3432,-991 3435,-991 3435,-994 3432,-994 3432,-995 3435,-995 3435,-998 3432,-998 3432,-999 
		3435,-999 3435,-1003 	"/>
	<g>
		<polyline fill="none" stroke="#000000" stroke-width="1.4477" stroke-miterlimit="10" points="3419.054,-895.48 
			3417.626,-903.649 3425.843,-902.271 		"/>
		<polygon points="3422.062,-902.734 3420.251,-900.922 3418.541,-899.213 3417.427,-903.85 		"/>
		
			<rect x="3425.286" y="-902.04" transform="matrix(0.707 -0.7072 0.7072 0.707 1635.2883 2164.6584)" fill="#FFFFFF" stroke="#000000" stroke-width="1.4477" stroke-linejoin="round" stroke-miterlimit="10" width="9.601" height="21.605"/>
		
			<line fill="none" stroke="#000000" stroke-width="1.4477" stroke-miterlimit="10" x1="3424.047" y1="-899.625" x2="3439.322" y2="-884.348"/>
		
			<line fill="none" stroke="#000000" stroke-width="1.4477" stroke-miterlimit="10" x1="3421.647" y1="-897.226" x2="3436.924" y2="-881.949"/>
	</g>
	<g>
		<path d="M3379.675-1104.239c0-0.585-0.475-1.058-1.058-1.058c-0.584,0-1.058,0.473-1.058,1.058v1.995
			c-0.232-0.121-0.47-0.229-0.711-0.33v-5.047c0-0.585-0.473-1.059-1.056-1.059c-0.584,0-1.059,0.474-1.059,1.059v4.416
			c-0.238-0.05-0.477-0.09-0.71-0.125v-5.139c0-0.583-0.473-1.056-1.058-1.056c-0.584,0-1.058,0.473-1.058,1.056v4.963
			c-0.253-0.006-0.487-0.006-0.702,0v-3.06c0-0.583-0.473-1.056-1.056-1.056s-1.058,0.473-1.058,1.056v6.709l-0.701,0.703
			l-2.078-2.076c-0.413-0.414-1.082-0.414-1.495,0c-0.412,0.411-0.412,1.082,0,1.494l4.278,4.277
			c-0.229,8.543-7.252,15.423-15.85,15.423c-0.583,0-1.057,0.473-1.057,1.058c0,0.584,0.474,1.057,1.057,1.057
			c9.908,0,17.97-8.061,17.97-17.97c0-0.279-0.11-0.549-0.31-0.746l-1.021-1.021l0.658-0.658c0.793,0.121,2.51,0.541,3.355,1.987
			c0.195,0.337,0.551,0.525,0.914,0.525c0.181,0,0.363-0.048,0.532-0.145c0.504-0.295,0.673-0.943,0.38-1.445
			c-1.178-2.016-3.266-2.714-4.518-2.953v-1.046c0.522-0.011,1.223,0,1.997,0.085c1.327,0.147,3.107,0.542,4.354,1.575v3.842
			c0,13.405-10.906,24.312-24.312,24.312c-0.583,0-1.057,0.473-1.057,1.056c0,0.585,0.474,1.06,1.057,1.06
			c14.571,0,26.427-11.855,26.427-26.426V-1104.239z"/>
		<g>
			<path d="M3382.01-1088.381c-0.09,0-0.182-0.011-0.271-0.033c-0.597-0.149-0.959-0.754-0.812-1.349
				c0.498-1.993,0.75-4.055,0.75-6.126v-4.31c0-0.615,0.498-1.113,1.113-1.113c0.614,0,1.112,0.498,1.112,1.113v4.31
				c0,2.253-0.273,4.495-0.815,6.664C3382.961-1088.719,3382.508-1088.381,3382.01-1088.381z"/>
		</g>
		<g>
			<path d="M3385.56-1088.381c-0.09,0-0.18-0.011-0.271-0.033c-0.596-0.149-0.959-0.754-0.81-1.349
				c0.565-2.272,0.749-3.761,0.749-6.126c0-0.615,0.498-1.113,1.113-1.113c0.613,0,1.113,0.498,1.113,1.113
				c0,2.54-0.207,4.222-0.815,6.664C3386.511-1088.719,3386.058-1088.381,3385.56-1088.381z"/>
		</g>
	</g>
	
		<path fill="none" stroke="#000000" stroke-width="3.0046" stroke-linecap="round" stroke-linejoin="round" stroke-miterlimit="10" d="
		M3369.823-891.412"/>
	<g>
		<g>
			<path fill="#FFFFFF" d="M3361.295-839.722c0-0.109,0-0.219,0-0.328c0-1.935-3-1.935-3,0c0,0.109,0,0.219,0,0.328
				C3358.295-837.787,3361.295-837.787,3361.295-839.722L3361.295-839.722z"/>
		</g>
	</g>
	<path fill="none" stroke="#000000" stroke-width="2" stroke-miterlimit="10" d="M3393.637-896.835
		c1.95,3.925,1.112,11.723-1.896,14.291"/>
	<path fill="none" stroke="#000000" stroke-width="2" stroke-miterlimit="10" d="M3398.586-893.309
		c0.287,2.549-0.037,5.467-0.903,7.74"/>
	<path d="M3390.113-901h-0.227c-0.49,0-0.887,0.396-0.887,0.886v3.755c-0.312-0.144-0.646-0.264-1-0.355v-6.399
		c0-0.489-0.396-0.886-0.887-0.886h-0.227c-0.49,0-0.887,0.396-0.887,0.886v6.124c-0.164-0.006-0.329-0.01-0.494-0.01h-0.01
		c-0.166,0-0.331,0-0.496,0v-7.114c0-0.489-0.396-0.886-0.887-0.886h-0.227c-0.49,0-0.887,0.396-0.887,0.886v7.193
		c-0.354,0.037-0.688,0.095-1,0.176v-5.369c0-0.489-0.396-0.886-0.887-0.886h-0.227c-0.49,0-0.887,0.396-0.887,0.886v7.873v0.741
		c1.145-0.139,2.428,0.09,3.468,0.654c1.329,0.722,2.309,1.949,2.751,3.407l-1.329,0.444c-0.366-1.205-1.09-2.102-2.187-2.697
		c-0.89-0.482-1.725-0.711-2.703-0.565l0,0l-2.908-2.067c-0.347-0.346-0.907-0.346-1.254,0.001l-0.16,0.16
		c-0.347,0.347-0.347,0.907,0,1.253l5.024,5.461c0.234,0.397,0.522,0.74,0.847,1.038c-2.082,1.163-6.284,1.936-10.549,1.936v7
		c9.789,0,16.181-2.348,18.205-7.012c0.766-1.347,1.483-3.232,1.724-5.051c0.046-0.106,0.071-0.224,0.071-0.348v-0.363v-3.105v-6.76
		C3391-900.604,3390.604-901,3390.113-901z"/>
	<g>
		<path fill="#44AEE5" d="M-22.683-668.009c-0.094-0.282-0.34-0.455-0.635-0.497l-13.828-1.87l-6.295-12.408
			c-0.133-0.264-0.404-0.216-0.699-0.216c-0.002,0-0.005,0-0.007,0c-0.298,0-0.569-0.042-0.699,0.228l-6.058,12.329l-13.787,2.094
			c-0.295,0.045-0.539,0.257-0.629,0.542s-0.012,0.598,0.204,0.805l10.084,9.699l-2.229,13.784
			c-0.048,0.293,0.075,0.592,0.318,0.765c0.136,0.096,0.295,0.144,0.455,0.144c0.126,0,0.253-0.028,0.37-0.091l12.289-6.57
			l12.41,6.436c0.264,0.138,0.585,0.112,0.826-0.065c0.24-0.177,0.359-0.475,0.306-0.768l-2.486-13.754l9.899-9.796
			C-22.664-667.43-22.588-667.727-22.683-668.009z M-44.608-670.795c-0.415,1.226-1.075,2.368-1.763,3.159
			c-0.345,0.396-0.678,0.711-0.938,0.922c-0.255,0.212-0.436,0.322-0.436,0.322s-0.077-0.196-0.152-0.521
			c-0.079-0.325-0.153-0.776-0.188-1.301c-0.069-1.047,0.096-2.355,0.508-3.582c0.411-1.227,1.069-2.37,1.759-3.161
			c0.346-0.396,0.679-0.709,0.939-0.92c0.256-0.213,0.438-0.322,0.438-0.322s0.078,0.197,0.153,0.521
			c0.08,0.326,0.155,0.777,0.191,1.302C-44.026-673.328-44.193-672.02-44.608-670.795z M-34.881-647.613
			c-0.35-0.044-0.825-0.14-1.36-0.3c-1.068-0.321-2.324-0.969-3.419-1.821c-1.096-0.854-2.033-1.911-2.61-2.865
			c-0.288-0.478-0.5-0.914-0.63-1.241c-0.133-0.323-0.187-0.537-0.187-0.537s0.22-0.001,0.567,0.048
			c0.35,0.045,0.824,0.142,1.358,0.303c1.068,0.322,2.325,0.968,3.422,1.817c1.098,0.851,2.036,1.906,2.613,2.862
			c0.288,0.478,0.498,0.914,0.628,1.242c0.133,0.324,0.186,0.539,0.186,0.539S-34.534-647.564-34.881-647.613z"/>
	</g>
	<g>
		<path fill="none" stroke="#44AEE5" stroke-width="2" stroke-miterlimit="10" d="M-464.707-395.835
			c1.95,3.925,1.112,11.723-1.896,14.291"/>
		<path fill="none" stroke="#44AEE5" stroke-width="2" stroke-miterlimit="10" d="M-459.758-392.309
			c0.287,2.549-0.037,5.467-0.903,7.74"/>
		<path fill="#44AEE5" d="M-468.23-400h-0.227c-0.49,0-0.543,0.396-0.543,0.886v3.755c-1-0.144-1-0.264-1-0.355v-6.399
			c0-0.489-0.74-0.886-1.23-0.886h-0.227c-0.49,0-0.543,0.396-0.543,0.886v6.124c-1-0.006-0.673-0.01-0.838-0.01h-0.01
			c-0.166,0-0.152,0-0.152,0v-7.114c0-0.489-0.74-0.886-1.23-0.886h-0.227c-0.49,0-0.543,0.396-0.543,0.886v7.193
			c-1,0.037-1,0.095-1,0.176v-5.369c0-0.489-0.74-0.886-1.23-0.886h-0.227c-0.49,0-0.543,0.396-0.543,0.886v7.873v0.741
			c1-0.139,2.256,0.09,3.296,0.654c1.329,0.722,2.223,1.949,2.665,3.407l-1.372,0.444c-0.366-1.205-1.111-2.102-2.208-2.697
			c-0.89-0.482-1.735-0.711-2.714-0.565l0,0l-2.914-2.067c-0.347-0.346-0.91-0.346-1.256,0.001l-0.162,0.16
			c-0.347,0.347-0.347,0.907,0,1.253l5.024,5.461c0.234,0.397,0.694,0.74,1.018,1.038c-2.082,1.163-6.377,1.936-10.377,1.936v7
			c9,0,16.009-2.348,18.033-7.012c0.766-1.347,1.569-3.232,1.81-5.051c0.046-0.106,0.157-0.224,0.157-0.348v-0.363v-3.105v-6.76
			C-467-399.604-467.74-400-468.23-400z"/>
	</g>
	<rect x="135.305" y="-670.555" fill="none" width="352" height="20.5"/>
	<text transform="matrix(1 0 0 1 135.3047 -656.666)" fill="#44AEE5" font-family="'Ebisu'" font-size="19.8425">featured</text>
	<rect x="135.305" y="-553.573" fill="none" width="352" height="20.5"/>
	<text transform="matrix(1 0 0 1 135.3047 -539.6836)" fill="#44AEE5" font-family="'Ebisu'" font-size="19.8425">mit code die welt verbessern</text>
	<rect x="135.305" y="-436.592" fill="none" width="352" height="20.5"/>
	<text transform="matrix(1 0 0 1 135.3047 -422.7031)" fill="#44AEE5" font-family="'Ebisu'" font-size="19.8425">aha moment/innovation</text>
	<rect x="135.305" y="-319.61" fill="none" width="352" height="20.5"/>
	<text transform="matrix(1 0 0 1 135.2998 -305.7188)" fill="#44AEE5" font-family="'Ebisu'" font-size="19.8425">bester code</text>
	<rect x="135.305" y="-202.629" fill="none" width="352" height="20.5"/>
	<text transform="matrix(1 0 0 1 135.3047 -188.7402)" fill="#44AEE5" font-family="'Ebisu'" font-size="19.8425">bestes design</text>
	<rect x="134.24" y="-84.828" fill="none" width="352" height="20.5"/>
	<text transform="matrix(1 0 0 1 134.2397 -70.9395)" fill="#44AEE5" font-family="'Ebisu'" font-size="19.8425">sonderpreis</text>
	<rect x="135.305" y="31.334" fill="none" width="352" height="20.5"/>
	<text transform="matrix(1 0 0 1 135.3047 45.2227)" fill="#44AEE5" font-family="'Ebisu'" font-size="19.8425">publikumspreis</text>
	<g>
		<path fill="#44AEE5" d="M4205.104-445.478c-0.06-0.181-0.218-0.291-0.405-0.317l-8.824-1.193l-4.018-7.896
			c-0.086-0.168-0.258-0.115-0.447-0.115c-0.002,0-0.003,0-0.004,0c-0.191,0-0.363-0.049-0.446,0.123l-3.866,7.857l-8.799,1.33
			c-0.188,0.028-0.344,0.161-0.401,0.343s-0.007,0.38,0.13,0.512l6.436,6.189l-1.422,8.797c-0.031,0.188,0.048,0.377,0.203,0.487
			c0.086,0.062,0.188,0.093,0.29,0.093c0.081,0,0.161-0.02,0.235-0.059l7.844-4.193l7.92,4.107c0.168,0.087,0.373,0.071,0.526-0.042
			s0.229-0.303,0.195-0.49l-1.587-8.777l6.318-6.252C4205.117-445.108,4205.164-445.298,4205.104-445.478z"/>
		<path fill="none" stroke="#FFFFFF" stroke-miterlimit="10" d="M4183.919-446.662"/>
		
			<line fill="none" stroke="#FFFFFF" stroke-width="2" stroke-miterlimit="10" x1="4192.083" y1="-436.778" x2="4196.126" y2="-433.755"/>
		
			<line fill="none" stroke="#FFFFFF" stroke-width="2" stroke-miterlimit="10" x1="4189.11" y1="-444.445" x2="4190.794" y2="-449.297"/>
	</g>
	<g>
		<path fill="#44AEE5" d="M4621.104-66.478c-0.06-0.181-0.218-0.291-0.405-0.317l-8.824-1.193l-4.018-7.896
			c-0.086-0.168-0.258-0.115-0.447-0.115h-0.004c-0.191,0-0.363-0.049-0.446,0.123l-3.866,7.857l-8.799,1.33
			c-0.188,0.028-0.344,0.161-0.401,0.343s-0.007,0.38,0.13,0.512l6.436,6.189l-1.422,8.797c-0.031,0.188,0.048,0.377,0.203,0.487
			c0.086,0.062,0.188,0.093,0.29,0.093c0.081,0,0.161-0.02,0.235-0.059l7.844-4.193l7.92,4.107c0.168,0.087,0.373,0.071,0.526-0.042
			s0.229-0.303,0.195-0.49l-1.587-8.777l6.318-6.252C4621.117-66.108,4621.164-66.298,4621.104-66.478z"/>
		<path fill="none" stroke="#FFFFFF" stroke-miterlimit="10" d="M4599.919-67.662"/>
		
			<line fill="none" stroke="#FFFFFF" stroke-width="2" stroke-miterlimit="10" x1="4608.083" y1="-57.778" x2="4612.126" y2="-54.755"/>
		
			<line fill="none" stroke="#FFFFFF" stroke-width="2" stroke-miterlimit="10" x1="4605.11" y1="-65.445" x2="4606.794" y2="-70.297"/>
	</g>
	<g>
		<path fill="#44AEE5" d="M3612.104-116.478c-0.06-0.181-0.218-0.291-0.405-0.317l-8.824-1.193l-4.018-7.896
			c-0.086-0.168-0.258-0.115-0.447-0.115c-0.002,0-0.003,0-0.004,0c-0.191,0-0.363-0.049-0.446,0.123l-3.866,7.857l-8.799,1.33
			c-0.188,0.028-0.344,0.161-0.401,0.343s-0.007,0.38,0.13,0.512l6.436,6.189l-1.422,8.797c-0.031,0.188,0.048,0.377,0.203,0.487
			c0.086,0.062,0.188,0.093,0.29,0.093c0.081,0,0.161-0.02,0.235-0.059l7.844-4.193l7.92,4.107c0.168,0.087,0.373,0.071,0.526-0.042
			s0.229-0.303,0.195-0.49l-1.587-8.777l6.318-6.252C3612.117-116.108,3612.164-116.298,3612.104-116.478z"/>
		<path fill="none" stroke="#FFFFFF" stroke-miterlimit="10" d="M3590.919-117.662"/>
		
			<line fill="none" stroke="#FFFFFF" stroke-width="2" stroke-miterlimit="10" x1="3599.083" y1="-107.778" x2="3603.126" y2="-104.755"/>
		
			<line fill="none" stroke="#FFFFFF" stroke-width="2" stroke-miterlimit="10" x1="3596.11" y1="-115.445" x2="3597.794" y2="-120.297"/>
	</g>
	<rect x="2426" y="-634" fill="#44AEE5" width="87" height="64"/>
	<polyline fill="#0071BC" points="2492,-548 2492,-570 2513,-570 	"/>
	<rect x="2919" y="-634" fill="#44AEE5" width="91" height="64"/>
	<polyline fill="#0071BC" points="2989,-548 2989,-570 3010,-570 	"/>
	<polyline fill="#0071BC" points="2940,-548 2940,-570 2919,-570 	"/>
	<g>
		<polygon fill="#FFFFFF" points="2963,-582.825 2970,-586.9 2970,-595.052 2963,-590.964 		"/>
		<polygon fill="#FFFFFF" points="2954,-586.848 2961,-582.828 2961,-590.983 2954,-595.015 		"/>
		<polygon fill="#FFFFFF" points="2962.056,-600.67 2955.075,-596.642 2962.011,-592.641 2969.018,-596.682 		"/>
		<polygon fill="#FFFFFF" points="2969.018,-617.354 2962.056,-621.342 2955.075,-617.314 2962.011,-613.312 		"/>
		<polygon fill="#FFFFFF" points="2961,-610.566 2954,-606.479 2954,-598.34 2961,-602.415 		"/>
		<polygon fill="#FFFFFF" points="2945,-602.363 2952,-598.343 2952,-606.499 2945,-610.529 		"/>
		<polygon fill="#FFFFFF" points="2945,-591.844 2952,-587.824 2952,-595.98 2945,-600.01 		"/>
		<polygon fill="#FFFFFF" points="2952.895,-616.185 2945.914,-612.157 2952.851,-608.155 2959.857,-612.196 		"/>
		<polygon fill="#FFFFFF" points="2970,-606.479 2963,-610.566 2963,-602.415 2970,-598.34 		"/>
		<polygon fill="#FFFFFF" points="2979,-610.529 2972,-606.499 2972,-598.343 2979,-602.363 		"/>
		<polygon fill="#FFFFFF" points="2972,-587.824 2979,-591.844 2979,-600.01 2972,-595.98 		"/>
		<polygon fill="#FFFFFF" points="2971.104,-616.185 2964.145,-612.196 2971.148,-608.155 2978.086,-612.157 		"/>
	</g>
	<polygon fill="#44AEE5" points="-452,-294.609 -460.647,-302.934 -469,-294.609 -469,-336 -452,-336 	"/>
	<rect x="-1" y="-117" fill="#44AEE5" width="91" height="64"/>
	<polyline fill="#0071BC" points="69,-31 69,-53 90,-53 	"/>
	<g>
		<polygon fill="#FFFFFF" stroke="#44AEE5" stroke-width="0.2" stroke-miterlimit="10" points="41.411,-79.386 40.082,-78.734 
			39.388,-80.042 38.311,-82.073 32.976,-67.414 38.568,-69.895 41.118,-64.45 44.174,-72.847 41.735,-79.545 		"/>
		<polygon fill="#FFFFFF" stroke="#44AEE5" stroke-width="0.2" stroke-miterlimit="10" points="49.965,-80.042 49.272,-78.734 
			47.943,-79.386 46.764,-79.962 44.677,-80.983 43.117,-80.221 44.987,-75.081 48.856,-64.45 51.406,-69.895 57,-67.414 
			51.411,-82.768 		"/>
		<path fill="#FFFFFF" stroke="#44AEE5" stroke-width="0.2" stroke-miterlimit="10" d="M34.98-89.729l-0.613,4.34l4.317,0.757
			l0.33,0.623l1.725,3.25l0.47-0.23l0.691-0.338l0.691-0.338l2.085-1.021l2.613,1.277l1.325,0.649l2.054-3.873l0.06-0.01
			l0.765-0.135l0.764-0.134l2.728-0.479l-0.613-4.34l3.047-3.151l-3.047-3.15l0.613-4.339l-4.317-0.758l-2.054-3.872l-3.938,1.925
			l-3.938-1.925l-2.055,3.872l-4.317,0.758l0.613,4.339l-3.047,3.15L34.98-89.729z M44.677-99.457c3.622,0,6.567,2.946,6.567,6.567
			c0,1.511-0.532,2.885-1.392,3.996c-0.378,0.49-0.817,0.927-1.317,1.293c-0.962,0.705-2.12,1.138-3.378,1.229
			c-0.161,0.013-0.315,0.049-0.479,0.049c-0.492,0-0.968-0.063-1.43-0.167c-2.934-0.656-5.137-3.271-5.137-6.4
			C38.11-96.511,41.056-99.457,44.677-99.457z"/>
		<path fill="#FFFFFF" stroke="#44AEE5" stroke-width="0.2" stroke-miterlimit="10" d="M44.677-87.852
			c2.778,0,5.039-2.26,5.039-5.038s-2.261-5.037-5.039-5.037c-2.777,0-5.038,2.259-5.038,5.037S41.899-87.852,44.677-87.852z"/>
	</g>
	<polygon fill="#44AEE5" points="-512.483,-299.913 -508.021,-301.892 -505.986,-297.548 -500.229,-313.367 -506.726,-315.732 	"/>
	<g>
		<polygon fill="#44AEE5" points="-506.351,-313.731 -498.708,-316.515 -492.25,-298.774 -497.479,-301.092 -499.882,-295.958 		"/>
		<path fill="#FFFFFF" d="M-499.072-315.732l5.758,15.819l-4.463-1.979l-2.034,4.344l-5.758-15.819L-499.072-315.732
			 M-498.343-317.297l-1.147,0.418l-6.497,2.365l-1.146,0.417l0.417,1.146l5.758,15.819l1.005,2.762l1.247-2.661l1.527-3.262
			l3.371,1.494l2.622,1.162l-0.981-2.694l-5.758-15.819L-498.343-317.297L-498.343-317.297z"/>
	</g>
	<g>
		<polygon fill="#44AEE5" points="-503.146,-311.419 -506.55,-309.753 -508.327,-313.101 -512.059,-313.756 -511.529,-317.507 
			-514.163,-320.231 -511.529,-322.955 -512.059,-326.706 -508.327,-327.361 -506.55,-330.709 -503.146,-329.044 -499.742,-330.709 
			-497.966,-327.361 -494.234,-326.706 -494.764,-322.955 -492.13,-320.231 -494.764,-317.507 -494.234,-313.756 -497.966,-313.101 
			-499.742,-309.753 		"/>
		<path fill="#FFFFFF" d="M-500.004-329.901l1.639,3.09l3.444,0.604l-0.489,3.462l2.432,2.514l-2.432,2.515l0.489,3.462
			l-3.444,0.604l-1.639,3.09l-3.142-1.537l-3.142,1.537l-1.64-3.09l-3.444-0.604l0.489-3.462l-2.432-2.515l2.432-2.514l-0.489-3.462
			l3.444-0.604l1.64-3.09l3.142,1.536L-500.004-329.901 M-499.479-331.516l-1.061,0.518l-2.606,1.274l-2.605-1.273l-1.061-0.519
			l-0.554,1.042l-1.36,2.563l-2.857,0.501l-1.162,0.204l0.165,1.169l0.406,2.871l-2.017,2.085l-0.82,0.849l0.82,0.848l2.017,2.087
			l-0.406,2.871l-0.165,1.169l1.162,0.204l2.857,0.501l1.36,2.563l0.554,1.043l1.061-0.52l2.605-1.274l2.606,1.274l1.061,0.52
			l0.553-1.043l1.36-2.563l2.857-0.501l1.162-0.204l-0.165-1.169l-0.406-2.871l2.017-2.086l0.82-0.849l-0.82-0.849l-2.017-2.085
			l0.406-2.871l0.165-1.169l-1.162-0.204l-2.857-0.501l-1.36-2.562L-499.479-331.516L-499.479-331.516z"/>
	</g>
	<circle fill="none" stroke="#FFFFFF" stroke-width="1.2201" stroke-miterlimit="10" cx="-503.146" cy="-320.239" r="4.63"/>
	<g>
		<rect y="-350" fill="#44AEE5" width="91" height="64"/>
		<polyline fill="#0071BC" points="70,-264 70,-286 91,-286 		"/>
	</g>
	<polygon fill="#44AEE5" points="301.039,278.398 299.328,275.172 294.15,289.399 299.617,286.975 302.106,292.289 305.067,284.153 
		302.68,277.594 	"/>
	<polygon fill="#44AEE5" points="310.315,278.398 305.677,276.128 304.242,276.83 309.868,292.289 312.357,286.975 312.447,287.014 
		317.826,289.399 312.394,274.478 	"/>
	<path fill="#44AEE5" d="M296.086,267.237l-0.606,4.292l4.27,0.749l2.032,3.83l3.895-1.905l3.895,1.905l2.032-3.831l1.637-0.286
		l2.632-0.462l-0.606-4.292l3.014-3.117l-3.014-3.116l0.606-4.291l-4.27-0.75l-2.032-3.83l-3.895,1.904l-3.895-1.904l-2.032,3.83
		l-0.048,0.009l-4.222,0.741l0.606,4.291l-3.014,3.116L296.086,267.237z M305.677,257.443c3.676,0,6.667,2.99,6.667,6.667
		c0,1.46-0.489,2.862-1.413,4.058c-0.393,0.509-0.843,0.95-1.337,1.312c-0.99,0.725-2.176,1.156-3.43,1.248
		c-0.061,0.005-0.122,0.014-0.182,0.021c-0.098,0.014-0.198,0.027-0.305,0.027c-0.468,0-0.943-0.055-1.452-0.169
		c-3.021-0.676-5.215-3.409-5.215-6.498C299.01,260.434,302.001,257.443,305.677,257.443z"/>
	<path fill="#44AEE5" d="M305.677,269.049c2.724,0,4.939-2.216,4.939-4.938s-2.215-4.938-4.939-4.938
		c-2.723,0-4.938,2.215-4.938,4.938S302.954,269.049,305.677,269.049z"/>
	<g>
		<polygon fill="#FFFFFF" points="46,-299.34 53,-303.415 53,-311.566 46,-307.479 		"/>
		<polygon fill="#FFFFFF" points="37,-303.362 44,-299.343 44,-307.498 37,-311.529 		"/>
		<polygon fill="#FFFFFF" points="45.118,-317.185 38.138,-313.156 45.073,-309.155 52.08,-313.196 		"/>
		<polygon fill="#FFFFFF" points="52.08,-333.868 45.118,-337.856 38.138,-333.829 45.073,-329.827 		"/>
		<polygon fill="#FFFFFF" points="44,-327.081 37,-322.993 37,-314.854 44,-318.93 		"/>
		<polygon fill="#FFFFFF" points="28,-318.878 35,-314.857 35,-323.014 28,-327.044 		"/>
		<polygon fill="#FFFFFF" points="28,-308.358 35,-304.339 35,-312.495 28,-316.524 		"/>
		<polygon fill="#FFFFFF" points="35.957,-332.699 28.977,-328.672 35.913,-324.67 42.92,-328.711 		"/>
		<polygon fill="#FFFFFF" points="53,-322.993 46,-327.081 46,-318.93 53,-314.854 		"/>
		<polygon fill="#FFFFFF" points="62,-327.044 55,-323.014 55,-314.857 62,-318.878 		"/>
		<polygon fill="#FFFFFF" points="55,-304.339 62,-308.358 62,-316.524 55,-312.495 		"/>
		<polygon fill="#FFFFFF" points="54.166,-332.699 47.207,-328.711 54.211,-324.67 61.148,-328.672 		"/>
	</g>
	<g>
		<g>
			<path fill="#FFFFFF" d="M-243.66-434.51l9.796-3.564l-1.278-3.514l-9.897,3.604c0.102-0.039,0.692,1.398,0.95,2.104
				C-243.938-435.461-244.053-435.692-243.66-434.51z"/>
			<path fill="#FFFFFF" d="M-234.695-427.134l0.895-3.477l-9.648-2.298c0.13,1.255,0.062,2.438-0.185,3.482L-234.695-427.134z"/>
			<path fill="#FFFFFF" d="M-239.647-446.679l-2.925-2.101l-5.967,6.688c0.899,0.586,1.757,1.418,2.509,2.445L-239.647-446.679z"/>
		</g>
		<path fill="#FFFFFF" d="M-245.075-432.283c-0.068-0.674-0.202-1.383-0.389-2.083c-0.111-0.416-0.235-0.84-0.388-1.258
			c-0.258-0.708-0.568-1.377-0.909-1.997c-0.28-0.51-0.583-0.988-0.907-1.43c-0.752-1.026-1.652-1.98-2.55-2.566
			c-1.412-0.921-2.961-1.36-4.307-0.871l-1.528,0.699c-1.231,1.58-1.969,2.789-1.969,5.789h-1.8c0-2,0.385-3.379,1.059-4.803
			l-0.985,0.288c-1.903,0.691-3.679,2.627-4.342,5.522l-14.476,5.25c0,0-0.635,0.223-0.64,0.224
			c-1.767,0.645-2.591,3.443-1.507,6.421c1.084,2.979,3.341,4.838,5.108,4.196l15.344-5.588c1.947,0.617,4.999,2.157,6.904,1.463
			l5.224-1.9c1.471-0.535,2.448-1.997,2.886-3.843C-244.999-429.812-244.943-431.027-245.075-432.283z M-267.04-425.374
			c-1.148,0.418-2.419-0.175-2.838-1.322c-0.417-1.147,0.174-2.417,1.323-2.837c1.149-0.416,2.419,0.174,2.836,1.321
			C-265.302-427.064-265.893-425.795-267.04-425.374z M-247.851-427.326c-0.212,0.076-0.533-0.062-0.914-0.376
			c-0.32-0.264-0.681-0.646-1.06-1.138c-0.823-1.071-1.717-2.636-2.388-4.478s-0.991-3.616-1.049-4.964
			c-0.026-0.621,0.004-1.146,0.081-1.554c0.09-0.482,0.246-0.798,0.457-0.875c0.774-0.282,3.339,2.179,4.685,5.875
			C-246.694-431.139-247.077-427.608-247.851-427.326z"/>
	</g>
	<g>
		<rect y="-581" fill="#44AEE5" width="91" height="64"/>
		<polyline fill="#0071BC" points="70,-495 70,-517 91,-517 		"/>
	</g>
	<g>
		<g id="Your_Icon_1_">
			<path fill="#FFFFFF" d="M58.5-560.729v-3.75H46.875v3.75h-3.75v-3.75H31.5v3.75h-0.796h-2.58v11.25h2.58H31.5v4.125h3.75v3.375
				H39v4.125h3.749v3.375h4.501v-3.375h3.749v-4.125h0.336h3.414v-3.375H58.5v-4.125h0.771h2.604v-11.25"/>
		</g>
		
			<line fill="none" stroke="#44AEE5" stroke-width="2.4513" stroke-miterlimit="10" x1="33.664" y1="-551.113" x2="44.5" y2="-540.566"/>
	</g>
	<g>
		<rect x="-1" y="-232" fill="#44AEE5" width="91" height="64"/>
		<polyline fill="#0071BC" points="69,-146 69,-168 90,-168 		"/>
	</g>
	<path fill="#FFFFFF" d="M61.35-193.787l-7.556-7.555l2.14-2.09l-3.049-3.048l1.402-1.463l3.049,3.049l4.063-4.063l-8.131-8.131
		l-7.61,7.61l-4.675-4.675c-0.143-0.144-0.332-0.213-0.527-0.244l0.005-0.025l-12.3-2.064l2.139,12.234l0.017-0.002
		c0.033,0.188,0.105,0.372,0.252,0.518l4.674,4.674l-7.375,7.376l8.13,8.13l4.063-4.064l-3.048-3.049l1.474-1.458l3.048,3.049
		l1.839-1.852l7.561,7.561c0.181,0.181,0.426,0.282,0.682,0.282s0.501-0.102,0.682-0.282l9.05-9.052
		C61.727-192.799,61.727-193.41,61.35-193.787z M40.301-212.106l3.993,3.993l5.081,5.081l9.927,9.928l-1.597,1.598l-6.879-6.88
		l-8.129-8.13l-3.993-3.993L40.301-212.106z M54.509-188.309l-6.88-6.881l-8.129-8.129l-3.993-3.993l1.834-1.834l3.993,3.993
		l8.129,8.13l6.879,6.88L54.509-188.309z M32.58-213.95l5.715,1.121l-6.414,6.415l-1.101-5.666L32.58-213.95z M32.615-204.418
		l1.528-1.529l3.993,3.993l8.129,8.13l6.88,6.881l-1.527,1.526l-9.929-9.929l-5.082-5.08L32.615-204.418z"/>
	<g>
		<rect fill="#44AEE5" width="91" height="64"/>
		<polyline fill="#0071BC" points="70,86 70,64 91,64 		"/>
	</g>
	<g>
		<path fill="#FFFFFF" d="M40.205,26.762c0.488-0.45,0.603-0.752,1.004-1.279c1.593-2.087,2.905-4.346,4.061-6.699
			c0.09-0.188,0.134-0.368,0.125-0.578c-0.024-0.504-0.012-1.012-0.022-1.52c-0.021-1.162-0.03-2.325-0.046-3.489
			c0-0.084,0.021-0.154,0.068-0.226c0.519-0.759,1.231-1.227,2.126-1.427c0.246-0.056,0.497-0.069,0.746-0.097
			c0.1,0,0.202,0,0.303,0c0.137,0.011,0.274,0.021,0.41,0.037c0.608,0.073,1.191,0.23,1.728,0.537
			c0.184,0.104,0.329,0.245,0.437,0.434c0.662,1.133,1.215,2.314,1.641,3.559c0.382,1.113,0.63,2.249,0.545,3.441
			c-0.049,0.685-0.125,1.363-0.256,2.033c-0.168,0.871-0.409,1.723-0.617,2.584c-0.046,0.191-0.046,0.191,0.15,0.191
			c3.309,0,6.617,0.001,9.925,0c0.486,0,0.935,0.117,1.352,0.36c1.355,0.792,1.961,2.512,1.418,4.011
			c-0.256,0.705-0.697,1.28-1.248,1.775c-0.067,0.062-0.076,0.105-0.032,0.185c0.306,0.575,0.407,1.185,0.301,1.825
			c-0.149,0.893-0.598,1.619-1.255,2.229c-0.097,0.089-0.12,0.164-0.081,0.291c0.181,0.602,0.251,1.214,0.151,1.839
			c-0.138,0.867-0.549,1.584-1.205,2.16c-0.067,0.06-0.083,0.11-0.062,0.199c0.218,0.868,0.214,1.732-0.104,2.583
			c-0.336,0.899-0.934,1.59-1.736,2.104c-0.667,0.428-1.389,0.7-2.193,0.7c-5.06,0.001-10.119,0-15.178,0.001
			c-0.176,0-0.348-0.022-0.515-0.072c-0.609-0.187-1.117-0.53-1.56-0.979c-0.029-0.03-0.052-0.069-0.127-0.095
			c0,0.26,0.003,0.499-0.001,0.74c-0.003,0.182-0.002,0.365-0.028,0.541c-0.085,0.535-0.627,0.969-1.192,0.969
			c-3.733,0-7.468,0-11.202,0c-0.053,0-0.107-0.002-0.16-0.009c-0.54-0.082-1.063-0.614-1.149-1.185
			c-0.039-0.26-0.047-0.525-0.068-0.792c-0.046-0.58-0.091-1.161-0.136-1.743c-0.036-0.469-0.071-0.936-0.107-1.404
			c-0.045-0.573-0.089-1.15-0.133-1.725c-0.036-0.471-0.071-0.942-0.108-1.414c-0.043-0.574-0.089-1.147-0.134-1.726
			c-0.036-0.47-0.07-0.942-0.106-1.412c-0.044-0.572-0.09-1.143-0.134-1.716c-0.036-0.476-0.071-0.954-0.107-1.434
			c-0.045-0.588-0.09-1.177-0.136-1.765c-0.018-0.2-0.038-0.404-0.056-0.608c0-0.309,0-0.616,0-0.926
			c0.016-0.035,0.031-0.067,0.049-0.1c0.303-0.559,0.736-0.912,1.404-0.908c0.795,0.008,1.589,0.007,2.385,0.011
			c2.193,0.011,4.387,0.006,6.58,0.008L40.205,26.762z M50.467,42.925c0,0.002,0,0.005,0,0.007c2.495,0,4.991-0.002,7.487,0.002
			c0.207,0,0.397-0.043,0.581-0.136c0.604-0.303,1.108-0.727,1.503-1.276c0.234-0.324,0.398-0.68,0.418-1.084
			c0.028-0.534-0.207-0.952-0.592-1.299c-0.2-0.183-0.25-0.415-0.131-0.652c0.044-0.084,0.104-0.146,0.201-0.166
			c0.106-0.024,0.205-0.064,0.3-0.115c0.617-0.339,1.031-0.855,1.271-1.504c0.275-0.743,0.104-1.37-0.486-1.898
			c-0.26-0.233-0.183-0.647,0.147-0.795c0.414-0.185,0.778-0.438,1.075-0.781c0.417-0.484,0.6-1.044,0.489-1.679
			c-0.079-0.451-0.271-0.854-0.608-1.177c-0.208-0.199-0.135-0.576,0.129-0.652c0.218-0.064,0.416-0.168,0.607-0.287
			c0.772-0.484,1.188-1.365,1.04-2.229c-0.15-0.873-0.83-1.36-1.537-1.372c-1.553-0.021-3.106-0.005-4.659-0.005
			c-2.335,0-4.671,0-7.005-0.002c-0.129,0-0.133-0.009-0.106-0.135c0.003-0.015,0.006-0.025,0.008-0.039
			c0.366-1.629,0.713-3.264,0.933-4.92c0.076-0.578,0.124-1.16,0.147-1.744c0.021-0.508-0.083-1.001-0.21-1.488
			c-0.358-1.382-0.896-2.697-1.5-3.987c-0.026-0.058-0.065-0.1-0.118-0.132c-0.442-0.287-0.925-0.412-1.451-0.382
			c-0.441,0.024-0.842,0.153-1.209,0.396c-0.11,0.072-0.154,0.151-0.154,0.285c0.004,1.673,0.002,3.343,0.003,5.013
			c0,0.09-0.01,0.172-0.051,0.252c-0.524,1.014-1.064,2.019-1.635,3.007c-1.179,2.036-2.477,3.995-3.944,5.841
			c-0.064,0.079-0.139,0.145-0.222,0.202c-0.612,0.418-1.221,0.805-1.835,1.22c-0.117,0.079-0.161,0.162-0.161,0.302
			c0.004,3.993,0.003,8.021,0.004,12.013c0,0.034,0.001,0.067,0,0.101c-0.003,0.067,0.031,0.095,0.098,0.097
			c0.314,0.002,0.631,0.028,0.945,0.005c0.273-0.018,0.505,0.036,0.739,0.186c0.481,0.31,0.981,0.593,1.488,0.861
			c0.111,0.057,0.224,0.107,0.352,0.111c0.208,0.006,0.416,0.015,0.624,0.017c0.822,0.011,1.644,0.013,2.466,0.019
			C47.426,42.933,48.947,42.925,50.467,42.925z"/>
		<circle fill="#44AEE5" cx="34.774" cy="41.155" r="1.647"/>
	</g>
	<g>
		<path fill="#44AEE5" d="M-54.42-558.777c0.488-0.45,0.603-0.752,1.004-1.279c1.593-2.087,2.905-4.346,4.061-6.699
			c0.09-0.188,0.134-0.368,0.124-0.578c-0.023-0.504-0.012-1.012-0.021-1.52c-0.021-1.162-0.03-2.325-0.046-3.489
			c0-0.084,0.021-0.154,0.068-0.226c0.519-0.759,1.231-1.227,2.127-1.427c0.246-0.056,0.497-0.069,0.746-0.097
			c0.1,0,0.202,0,0.303,0c0.137,0.011,0.274,0.021,0.41,0.037c0.608,0.073,1.191,0.23,1.728,0.537
			c0.184,0.104,0.329,0.245,0.437,0.434c0.662,1.133,1.215,2.314,1.641,3.559c0.382,1.113,0.63,2.249,0.545,3.441
			c-0.049,0.685-0.125,1.363-0.256,2.033c-0.168,0.871-0.409,1.723-0.617,2.584c-0.046,0.191-0.046,0.191,0.15,0.191
			c3.309,0,6.617,0.001,9.925,0c0.486,0,0.935,0.117,1.352,0.36c1.355,0.792,1.961,2.512,1.418,4.011
			c-0.256,0.705-0.697,1.28-1.248,1.775c-0.067,0.062-0.076,0.105-0.032,0.185c0.306,0.575,0.407,1.185,0.301,1.825
			c-0.149,0.893-0.598,1.619-1.255,2.229c-0.097,0.089-0.12,0.164-0.081,0.291c0.181,0.602,0.251,1.214,0.151,1.839
			c-0.138,0.867-0.549,1.584-1.205,2.16c-0.067,0.06-0.083,0.11-0.062,0.199c0.218,0.868,0.214,1.732-0.104,2.583
			c-0.336,0.899-0.934,1.59-1.736,2.104c-0.667,0.428-1.389,0.7-2.193,0.7c-5.06,0.001-10.119,0-15.178,0.001
			c-0.176,0-0.348-0.022-0.515-0.072c-0.609-0.187-1.117-0.53-1.56-0.979c-0.029-0.03-0.052-0.069-0.127-0.095
			c0,0.26,0.003,0.499-0.001,0.74c-0.003,0.182-0.002,0.365-0.028,0.541c-0.085,0.535-0.627,0.969-1.192,0.969
			c-3.733,0-7.468,0-11.202,0c-0.053,0-0.107-0.002-0.16-0.009c-0.54-0.082-1.063-0.614-1.149-1.185
			c-0.039-0.26-0.047-0.525-0.068-0.792c-0.046-0.58-0.091-1.161-0.136-1.743c-0.036-0.469-0.071-0.936-0.107-1.404
			c-0.045-0.573-0.089-1.15-0.133-1.725c-0.036-0.471-0.071-0.942-0.108-1.414c-0.043-0.574-0.089-1.147-0.134-1.726
			c-0.036-0.47-0.07-0.942-0.106-1.412c-0.044-0.572-0.09-1.143-0.134-1.716c-0.036-0.476-0.071-0.954-0.107-1.434
			c-0.045-0.588-0.09-1.177-0.136-1.765c-0.018-0.2-0.038-0.404-0.056-0.608c0-0.309,0-0.616,0-0.926
			c0.016-0.035,0.031-0.067,0.049-0.1c0.303-0.559,0.736-0.912,1.404-0.908c0.795,0.008,1.589,0.007,2.385,0.011
			c2.193,0.011,4.387,0.006,6.58,0.008L-54.42-558.777z M-44.158-542.614c0,0.002,0,0.005,0,0.007c2.495,0,4.991-0.002,7.487,0.002
			c0.207,0,0.397-0.043,0.581-0.136c0.604-0.303,1.108-0.727,1.503-1.276c0.234-0.324,0.397-0.68,0.418-1.084
			c0.028-0.534-0.207-0.952-0.592-1.299c-0.2-0.183-0.25-0.415-0.131-0.652c0.044-0.084,0.104-0.146,0.201-0.166
			c0.106-0.024,0.205-0.064,0.3-0.115c0.617-0.339,1.031-0.855,1.271-1.504c0.275-0.743,0.104-1.37-0.486-1.898
			c-0.26-0.233-0.183-0.647,0.147-0.795c0.414-0.185,0.778-0.438,1.075-0.781c0.417-0.484,0.6-1.044,0.489-1.679
			c-0.079-0.451-0.271-0.854-0.608-1.177c-0.208-0.199-0.135-0.576,0.129-0.652c0.218-0.064,0.416-0.168,0.607-0.287
			c0.772-0.484,1.188-1.365,1.04-2.229c-0.15-0.873-0.83-1.36-1.537-1.372c-1.553-0.021-3.106-0.005-4.659-0.005
			c-2.335,0-4.671,0-7.005-0.002c-0.129,0-0.133-0.009-0.106-0.135c0.003-0.015,0.006-0.025,0.008-0.039
			c0.366-1.629,0.713-3.264,0.933-4.92c0.076-0.578,0.124-1.16,0.147-1.744c0.021-0.508-0.083-1.001-0.21-1.488
			c-0.358-1.382-0.896-2.697-1.5-3.987c-0.026-0.058-0.065-0.1-0.118-0.132c-0.442-0.287-0.925-0.412-1.451-0.382
			c-0.441,0.024-0.842,0.153-1.209,0.396c-0.11,0.072-0.154,0.151-0.154,0.285c0.004,1.673,0.002,3.343,0.003,5.013
			c0,0.09-0.01,0.172-0.051,0.252c-0.524,1.014-1.064,2.019-1.635,3.007c-1.179,2.036-2.477,3.995-3.944,5.841
			c-0.064,0.079-0.139,0.145-0.222,0.202c-0.612,0.418-1.221,0.805-1.835,1.22c-0.117,0.079-0.161,0.162-0.161,0.302
			c0.004,3.993,0.003,8.021,0.004,12.013c0,0.034,0.001,0.067,0,0.101c-0.003,0.067,0.031,0.095,0.098,0.097
			c0.314,0.002,0.631,0.028,0.945,0.005c0.273-0.018,0.505,0.036,0.739,0.186c0.481,0.31,0.981,0.593,1.488,0.861
			c0.111,0.057,0.224,0.107,0.352,0.111c0.208,0.006,0.416,0.015,0.624,0.017c0.822,0.011,1.644,0.013,2.466,0.019
			C-47.199-542.606-45.678-542.614-44.158-542.614z"/>
		<circle fill="#FFFFFF" cx="-59.851" cy="-544.384" r="1.647"/>
	</g>
	<g>
		<polygon fill="#44AEE5" points="-48,-300.34 -41,-304.415 -41,-312.566 -48,-308.479 		"/>
		<polygon fill="#44AEE5" points="-57,-304.362 -50,-300.343 -50,-308.498 -57,-312.529 		"/>
		<polygon fill="#44AEE5" points="-48.882,-318.185 -55.862,-314.156 -48.927,-310.155 -41.92,-314.196 		"/>
		<polygon fill="#44AEE5" points="-41.92,-334.868 -48.882,-338.856 -55.862,-334.829 -48.927,-330.827 		"/>
		<polygon fill="#44AEE5" points="-50,-328.081 -57,-323.993 -57,-315.854 -50,-319.93 		"/>
		<polygon fill="#44AEE5" points="-66,-319.878 -59,-315.857 -59,-324.014 -66,-328.044 		"/>
		<polygon fill="#44AEE5" points="-66,-309.358 -59,-305.339 -59,-313.495 -66,-317.524 		"/>
		<polygon fill="#44AEE5" points="-58.043,-333.699 -65.023,-329.672 -58.087,-325.67 -51.08,-329.711 		"/>
		<polygon fill="#44AEE5" points="-41,-323.993 -48,-328.081 -48,-319.93 -41,-315.854 		"/>
		<polygon fill="#44AEE5" points="-32,-328.044 -39,-324.014 -39,-315.857 -32,-319.878 		"/>
		<polygon fill="#44AEE5" points="-39,-305.339 -32,-309.358 -32,-317.524 -39,-313.495 		"/>
		<polygon fill="#44AEE5" points="-39.834,-333.699 -46.793,-329.711 -39.789,-325.67 -32.852,-329.672 		"/>
	</g>
	<path fill="#44AEE5" d="M-32.65-193.787l-7.556-7.555l2.14-2.09l-3.049-3.048l1.402-1.463l3.049,3.049l4.063-4.063l-8.131-8.131
		l-7.61,7.61l-4.675-4.675c-0.143-0.144-0.332-0.213-0.527-0.244l0.005-0.025l-12.3-2.064l2.139,12.234l0.017-0.002
		c0.033,0.188,0.105,0.372,0.252,0.518l4.674,4.674l-7.375,7.376l8.13,8.13l4.063-4.064l-3.048-3.049l1.474-1.458l3.048,3.049
		l1.839-1.852l7.561,7.561c0.181,0.181,0.426,0.282,0.682,0.282s0.501-0.102,0.682-0.282l9.05-9.052
		C-32.273-192.799-32.273-193.41-32.65-193.787z M-53.699-212.106l3.993,3.993l5.081,5.081l9.927,9.928l-1.597,1.598l-6.879-6.88
		l-8.129-8.13l-3.993-3.993L-53.699-212.106z M-39.491-188.309l-6.88-6.881l-8.129-8.129l-3.993-3.993l1.834-1.834l3.993,3.993
		l8.129,8.13l6.879,6.88L-39.491-188.309z M-61.42-213.95l5.715,1.121l-6.414,6.415l-1.101-5.666L-61.42-213.95z M-61.385-204.418
		l1.528-1.529l3.993,3.993l8.129,8.13l6.88,6.881l-1.527,1.526l-9.929-9.929l-5.082-5.08L-61.385-204.418z"/>
	<g>
		<polygon fill="#FFFFFF" stroke="#44AEE5" stroke-width="0.2" stroke-miterlimit="10" points="2466.525,-596.871 2465.196,-596.22 
			2464.502,-597.527 2463.425,-599.559 2458.09,-584.899 2463.683,-587.38 2466.232,-581.936 2469.288,-590.332 2466.85,-597.03 		
			"/>
		<polygon fill="#FFFFFF" stroke="#44AEE5" stroke-width="0.2" stroke-miterlimit="10" points="2475.08,-597.527 2474.386,-596.22 
			2473.057,-596.871 2471.878,-597.447 2469.791,-598.469 2468.231,-597.706 2470.102,-592.566 2473.971,-581.936 2476.521,-587.38 
			2482.114,-584.899 2476.525,-600.253 		"/>
		<path fill="#FFFFFF" stroke="#44AEE5" stroke-width="0.2" stroke-miterlimit="10" d="M2460.095-607.214l-0.613,4.34l4.317,0.757
			l0.33,0.623l1.725,3.25l0.47-0.23l0.691-0.338l0.691-0.338l2.085-1.021l2.613,1.277l1.325,0.649l2.054-3.873l0.06-0.01
			l0.765-0.135l0.764-0.134l2.728-0.479l-0.613-4.34l3.047-3.151l-3.047-3.15l0.613-4.339l-4.317-0.758l-2.054-3.872l-3.938,1.925
			l-3.938-1.925l-2.055,3.872l-4.317,0.758l0.613,4.339l-3.047,3.15L2460.095-607.214z M2469.791-616.942
			c3.622,0,6.567,2.946,6.567,6.567c0,1.511-0.532,2.885-1.392,3.996c-0.378,0.49-0.817,0.927-1.317,1.293
			c-0.962,0.705-2.12,1.138-3.378,1.229c-0.161,0.013-0.315,0.049-0.479,0.049c-0.492,0-0.968-0.063-1.43-0.167
			c-2.934-0.656-5.137-3.271-5.137-6.4C2463.225-613.996,2466.17-616.942,2469.791-616.942z"/>
		<path fill="#FFFFFF" stroke="#44AEE5" stroke-width="0.2" stroke-miterlimit="10" d="M2469.791-605.337
			c2.778,0,5.039-2.26,5.039-5.038s-2.261-5.037-5.039-5.037c-2.777,0-5.038,2.259-5.038,5.037S2467.014-605.337,2469.791-605.337z"
			/>
	</g>
	<g>
		<rect x="1928" y="-300" fill="#44AEE5" width="91" height="64"/>
		<polyline fill="#0071BC" points="1998,-214 1998,-236 2019,-236 		"/>
	</g>
	<g>
		<g id="Your_Icon_2_">
			<path fill="#FFFFFF" d="M1985.938-278.693v-3.75h-11.625v3.75h-3.75v-3.75h-11.625v3.75h-0.796h-2.58v11.25h2.58h0.796v4.126
				h3.75v3.374h3.75v4.125h3.749v3.375h4.501v-3.375h3.749v-4.125h0.336h3.414v-3.374h3.751v-4.126h0.771h2.604v-11.25"/>
		</g>
		
			<line fill="none" stroke="#44AEE5" stroke-width="2.4513" stroke-miterlimit="10" x1="1961.601" y1="-269.077" x2="1972.437" y2="-258.53"/>
	</g>
	<g>
		<path fill="#44AEE5" d="M-121-637v-3h-11v3h-4v-3h-12v3h-0.136H-151v12h2.864H-148v4h4v3h4v4h4v4h4v-4h4v-4h0.494H-124v-3h3v-4
			h1.43h2.57v-12H-121z M-135.196-614.756l-10.836-10.547l1.71-1.756l10.836,10.547L-135.196-614.756z"/>
	</g>
	<g>
		<polygon fill="#44AEE5" points="-53.961,-81.602 -55.672,-84.828 -60.85,-70.601 -55.383,-73.025 -52.894,-67.711 
			-49.933,-75.847 -52.32,-82.406 		"/>
		<polygon fill="#44AEE5" points="-44.685,-81.602 -49.323,-83.872 -50.758,-83.17 -45.132,-67.711 -42.643,-73.025 
			-42.553,-72.986 -37.174,-70.601 -42.606,-85.522 		"/>
		<path fill="#44AEE5" d="M-58.914-92.763l-0.606,4.292l4.27,0.749l2.032,3.83l3.895-1.905l3.895,1.905l2.032-3.831l1.637-0.286
			l2.632-0.462l-0.606-4.292l3.014-3.117l-3.014-3.116l0.606-4.291l-4.27-0.75l-2.032-3.83l-3.895,1.904l-3.895-1.904l-2.032,3.83
			l-0.048,0.009l-4.222,0.741l0.606,4.291l-3.014,3.116L-58.914-92.763z M-49.323-102.557c3.676,0,6.667,2.99,6.667,6.667
			c0,1.46-0.489,2.862-1.413,4.058c-0.393,0.509-0.843,0.95-1.337,1.312c-0.99,0.725-2.176,1.156-3.43,1.248
			c-0.061,0.005-0.122,0.014-0.182,0.021c-0.098,0.014-0.198,0.027-0.305,0.027c-0.468,0-0.943-0.055-1.452-0.169
			c-3.021-0.676-5.215-3.409-5.215-6.498C-55.99-99.566-52.999-102.557-49.323-102.557z"/>
		<path fill="#44AEE5" d="M-49.323-90.951c2.724,0,4.939-2.216,4.939-4.938s-2.215-4.938-4.939-4.938
			c-2.723,0-4.938,2.215-4.938,4.938S-52.046-90.951-49.323-90.951z"/>
	</g>
	<g>
		<rect x="-43" y="-440.5" fill="#44AEE5" width="5" height="19"/>
		<path fill="#44AEE5" d="M-51.466-436.431H-74.25v10.43h22.784l6.216,4.018v-18.033L-51.466-436.431z M-58.01-428.981
			c-1.168,0-2.114-0.947-2.114-2.115c0-1.166,0.946-2.113,2.114-2.113c1.167,0,2.114,0.947,2.114,2.113
			C-55.896-429.929-56.842-428.981-58.01-428.981z"/>
		<rect x="-36" y="-432.5" fill="#44AEE5" width="12" height="3"/>
		<polygon fill="#44AEE5" points="-36,-438.788 -36,-435.593 -24,-439.992 -24,-443.188 		"/>
		<polygon fill="#44AEE5" points="-36,-426.876 -36,-423.567 -24,-418.006 -24,-421.314 		"/>
	</g>
	<g>
		<polyline fill="#0071BC" points="69,-379 69,-401 90,-401 		"/>
		<g>
			<rect x="-1" y="-465" fill="#44AEE5" width="91" height="64"/>
			<g>
				<rect x="50.812" y="-443.201" fill="#FFFFFF" width="5" height="19"/>
				<path fill="#FFFFFF" d="M42.346-439.133H19.562v10.43h22.784l6.216,4.018v-18.033L42.346-439.133z M35.803-431.684
					c-1.168,0-2.114-0.947-2.114-2.115c0-1.166,0.946-2.113,2.114-2.113c1.167,0,2.114,0.947,2.114,2.113
					C37.917-432.631,36.97-431.684,35.803-431.684z"/>
				<rect x="57.812" y="-435.201" fill="#FFFFFF" width="12" height="3"/>
				<polygon fill="#FFFFFF" points="58,-441.49 58,-438.295 70,-442.693 70,-445.889 				"/>
				<polygon fill="#FFFFFF" points="58,-429.578 58,-426.27 70,-420.707 70,-424.016 				"/>
			</g>
		</g>
	</g>
</g>
</svg>
