<?xml version="1.0" encoding="utf-8"?>
<!-- Generator: Adobe Illustrator 16.0.4, SVG Export Plug-In . SVG Version: 6.00 Build 0)  -->
<!DOCTYPE svg PUBLIC "-//W3C//DTD SVG 1.1//EN" "http://www.w3.org/Graphics/SVG/1.1/DTD/svg11.dtd">
<svg version="1.1" xmlns="http://www.w3.org/2000/svg" xmlns:xlink="http://www.w3.org/1999/xlink" x="0px" y="0px" width="50px"
	 height="50px" viewBox="0 0 50 50" enable-background="new 0 0 50 50" xml:space="preserve">
<g id="Ebene_1">
</g>
<g id="Ebene_2">
	<g>
		<polygon fill="#44AEE5" points="20.164,31.398 18.453,28.172 13.275,42.399 18.742,39.975 21.231,45.289 24.192,37.153 
			21.805,30.594 		"/>
		<polygon fill="#44AEE5" points="29.44,31.398 24.802,29.128 23.367,29.83 28.993,45.289 31.482,39.975 31.572,40.014 
			36.951,42.399 31.519,27.478 		"/>
		<path fill="#44AEE5" d="M15.211,20.237l-0.606,4.292l4.27,0.749l2.032,3.83l3.895-1.905l3.895,1.905l2.032-3.831l1.637-0.286
			l2.632-0.462l-0.606-4.292l3.014-3.117l-3.014-3.116l0.606-4.291l-4.27-0.75l-2.032-3.83l-3.895,1.904l-3.895-1.904l-2.032,3.83
			l-0.048,0.009l-4.222,0.741l0.606,4.291l-3.014,3.116L15.211,20.237z M24.802,10.443c3.676,0,6.667,2.99,6.667,6.667
			c0,1.46-0.489,2.862-1.413,4.058c-0.393,0.509-0.843,0.95-1.337,1.312c-0.99,0.725-2.176,1.156-3.43,1.248
			c-0.061,0.005-0.122,0.014-0.182,0.021c-0.098,0.014-0.198,0.027-0.305,0.027c-0.468,0-0.943-0.055-1.452-0.169
			c-3.021-0.676-5.215-3.409-5.215-6.498C18.135,13.434,21.126,10.443,24.802,10.443z"/>
		<path fill="#44AEE5" d="M24.802,22.049c2.724,0,4.939-2.216,4.939-4.938s-2.215-4.938-4.939-4.938
			c-2.723,0-4.938,2.215-4.938,4.938S22.079,22.049,24.802,22.049z"/>
	</g>
</g>
</svg>
