<?xml version="1.0" encoding="utf-8"?>
<!-- Generator: Adobe Illustrator 16.0.0, SVG Export Plug-In . SVG Version: 6.00 Build 0)  -->
<!DOCTYPE svg PUBLIC "-//W3C//DTD SVG 1.1//EN" "http://www.w3.org/Graphics/SVG/1.1/DTD/svg11.dtd">
<svg version="1.1" xmlns="http://www.w3.org/2000/svg" xmlns:xlink="http://www.w3.org/1999/xlink" x="0px" y="0px" width="91px"
	 height="86px" viewBox="0 0 91 86" enable-background="new 0 0 91 86" xml:space="preserve">
<g id="Ebene_1">
	<rect x="4176" y="-347" fill="#FFFFFF" width="40" height="44"/>
	<rect x="4435" y="-305" fill="#FFFFFF" width="40" height="44"/>
	<rect x="4595" y="41" fill="#FFFFFF" width="40" height="44"/>
	<rect x="3883" y="41" fill="#FFFFFF" width="40" height="44"/>
</g>
<g id="Ebene_2">
	<g id="Your_Icon">
		<path d="M3600.485-785.091v-3.06h-9.484v3.06h-3.06v-3.06h-9.484v3.06h-0.649h-2.104v9.179h2.104h0.649v3.366h3.06v2.753h3.06
			v3.365h3.059v2.754h3.672v-2.754h3.06v-3.365h0.273h2.785v-2.753h3.061v-3.366h0.629h2.125v-9.179"/>
	</g>
	<g>
		<path d="M3582.431-864.206l-13.454-7.299v-4.041l13.454-7.263v4.759l-8.377,4.475l8.377,4.643V-864.206z"/>
		<path d="M3585.321-867.913l4.542-0.553c0.145,1.159,0.535,2.044,1.169,2.655c0.635,0.613,1.402,0.919,2.305,0.919
			c0.97,0,1.785-0.366,2.446-1.103c0.662-0.733,0.993-1.724,0.993-2.972c0-1.181-0.316-2.115-0.952-2.806
			c-0.635-0.69-1.408-1.035-2.319-1.035c-0.603,0-1.32,0.116-2.154,0.352l0.517-3.825c1.269,0.032,2.236-0.24,2.906-0.823
			c0.667-0.586,1.002-1.364,1.002-2.333c0-0.824-0.245-1.48-0.734-1.971c-0.491-0.49-1.142-0.735-1.954-0.735
			c-0.802,0-1.486,0.278-2.055,0.836c-0.569,0.557-0.913,1.369-1.036,2.438l-4.324-0.735c0.301-1.481,0.753-2.66,1.36-3.546
			c0.607-0.885,1.452-1.582,2.538-2.087c1.086-0.507,2.302-0.764,3.649-0.764c2.305,0,4.153,0.735,5.544,2.205
			c1.146,1.202,1.721,2.56,1.721,4.074c0,2.148-1.174,3.863-3.522,5.144c1.401,0.3,2.523,0.975,3.363,2.021
			c0.841,1.045,1.262,2.309,1.262,3.79c0,2.149-0.786,3.98-2.354,5.494c-1.571,1.515-3.525,2.271-5.862,2.271
			c-2.216,0-4.053-0.634-5.512-1.908C3586.4-864.184,3585.554-865.854,3585.321-867.913z"/>
	</g>
	<rect x="3241" y="-1049" width="30" height="13"/>
	<rect x="3275" y="-1053" width="7" height="21"/>
	<ellipse cx="3281.593" cy="-1042.498" rx="6.657" ry="10.558"/>
	<path d="M3282.488-1042.498c0,5.831-3.258,10.558-7.277,10.558c-4.018,0-9.128-4.727-9.128-10.558s5.11-10.558,9.128-10.558
		C3279.23-1053.056,3282.488-1048.329,3282.488-1042.498z"/>
	<path d="M3236.879-1042.586c0-3.637,1.941-6.391,4.1-6.391s4.712,2.754,4.712,6.391c0,3.639-2.745,6.587-4.903,6.587
		S3236.879-1038.947,3236.879-1042.586z"/>
	<path fill="#FFFFFF" d="M3285.583-1042.498c0,4.514-1.801,8.173-2.747,8.173c-0.945,0-2.35-3.659-2.35-8.173
		s1.404-8.173,2.35-8.173C3283.782-1050.671,3285.583-1047.012,3285.583-1042.498z"/>
	<rect x="3287" y="-1044" width="16" height="4"/>
	<rect x="3285" y="-1035" transform="matrix(0.9077 0.4197 -0.4197 0.9077 -129.4912 -1477.4001)" width="16" height="4.001"/>
	<rect x="3285" y="-1052" transform="matrix(0.9386 -0.345 0.345 0.9386 564.4976 1071.7026)" width="16" height="4"/>
	<g>
		<path d="M3542.789-776.52l8.163-2.971l-1.065-2.928l-8.247,3.003c0.085-0.032,0.576,1.165,0.791,1.754
			C3542.558-777.312,3542.462-777.505,3542.789-776.52z"/>
		<path d="M3550.26-770.373l0.746-2.897l-8.04-1.915c0.108,1.046,0.052,2.032-0.154,2.902L3550.26-770.373z"/>
		<path d="M3546.133-786.66l-2.438-1.75l-4.972,5.572c0.749,0.488,1.464,1.182,2.091,2.038L3546.133-786.66z"/>
	</g>
	<path d="M3540.205-779.112c-0.233-0.425-0.485-0.823-0.756-1.191c-0.627-0.855-1.377-1.65-2.125-2.139
		c-1.177-0.768-2.468-1.134-3.589-0.726l-4.354,1.585c-1.586,0.576-3.064,2.219-3.618,4.632l-12.062,4.39l0,0
		c0,0-0.529,0.192-0.533,0.193c-1.473,0.537-2.159,2.873-1.256,5.354c0.903,2.482,2.784,4.033,4.257,3.498l12.786-4.654
		c1.622,0.514,4.165,1.797,5.753,1.219l4.354-1.583c1.226-0.446,2.04-1.664,2.405-3.202c0.207-0.869,0.253-1.882,0.144-2.928
		c-0.057-0.562-0.168-1.152-0.324-1.736c-0.093-0.347-0.196-0.699-0.323-1.048C3540.748-778.038,3540.489-778.596,3540.205-779.112z
		 M3539.297-770.533c-0.177,0.063-0.444-0.053-0.762-0.313c-0.267-0.22-0.567-0.539-0.883-0.948
		c-0.686-0.893-1.431-2.196-1.989-3.731c-0.56-1.534-0.826-3.013-0.874-4.136c-0.022-0.518,0.003-0.955,0.067-1.295
		c0.075-0.402,0.205-0.665,0.381-0.729c0.646-0.235,2.782,1.815,3.903,4.896C3540.261-773.711,3539.941-770.769,3539.297-770.533z"
		/>
	<circle fill="#FFFFFF" cx="3522.675" cy="-770.64" r="1.494"/>
	<g>
		<g>
			<path d="M3301.632-988H3310v-3h-8.453c0.087,0,0.138,1.245,0.138,1.85C3301.685-988.793,3301.662-989,3301.632-988z"/>
			<path d="M3306.37-979.976l1.63-2.376l-6.646-4.383c-0.246,0.982-0.622,1.856-1.096,2.575L3306.37-979.976z"/>
			<path d="M3308-996.076l-1.63-2.388l-6.335,3.406c0.517,0.688,0.934,1.552,1.221,2.533L3308-996.076z"/>
		</g>
		<path d="M3300.148-991.197c-0.071-0.462-0.169-0.905-0.292-1.327c-0.286-0.981-0.703-1.948-1.22-2.637
			c-0.812-1.082-1.86-1.839-3.008-1.839h-4.463c-1.626,0-3.505,1-4.802,3H3274l0,0c0,0-0.541,0-0.546,0
			c-1.509,0-2.9,1.889-2.9,4.432c0,2.545,1.191,4.568,2.7,4.568h13.107c1.298,1,3.178,3,4.805,3h4.463
			c1.256,0,2.394-0.834,3.23-2.105c0.474-0.719,0.85-1.62,1.096-2.603c0.133-0.527,0.227-1.098,0.278-1.679
			c0.03-0.344,0.052-0.698,0.052-1.056C3300.285-990.047,3300.235-990.637,3300.148-991.197z M3296.499-983.732
			c-0.18,0-0.384-0.194-0.585-0.534c-0.169-0.286-0.337-0.674-0.487-1.149c-0.326-1.033-0.571-2.458-0.571-4.032
			s0.245-2.999,0.571-4.032c0.15-0.476,0.318-0.863,0.487-1.149c0.201-0.339,0.405-0.534,0.585-0.534
			c0.662,0,1.921,2.56,1.921,5.716C3298.42-986.291,3297.161-983.732,3296.499-983.732z"/>
		<circle fill="#FFFFFF" cx="3281.49" cy="-989.304" r="1.145"/>
	</g>
	<polygon points="3310.516,-1104.261 3267.365,-1129 3267.516,-1178.738 3310.817,-1203.738 3353.968,-1179 3353.817,-1129.261 	"/>
	<line fill="none" stroke="#FFFFFF" stroke-width="5" stroke-miterlimit="10" x1="3310.5" y1="-1154" x2="3310.5" y2="-1071"/>
	
		<line fill="none" stroke="#FFFFFF" stroke-width="5" stroke-miterlimit="10" x1="3232.334" y1="-1199.448" x2="3310.845" y2="-1154.154"/>
	
		<line fill="none" stroke="#FFFFFF" stroke-width="5" stroke-miterlimit="10" x1="3388.846" y1="-1199.448" x2="3310.335" y2="-1154.154"/>
	<g>
		<polygon stroke="#FFFFFF" stroke-width="0.5" stroke-miterlimit="10" points="3481.059,-771.512 3475.998,-768.604 
			3475.998,-762.808 3481.059,-765.708 		"/>
		<polygon stroke="#FFFFFF" stroke-width="0.5" stroke-miterlimit="10" points="3470.245,-771.491 3470.245,-765.675 
			3475.201,-762.808 3475.201,-768.615 		"/>
		<g>
			<polygon stroke="#FFFFFF" stroke-width="0.5" stroke-miterlimit="10" points="3480.592,-772.127 3475.626,-774.972 
				3470.648,-772.101 3475.598,-769.245 			"/>
		</g>
		<g>
			<polygon stroke="#FFFFFF" stroke-width="0.5" stroke-miterlimit="10" points="3480.592,-785.385 3475.626,-788.229 
				3470.648,-785.358 3475.598,-782.503 			"/>
		</g>
		<g>
			<polygon stroke="#FFFFFF" stroke-width="0.5" stroke-miterlimit="10" points="3475.184,-781.462 3470.123,-778.554 
				3470.123,-772.758 3475.184,-775.658 			"/>
			<polygon stroke="#FFFFFF" stroke-width="0.5" stroke-miterlimit="10" points="3464.37,-781.441 3464.37,-775.625 
				3469.326,-772.758 3469.326,-778.565 			"/>
			<polygon stroke="#FFFFFF" stroke-width="0.5" stroke-miterlimit="10" points="3464.37,-774.695 3464.37,-768.879 
				3469.326,-766.012 3469.326,-771.819 			"/>
			<g>
				<polygon stroke="#FFFFFF" stroke-width="0.5" stroke-miterlimit="10" points="3474.717,-782.077 3469.751,-784.922 
					3464.773,-782.051 3469.723,-779.195 				"/>
			</g>
		</g>
		<g>
			<polygon stroke="#FFFFFF" stroke-width="0.5" stroke-miterlimit="10" points="3475.997,-781.462 3481.058,-778.554 
				3481.058,-772.758 3475.997,-775.658 			"/>
			<polygon stroke="#FFFFFF" stroke-width="0.5" stroke-miterlimit="10" points="3486.811,-781.441 3486.811,-775.625 
				3481.854,-772.758 3481.854,-778.565 			"/>
			<polygon stroke="#FFFFFF" stroke-width="0.5" stroke-miterlimit="10" points="3486.811,-774.695 3486.811,-768.879 
				3481.854,-766.012 3481.854,-771.819 			"/>
			<g>
				<polygon stroke="#FFFFFF" stroke-width="0.5" stroke-miterlimit="10" points="3476.464,-782.077 3481.43,-784.922 
					3486.407,-782.051 3481.458,-779.195 				"/>
			</g>
		</g>
	</g>
	<polygon points="3633.468,-781.564 3637.448,-789.819 3641.584,-781.609 3650.668,-780.34 3644.164,-773.897 3645.797,-764.858 
		3637.644,-769.086 3629.568,-764.769 3631.033,-773.824 3624.408,-780.195 	"/>
	<path fill="none" stroke="#FFFFFF" stroke-miterlimit="10" d="M3629.957-781.662"/>
	
		<line fill="none" stroke="#FFFFFF" stroke-width="1.5" stroke-miterlimit="10" x1="3638.121" y1="-771.778" x2="3642.164" y2="-768.755"/>
	
		<line fill="none" stroke="#FFFFFF" stroke-width="1.5" stroke-miterlimit="10" x1="3580.63" y1="-777.245" x2="3589.471" y2="-768.64"/>
	
		<line fill="none" stroke="#FFFFFF" stroke-width="1.5" stroke-miterlimit="10" x1="3635.148" y1="-779.445" x2="3636.832" y2="-784.297"/>
	<polyline fill="none" stroke="#000000" stroke-width="1.5" stroke-miterlimit="10" points="3636.428,-877.328 3635.804,-872.403 
		3631,-872.403 	"/>
	<path fill="none" stroke="#FFFFFF" stroke-width="1.5" stroke-miterlimit="10" d="M3530.071-778c0-4.789,4.046-8.664,9.047-8.664"
		/>
	<g>
		<path d="M3542.789-879.52l8.163-2.971l-1.065-2.928l-8.247,3.003c0.085-0.032,0.576,1.165,0.791,1.754
			C3542.558-880.312,3542.462-880.505,3542.789-879.52z"/>
		<path d="M3550.26-873.373l0.746-2.897l-8.04-1.915c0.108,1.046,0.052,2.032-0.154,2.902L3550.26-873.373z"/>
		<path d="M3546.133-889.66l-2.438-1.75l-4.972,5.572c0.749,0.488,1.464,1.182,2.091,2.038L3546.133-889.66z"/>
	</g>
	<path d="M3540.205-882.112c-0.233-0.425-0.485-0.823-0.756-1.191c-0.627-0.855-1.377-1.65-2.125-2.139
		c-1.177-0.768-2.468-1.134-3.589-0.726l-4.354,1.585c-1.586,0.576-3.064,2.219-3.618,4.632l-12.062,4.39l0,0
		c0,0-0.529,0.192-0.533,0.193c-1.473,0.537-2.159,2.873-1.256,5.354c0.903,2.482,2.784,4.033,4.257,3.498l12.786-4.654
		c1.622,0.514,4.165,1.797,5.753,1.219l4.354-1.583c1.226-0.446,2.04-1.664,2.405-3.202c0.207-0.869,0.253-1.882,0.144-2.928
		c-0.057-0.562-0.168-1.152-0.324-1.736c-0.093-0.347-0.196-0.699-0.323-1.048C3540.748-881.038,3540.489-881.596,3540.205-882.112z
		 M3539.297-873.533c-0.177,0.063-0.444-0.053-0.762-0.313c-0.267-0.22-0.567-0.539-0.883-0.948
		c-0.686-0.893-1.431-2.196-1.989-3.731c-0.56-1.534-0.826-3.013-0.874-4.136c-0.022-0.518,0.003-0.955,0.067-1.295
		c0.075-0.402,0.205-0.665,0.381-0.729c0.646-0.235,2.782,1.815,3.903,4.896C3540.261-876.711,3539.941-873.769,3539.297-873.533z"
		/>
	<circle fill="#FFFFFF" cx="3522.675" cy="-873.64" r="1.494"/>
	<path fill="none" stroke="#FFFFFF" stroke-miterlimit="10" d="M3530.071-881c0-4.789,4.046-8.664,9.047-8.664"/>
	<g>
		<polyline fill="none" stroke="#000000" stroke-miterlimit="10" points="3441.5,-916.5 3445.471,-922.154 3449.5,-916.5 		"/>
		<polygon points="3447.545,-919 3445.411,-919 3443.396,-919 3445.471,-922.389 		"/>
		
			<rect x="3441.5" y="-916.5" fill="none" stroke="#000000" stroke-linejoin="round" stroke-miterlimit="10" width="8" height="18"/>
		<line fill="none" stroke="#000000" stroke-miterlimit="10" x1="3446.882" y1="-916" x2="3446.882" y2="-898"/>
		<line fill="none" stroke="#000000" stroke-miterlimit="10" x1="3444.056" y1="-916" x2="3444.056" y2="-898"/>
	</g>
	<rect x="3428" y="-923" width="8" height="25"/>
	<g>
		
			<line fill="none" stroke="#FFFFFF" stroke-linejoin="round" stroke-miterlimit="10" x1="3433" y1="-918.5" x2="3436" y2="-918.5"/>
		
			<line fill="none" stroke="#FFFFFF" stroke-linejoin="round" stroke-miterlimit="10" x1="3433" y1="-914.5" x2="3436" y2="-914.5"/>
		
			<line fill="none" stroke="#FFFFFF" stroke-linejoin="round" stroke-miterlimit="10" x1="3433" y1="-910.5" x2="3436" y2="-910.5"/>
		
			<line fill="none" stroke="#FFFFFF" stroke-linejoin="round" stroke-miterlimit="10" x1="3433" y1="-906.5" x2="3436" y2="-906.5"/>
		
			<line fill="none" stroke="#FFFFFF" stroke-linejoin="round" stroke-miterlimit="10" x1="3433" y1="-902.5" x2="3436" y2="-902.5"/>
	</g>
	<polygon points="3436.569,-787.983 3417.517,-768.931 3423.615,-762.832 3426.663,-765.881 3424.377,-768.168 3425.482,-769.262 
		3427.769,-766.975 3429.711,-768.93 3427.425,-771.217 3428.188,-771.979 3430.474,-769.692 3432.76,-771.979 3430.474,-774.265 
		3431.235,-775.026 3433.521,-772.74 3435.809,-775.026 3433.521,-777.312 3434.283,-778.075 3436.57,-775.789 3438.568,-777.74 
		3436.281,-780.026 3437.333,-781.124 3439.62,-778.837 3442.668,-781.885 	"/>
	<g>
		<polyline fill="none" stroke="#000000" stroke-miterlimit="10" points="3417.5,-879.5 3421.471,-885.154 3425.5,-879.5 		"/>
		<polygon points="3423.545,-882 3421.411,-882 3419.396,-882 3421.471,-885.389 		"/>
		
			<rect x="3417.5" y="-879.5" fill="none" stroke="#000000" stroke-linejoin="round" stroke-miterlimit="10" width="8" height="18"/>
		<line fill="none" stroke="#000000" stroke-miterlimit="10" x1="3422.882" y1="-879" x2="3422.882" y2="-861"/>
		<line fill="none" stroke="#000000" stroke-miterlimit="10" x1="3420.056" y1="-879" x2="3420.056" y2="-861"/>
	</g>
	<polygon points="3428,-886 3428,-861 3436,-861 3436,-865 3433,-865 3433,-866 3436,-866 3436,-869 3433,-869 3433,-870 3436,-870 
		3436,-873 3433,-873 3433,-874 3436,-874 3436,-877 3433,-877 3433,-878 3436,-878 3436,-881 3433,-881 3433,-882 3436,-882 
		3436,-886 	"/>
	<g>
		<polyline fill="none" stroke="#000000" stroke-width="1.4477" stroke-miterlimit="10" points="3420.054,-778.48 
			3418.626,-786.649 3426.843,-785.271 		"/>
		<polygon points="3423.062,-785.734 3421.251,-783.922 3419.541,-782.213 3418.427,-786.85 		"/>
		
			<rect x="3426.286" y="-785.04" transform="matrix(0.707 -0.7072 0.7072 0.707 1552.838 2199.646)" fill="#FFFFFF" stroke="#000000" stroke-width="1.4477" stroke-linejoin="round" stroke-miterlimit="10" width="9.601" height="21.605"/>
		
			<line fill="none" stroke="#000000" stroke-width="1.4477" stroke-miterlimit="10" x1="3425.047" y1="-782.625" x2="3440.322" y2="-767.348"/>
		
			<line fill="none" stroke="#000000" stroke-width="1.4477" stroke-miterlimit="10" x1="3422.647" y1="-780.226" x2="3437.924" y2="-764.949"/>
	</g>
	<g>
		<path d="M3380.675-987.239c0-0.585-0.475-1.058-1.058-1.058c-0.584,0-1.058,0.473-1.058,1.058v1.995
			c-0.232-0.121-0.47-0.229-0.711-0.33v-5.047c0-0.585-0.473-1.059-1.056-1.059c-0.584,0-1.059,0.474-1.059,1.059v4.416
			c-0.238-0.05-0.477-0.09-0.71-0.125v-5.139c0-0.583-0.473-1.056-1.058-1.056c-0.584,0-1.058,0.473-1.058,1.056v4.963
			c-0.253-0.006-0.487-0.006-0.702,0v-3.06c0-0.583-0.473-1.056-1.056-1.056s-1.058,0.473-1.058,1.056v6.709l-0.701,0.703
			l-2.078-2.076c-0.413-0.414-1.082-0.414-1.495,0c-0.412,0.411-0.412,1.082,0,1.494l4.278,4.277
			c-0.229,8.543-7.252,15.423-15.85,15.423c-0.583,0-1.057,0.473-1.057,1.058c0,0.584,0.474,1.057,1.057,1.057
			c9.908,0,17.97-8.061,17.97-17.97c0-0.279-0.11-0.549-0.31-0.746l-1.021-1.021l0.658-0.658c0.793,0.121,2.51,0.541,3.355,1.987
			c0.195,0.337,0.551,0.525,0.914,0.525c0.181,0,0.363-0.048,0.532-0.145c0.504-0.295,0.673-0.943,0.38-1.445
			c-1.178-2.016-3.266-2.714-4.518-2.953v-1.046c0.522-0.011,1.223,0,1.997,0.085c1.327,0.147,3.107,0.542,4.354,1.575v3.842
			c0,13.405-10.906,24.312-24.312,24.312c-0.583,0-1.057,0.473-1.057,1.056c0,0.585,0.474,1.06,1.057,1.06
			c14.571,0,26.427-11.855,26.427-26.426V-987.239z"/>
		<g>
			<path d="M3383.01-971.381c-0.09,0-0.182-0.011-0.271-0.033c-0.597-0.149-0.959-0.754-0.812-1.349
				c0.498-1.993,0.75-4.055,0.75-6.126v-4.31c0-0.615,0.498-1.113,1.113-1.113c0.614,0,1.112,0.498,1.112,1.113v4.31
				c0,2.253-0.273,4.495-0.815,6.664C3383.961-971.719,3383.508-971.381,3383.01-971.381z"/>
		</g>
		<g>
			<path d="M3386.56-971.381c-0.09,0-0.18-0.011-0.271-0.033c-0.596-0.149-0.959-0.754-0.81-1.349
				c0.565-2.272,0.749-3.761,0.749-6.126c0-0.615,0.498-1.113,1.113-1.113c0.613,0,1.113,0.498,1.113,1.113
				c0,2.54-0.207,4.222-0.815,6.664C3387.511-971.719,3387.058-971.381,3386.56-971.381z"/>
		</g>
	</g>
	
		<path fill="none" stroke="#000000" stroke-width="3.0046" stroke-linecap="round" stroke-linejoin="round" stroke-miterlimit="10" d="
		M3370.823-774.412"/>
	<g>
		<g>
			<path fill="#FFFFFF" d="M3362.295-722.722c0-0.109,0-0.219,0-0.328c0-1.935-3-1.935-3,0c0,0.109,0,0.219,0,0.328
				C3359.295-720.787,3362.295-720.787,3362.295-722.722L3362.295-722.722z"/>
		</g>
	</g>
	<path fill="none" stroke="#000000" stroke-width="2" stroke-miterlimit="10" d="M3394.637-779.835
		c1.95,3.925,1.112,11.723-1.896,14.291"/>
	<path fill="none" stroke="#000000" stroke-width="2" stroke-miterlimit="10" d="M3399.586-776.309
		c0.287,2.549-0.037,5.467-0.903,7.74"/>
	<path d="M3391.113-784h-0.227c-0.49,0-0.887,0.396-0.887,0.886v3.755c-0.312-0.144-0.646-0.264-1-0.355v-6.399
		c0-0.489-0.396-0.886-0.887-0.886h-0.227c-0.49,0-0.887,0.396-0.887,0.886v6.124c-0.164-0.006-0.329-0.01-0.494-0.01h-0.01
		c-0.166,0-0.331,0-0.496,0v-7.114c0-0.489-0.396-0.886-0.887-0.886h-0.227c-0.49,0-0.887,0.396-0.887,0.886v7.193
		c-0.354,0.037-0.688,0.095-1,0.176v-5.369c0-0.489-0.396-0.886-0.887-0.886h-0.227c-0.49,0-0.887,0.396-0.887,0.886v7.873v0.741
		c1.145-0.139,2.428,0.09,3.468,0.654c1.329,0.722,2.309,1.949,2.751,3.407l-1.329,0.444c-0.366-1.205-1.09-2.102-2.187-2.697
		c-0.89-0.482-1.725-0.711-2.703-0.565l0,0l-2.908-2.067c-0.347-0.346-0.907-0.346-1.254,0.001l-0.16,0.16
		c-0.347,0.347-0.347,0.907,0,1.253l5.024,5.461c0.234,0.397,0.522,0.74,0.847,1.038c-2.082,1.163-6.284,1.936-10.549,1.936v7
		c9.789,0,16.181-2.348,18.205-7.012c0.766-1.347,1.483-3.232,1.724-5.051c0.046-0.106,0.071-0.224,0.071-0.348v-0.363v-3.105v-6.76
		C3392-783.604,3391.604-784,3391.113-784z"/>
	<g>
		<path fill="#44AEE5" d="M-21.683-551.009c-0.094-0.282-0.34-0.455-0.635-0.497l-13.828-1.87l-6.295-12.408
			c-0.133-0.264-0.404-0.216-0.699-0.216c-0.002,0-0.005,0-0.007,0c-0.298,0-0.569-0.042-0.699,0.228l-6.058,12.329l-13.787,2.094
			c-0.295,0.045-0.539,0.257-0.629,0.542s-0.012,0.598,0.204,0.805l10.084,9.699l-2.229,13.784
			c-0.048,0.293,0.075,0.592,0.318,0.765c0.136,0.096,0.295,0.144,0.455,0.144c0.126,0,0.253-0.028,0.37-0.091l12.289-6.57
			l12.41,6.436c0.264,0.138,0.585,0.112,0.826-0.065c0.24-0.177,0.359-0.475,0.306-0.768l-2.486-13.754l9.899-9.796
			C-21.664-550.43-21.588-550.727-21.683-551.009z M-43.608-553.795c-0.415,1.226-1.075,2.368-1.763,3.159
			c-0.345,0.396-0.678,0.711-0.938,0.922c-0.255,0.212-0.436,0.322-0.436,0.322s-0.077-0.196-0.152-0.521
			c-0.079-0.325-0.153-0.776-0.188-1.301c-0.069-1.047,0.096-2.355,0.508-3.582c0.411-1.227,1.069-2.37,1.759-3.161
			c0.346-0.396,0.679-0.709,0.939-0.92c0.256-0.213,0.438-0.322,0.438-0.322s0.078,0.197,0.153,0.521
			c0.08,0.326,0.155,0.777,0.191,1.302C-43.026-556.328-43.193-555.02-43.608-553.795z M-33.881-530.613
			c-0.35-0.044-0.825-0.14-1.36-0.3c-1.068-0.321-2.324-0.969-3.419-1.821c-1.096-0.854-2.033-1.911-2.61-2.865
			c-0.288-0.478-0.5-0.914-0.63-1.241c-0.133-0.323-0.187-0.537-0.187-0.537s0.22-0.001,0.567,0.048
			c0.35,0.045,0.824,0.142,1.358,0.303c1.068,0.322,2.325,0.968,3.422,1.817c1.098,0.851,2.036,1.906,2.613,2.862
			c0.288,0.478,0.498,0.914,0.628,1.242c0.133,0.324,0.186,0.539,0.186,0.539S-33.534-530.564-33.881-530.613z"/>
	</g>
	<g>
		<path fill="none" stroke="#44AEE5" stroke-width="2" stroke-miterlimit="10" d="M-463.707-278.835
			c1.95,3.925,1.112,11.723-1.896,14.291"/>
		<path fill="none" stroke="#44AEE5" stroke-width="2" stroke-miterlimit="10" d="M-458.758-275.309
			c0.287,2.549-0.037,5.467-0.903,7.74"/>
		<path fill="#44AEE5" d="M-467.23-283h-0.227c-0.49,0-0.543,0.396-0.543,0.886v3.755c-1-0.144-1-0.264-1-0.355v-6.399
			c0-0.489-0.74-0.886-1.23-0.886h-0.227c-0.49,0-0.543,0.396-0.543,0.886v6.124c-1-0.006-0.673-0.01-0.838-0.01h-0.01
			c-0.166,0-0.152,0-0.152,0v-7.114c0-0.489-0.74-0.886-1.23-0.886h-0.227c-0.49,0-0.543,0.396-0.543,0.886v7.193
			c-1,0.037-1,0.095-1,0.176v-5.369c0-0.489-0.74-0.886-1.23-0.886h-0.227c-0.49,0-0.543,0.396-0.543,0.886v7.873v0.741
			c1-0.139,2.256,0.09,3.296,0.654c1.329,0.722,2.223,1.949,2.665,3.407l-1.372,0.444c-0.366-1.205-1.111-2.102-2.208-2.697
			c-0.89-0.482-1.735-0.711-2.714-0.565l0,0l-2.914-2.067c-0.347-0.346-0.91-0.346-1.256,0.001l-0.162,0.16
			c-0.347,0.347-0.347,0.907,0,1.253l5.024,5.461c0.234,0.397,0.694,0.74,1.018,1.038c-2.082,1.163-6.377,1.936-10.377,1.936v7
			c9,0,16.009-2.348,18.033-7.012c0.766-1.347,1.569-3.232,1.81-5.051c0.046-0.106,0.157-0.224,0.157-0.348v-0.363v-3.105v-6.76
			C-466-282.604-466.74-283-467.23-283z"/>
	</g>
	<rect x="136.305" y="-553.555" fill="none" width="352" height="20.5"/>
	<text transform="matrix(1 0 0 1 136.3047 -539.666)" fill="#44AEE5" font-family="'Ebisu'" font-size="19.8425">featured</text>
	<rect x="136.305" y="-436.573" fill="none" width="352" height="20.5"/>
	<text transform="matrix(1 0 0 1 136.3047 -422.6836)" fill="#44AEE5" font-family="'Ebisu'" font-size="19.8425">mit code die welt verbessern</text>
	<rect x="136.305" y="-319.592" fill="none" width="352" height="20.5"/>
	<text transform="matrix(1 0 0 1 136.3047 -305.7031)" fill="#44AEE5" font-family="'Ebisu'" font-size="19.8425">aha moment/innovation</text>
	<rect x="136.305" y="-202.61" fill="none" width="352" height="20.5"/>
	<text transform="matrix(1 0 0 1 136.2998 -188.7188)" fill="#44AEE5" font-family="'Ebisu'" font-size="19.8425">bester code</text>
	<rect x="136.305" y="-85.629" fill="none" width="352" height="20.5"/>
	<text transform="matrix(1 0 0 1 136.3047 -71.7402)" fill="#44AEE5" font-family="'Ebisu'" font-size="19.8425">bestes design</text>
	<rect x="135.24" y="32.172" fill="none" width="352" height="20.5"/>
	<text transform="matrix(1 0 0 1 135.2397 46.0605)" fill="#44AEE5" font-family="'Ebisu'" font-size="19.8425">sonderpreis</text>
	<rect x="136.305" y="148.334" fill="none" width="352" height="20.5"/>
	<text transform="matrix(1 0 0 1 136.3047 162.2227)" fill="#44AEE5" font-family="'Ebisu'" font-size="19.8425">publikumspreis</text>
	<g>
		<path fill="#44AEE5" d="M4206.104-328.478c-0.06-0.181-0.218-0.291-0.405-0.317l-8.824-1.193l-4.018-7.896
			c-0.086-0.168-0.258-0.115-0.447-0.115c-0.002,0-0.003,0-0.004,0c-0.191,0-0.363-0.049-0.446,0.123l-3.866,7.857l-8.799,1.33
			c-0.188,0.028-0.344,0.161-0.401,0.343s-0.007,0.38,0.13,0.512l6.436,6.189l-1.422,8.797c-0.031,0.188,0.048,0.377,0.203,0.487
			c0.086,0.062,0.188,0.093,0.29,0.093c0.081,0,0.161-0.02,0.235-0.059l7.844-4.193l7.92,4.107c0.168,0.087,0.373,0.071,0.526-0.042
			s0.229-0.303,0.195-0.49l-1.587-8.777l6.318-6.252C4206.117-328.108,4206.164-328.298,4206.104-328.478z"/>
		<path fill="none" stroke="#FFFFFF" stroke-miterlimit="10" d="M4184.919-329.662"/>
		
			<line fill="none" stroke="#FFFFFF" stroke-width="2" stroke-miterlimit="10" x1="4193.083" y1="-319.778" x2="4197.126" y2="-316.755"/>
		
			<line fill="none" stroke="#FFFFFF" stroke-width="2" stroke-miterlimit="10" x1="4190.11" y1="-327.445" x2="4191.794" y2="-332.297"/>
	</g>
	<g>
		<path fill="#44AEE5" d="M4622.104,50.522c-0.06-0.181-0.218-0.291-0.405-0.317l-8.824-1.193l-4.018-7.896
			c-0.086-0.168-0.258-0.115-0.447-0.115h-0.004c-0.191,0-0.363-0.049-0.446,0.123l-3.866,7.857l-8.799,1.33
			c-0.188,0.028-0.344,0.161-0.401,0.343s-0.007,0.38,0.13,0.512l6.436,6.189l-1.422,8.797c-0.031,0.188,0.048,0.377,0.203,0.487
			c0.086,0.062,0.188,0.093,0.29,0.093c0.081,0,0.161-0.02,0.235-0.059l7.844-4.193l7.92,4.107c0.168,0.087,0.373,0.071,0.526-0.042
			s0.229-0.303,0.195-0.49l-1.587-8.777l6.318-6.252C4622.117,50.892,4622.164,50.702,4622.104,50.522z"/>
		<path fill="none" stroke="#FFFFFF" stroke-miterlimit="10" d="M4600.919,49.338"/>
		
			<line fill="none" stroke="#FFFFFF" stroke-width="2" stroke-miterlimit="10" x1="4609.083" y1="59.222" x2="4613.126" y2="62.245"/>
		
			<line fill="none" stroke="#FFFFFF" stroke-width="2" stroke-miterlimit="10" x1="4606.11" y1="51.555" x2="4607.794" y2="46.703"/>
	</g>
	<g>
		<path fill="#44AEE5" d="M3613.104,0.522c-0.06-0.181-0.218-0.291-0.405-0.317l-8.824-1.193l-4.018-7.896
			C3599.771-9.053,3599.6-9,3599.41-9c-0.002,0-0.003,0-0.004,0c-0.191,0-0.363-0.049-0.446,0.123l-3.866,7.857l-8.799,1.33
			c-0.188,0.028-0.344,0.161-0.401,0.343s-0.007,0.38,0.13,0.512l6.436,6.189l-1.422,8.797c-0.031,0.188,0.048,0.377,0.203,0.487
			c0.086,0.062,0.188,0.093,0.29,0.093c0.081,0,0.161-0.02,0.235-0.059l7.844-4.193l7.92,4.107c0.168,0.087,0.373,0.071,0.526-0.042
			s0.229-0.303,0.195-0.49l-1.587-8.777l6.318-6.252C3613.117,0.892,3613.164,0.702,3613.104,0.522z"/>
		<path fill="none" stroke="#FFFFFF" stroke-miterlimit="10" d="M3591.919-0.662"/>
		
			<line fill="none" stroke="#FFFFFF" stroke-width="2" stroke-miterlimit="10" x1="3600.083" y1="9.222" x2="3604.126" y2="12.245"/>
		<line fill="none" stroke="#FFFFFF" stroke-width="2" stroke-miterlimit="10" x1="3597.11" y1="1.555" x2="3598.794" y2="-3.297"/>
	</g>
	<rect x="2427" y="-517" fill="#44AEE5" width="87" height="64"/>
	<polyline fill="#0071BC" points="2493,-431 2493,-453 2514,-453 	"/>
	<rect x="2920" y="-517" fill="#44AEE5" width="91" height="64"/>
	<polyline fill="#0071BC" points="2990,-431 2990,-453 3011,-453 	"/>
	<polyline fill="#0071BC" points="2941,-431 2941,-453 2920,-453 	"/>
	<g>
		<polygon fill="#FFFFFF" points="2964,-465.825 2971,-469.9 2971,-478.052 2964,-473.964 		"/>
		<polygon fill="#FFFFFF" points="2955,-469.848 2962,-465.828 2962,-473.983 2955,-478.015 		"/>
		<polygon fill="#FFFFFF" points="2963.056,-483.67 2956.075,-479.642 2963.011,-475.641 2970.018,-479.682 		"/>
		<polygon fill="#FFFFFF" points="2970.018,-500.354 2963.056,-504.342 2956.075,-500.314 2963.011,-496.312 		"/>
		<polygon fill="#FFFFFF" points="2962,-493.566 2955,-489.479 2955,-481.34 2962,-485.415 		"/>
		<polygon fill="#FFFFFF" points="2946,-485.363 2953,-481.343 2953,-489.499 2946,-493.529 		"/>
		<polygon fill="#FFFFFF" points="2946,-474.844 2953,-470.824 2953,-478.98 2946,-483.01 		"/>
		<polygon fill="#FFFFFF" points="2953.895,-499.185 2946.914,-495.157 2953.851,-491.155 2960.857,-495.196 		"/>
		<polygon fill="#FFFFFF" points="2971,-489.479 2964,-493.566 2964,-485.415 2971,-481.34 		"/>
		<polygon fill="#FFFFFF" points="2980,-493.529 2973,-489.499 2973,-481.343 2980,-485.363 		"/>
		<polygon fill="#FFFFFF" points="2973,-470.824 2980,-474.844 2980,-483.01 2973,-478.98 		"/>
		<polygon fill="#FFFFFF" points="2972.104,-499.185 2965.145,-495.196 2972.148,-491.155 2979.086,-495.157 		"/>
	</g>
	<polygon fill="#44AEE5" points="-451,-177.609 -459.647,-185.934 -468,-177.609 -468,-219 -451,-219 	"/>
	<g>
		<rect fill="#44AEE5" width="91" height="64"/>
		<polyline fill="#0071BC" points="70,86 70,64 91,64 		"/>
		<g>
			<polygon fill="#FFFFFF" stroke="#44AEE5" stroke-width="0.2" stroke-miterlimit="10" points="42.411,37.614 41.082,38.266 
				40.388,36.958 39.311,34.927 33.976,49.586 39.568,47.105 42.118,52.55 45.174,44.153 42.735,37.455 			"/>
			<polygon fill="#FFFFFF" stroke="#44AEE5" stroke-width="0.2" stroke-miterlimit="10" points="50.965,36.958 50.272,38.266 
				48.943,37.614 47.764,37.038 45.677,36.017 44.117,36.779 45.987,41.919 49.856,52.55 52.406,47.105 58,49.586 52.411,34.232 			
				"/>
			<path fill="#FFFFFF" stroke="#44AEE5" stroke-width="0.2" stroke-miterlimit="10" d="M35.98,27.271l-0.613,4.34l4.317,0.757
				l0.33,0.623l1.725,3.25l0.47-0.23l0.691-0.338l0.691-0.338l2.085-1.021l2.613,1.277l1.325,0.649l2.054-3.873l0.06-0.01
				l0.765-0.135l0.764-0.134l2.728-0.479l-0.613-4.34l3.047-3.151l-3.047-3.15l0.613-4.339l-4.317-0.758l-2.054-3.872l-3.938,1.925
				l-3.938-1.925l-2.055,3.872l-4.317,0.758l0.613,4.339l-3.047,3.15L35.98,27.271z M45.677,17.543c3.622,0,6.567,2.946,6.567,6.567
				c0,1.511-0.532,2.885-1.392,3.996c-0.378,0.49-0.817,0.927-1.317,1.293c-0.962,0.705-2.12,1.138-3.378,1.229
				c-0.161,0.013-0.315,0.049-0.479,0.049c-0.492,0-0.968-0.063-1.43-0.167c-2.934-0.656-5.137-3.271-5.137-6.4
				C39.11,20.489,42.056,17.543,45.677,17.543z"/>
			<path fill="#FFFFFF" stroke="#44AEE5" stroke-width="0.2" stroke-miterlimit="10" d="M45.677,29.148
				c2.778,0,5.039-2.26,5.039-5.038s-2.261-5.037-5.039-5.037c-2.777,0-5.038,2.259-5.038,5.037S42.899,29.148,45.677,29.148z"/>
		</g>
	</g>
	<polygon fill="#44AEE5" points="-511.483,-182.913 -507.021,-184.892 -504.986,-180.548 -499.229,-196.367 -505.726,-198.732 	"/>
	<g>
		<polygon fill="#44AEE5" points="-505.351,-196.731 -497.708,-199.515 -491.25,-181.774 -496.479,-184.092 -498.882,-178.958 		"/>
		<path fill="#FFFFFF" d="M-498.072-198.732l5.758,15.819l-4.463-1.979l-2.034,4.344l-5.758-15.819L-498.072-198.732
			 M-497.343-200.297l-1.147,0.418l-6.497,2.365l-1.146,0.417l0.417,1.146l5.758,15.819l1.005,2.762l1.247-2.661l1.527-3.262
			l3.371,1.494l2.622,1.162l-0.981-2.694l-5.758-15.819L-497.343-200.297L-497.343-200.297z"/>
	</g>
	<g>
		<polygon fill="#44AEE5" points="-502.146,-194.419 -505.55,-192.753 -507.327,-196.101 -511.059,-196.756 -510.529,-200.507 
			-513.163,-203.231 -510.529,-205.955 -511.059,-209.706 -507.327,-210.361 -505.55,-213.709 -502.146,-212.044 -498.742,-213.709 
			-496.966,-210.361 -493.234,-209.706 -493.764,-205.955 -491.13,-203.231 -493.764,-200.507 -493.234,-196.756 -496.966,-196.101 
			-498.742,-192.753 		"/>
		<path fill="#FFFFFF" d="M-499.004-212.901l1.639,3.09l3.444,0.604l-0.489,3.462l2.432,2.514l-2.432,2.515l0.489,3.462
			l-3.444,0.604l-1.639,3.09l-3.142-1.537l-3.142,1.537l-1.64-3.09l-3.444-0.604l0.489-3.462l-2.432-2.515l2.432-2.514l-0.489-3.462
			l3.444-0.604l1.64-3.09l3.142,1.536L-499.004-212.901 M-498.479-214.516l-1.061,0.518l-2.606,1.274l-2.605-1.273l-1.061-0.519
			l-0.554,1.042l-1.36,2.563l-2.857,0.501l-1.162,0.204l0.165,1.169l0.406,2.871l-2.017,2.085l-0.82,0.849l0.82,0.848l2.017,2.087
			l-0.406,2.871l-0.165,1.169l1.162,0.204l2.857,0.501l1.36,2.563l0.554,1.043l1.061-0.52l2.605-1.274l2.606,1.274l1.061,0.52
			l0.553-1.043l1.36-2.563l2.857-0.501l1.162-0.204l-0.165-1.169l-0.406-2.871l2.017-2.086l0.82-0.849l-0.82-0.849l-2.017-2.085
			l0.406-2.871l0.165-1.169l-1.162-0.204l-2.857-0.501l-1.36-2.562L-498.479-214.516L-498.479-214.516z"/>
	</g>
	<circle fill="none" stroke="#FFFFFF" stroke-width="1.2201" stroke-miterlimit="10" cx="-502.146" cy="-203.239" r="4.63"/>
	<g>
		<rect x="1" y="-233" fill="#44AEE5" width="91" height="64"/>
		<polyline fill="#0071BC" points="71,-147 71,-169 92,-169 		"/>
	</g>
	<polygon fill="#44AEE5" points="302.039,395.398 300.328,392.172 295.15,406.399 300.617,403.975 303.106,409.289 306.067,401.153 
		303.68,394.594 	"/>
	<polygon fill="#44AEE5" points="311.315,395.398 306.677,393.128 305.242,393.83 310.868,409.289 313.357,403.975 313.447,404.014 
		318.826,406.399 313.394,391.478 	"/>
	<path fill="#44AEE5" d="M297.086,384.237l-0.606,4.292l4.27,0.749l2.032,3.83l3.895-1.905l3.895,1.905l2.032-3.831l1.637-0.286
		l2.632-0.462l-0.606-4.292l3.014-3.117l-3.014-3.116l0.606-4.291l-4.27-0.75l-2.032-3.83l-3.895,1.904l-3.895-1.904l-2.032,3.83
		l-0.048,0.009l-4.222,0.741l0.606,4.291l-3.014,3.116L297.086,384.237z M306.677,374.443c3.676,0,6.667,2.99,6.667,6.667
		c0,1.46-0.489,2.862-1.413,4.058c-0.393,0.509-0.843,0.95-1.337,1.312c-0.99,0.725-2.176,1.156-3.43,1.248
		c-0.061,0.005-0.122,0.014-0.182,0.021c-0.098,0.014-0.198,0.027-0.305,0.027c-0.468,0-0.943-0.055-1.452-0.169
		c-3.021-0.676-5.215-3.409-5.215-6.498C300.01,377.434,303.001,374.443,306.677,374.443z"/>
	<path fill="#44AEE5" d="M306.677,386.049c2.724,0,4.939-2.216,4.939-4.938s-2.215-4.938-4.939-4.938
		c-2.723,0-4.938,2.215-4.938,4.938S303.954,386.049,306.677,386.049z"/>
	<g>
		<polygon fill="#FFFFFF" points="47,-182.34 54,-186.415 54,-194.566 47,-190.479 		"/>
		<polygon fill="#FFFFFF" points="38,-186.362 45,-182.343 45,-190.498 38,-194.529 		"/>
		<polygon fill="#FFFFFF" points="46.118,-200.185 39.138,-196.156 46.073,-192.155 53.08,-196.196 		"/>
		<polygon fill="#FFFFFF" points="53.08,-216.868 46.118,-220.856 39.138,-216.829 46.073,-212.827 		"/>
		<polygon fill="#FFFFFF" points="45,-210.081 38,-205.993 38,-197.854 45,-201.93 		"/>
		<polygon fill="#FFFFFF" points="29,-201.878 36,-197.857 36,-206.014 29,-210.044 		"/>
		<polygon fill="#FFFFFF" points="29,-191.358 36,-187.339 36,-195.495 29,-199.524 		"/>
		<polygon fill="#FFFFFF" points="36.957,-215.699 29.977,-211.672 36.913,-207.67 43.92,-211.711 		"/>
		<polygon fill="#FFFFFF" points="54,-205.993 47,-210.081 47,-201.93 54,-197.854 		"/>
		<polygon fill="#FFFFFF" points="63,-210.044 56,-206.014 56,-197.857 63,-201.878 		"/>
		<polygon fill="#FFFFFF" points="56,-187.339 63,-191.358 63,-199.524 56,-195.495 		"/>
		<polygon fill="#FFFFFF" points="55.166,-215.699 48.207,-211.711 55.211,-207.67 62.148,-211.672 		"/>
	</g>
	<g>
		<g>
			<path fill="#FFFFFF" d="M-242.66-317.51l9.796-3.564l-1.278-3.514l-9.897,3.604c0.102-0.039,0.692,1.398,0.95,2.104
				C-242.938-318.461-243.053-318.692-242.66-317.51z"/>
			<path fill="#FFFFFF" d="M-233.695-310.134l0.895-3.477l-9.648-2.298c0.13,1.255,0.062,2.438-0.185,3.482L-233.695-310.134z"/>
			<path fill="#FFFFFF" d="M-238.647-329.679l-2.925-2.101l-5.967,6.688c0.899,0.586,1.757,1.418,2.509,2.445L-238.647-329.679z"/>
		</g>
		<path fill="#FFFFFF" d="M-244.075-315.283c-0.068-0.674-0.202-1.383-0.389-2.083c-0.111-0.416-0.235-0.84-0.388-1.258
			c-0.258-0.708-0.568-1.377-0.909-1.997c-0.28-0.51-0.583-0.988-0.907-1.43c-0.752-1.026-1.652-1.98-2.55-2.566
			c-1.412-0.921-2.961-1.36-4.307-0.871l-1.528,0.699c-1.231,1.58-1.969,2.789-1.969,5.789h-1.8c0-2,0.385-3.379,1.059-4.803
			l-0.985,0.288c-1.903,0.691-3.679,2.627-4.342,5.522l-14.476,5.25c0,0-0.635,0.223-0.64,0.224
			c-1.767,0.645-2.591,3.443-1.507,6.421c1.084,2.979,3.341,4.838,5.108,4.196l15.344-5.588c1.947,0.617,4.999,2.157,6.904,1.463
			l5.224-1.9c1.471-0.535,2.448-1.997,2.886-3.843C-243.999-312.812-243.943-314.027-244.075-315.283z M-266.04-308.374
			c-1.148,0.418-2.419-0.175-2.838-1.322c-0.417-1.147,0.174-2.417,1.323-2.837c1.149-0.416,2.419,0.174,2.836,1.321
			C-264.302-310.064-264.893-308.795-266.04-308.374z M-246.851-310.326c-0.212,0.076-0.533-0.062-0.914-0.376
			c-0.32-0.264-0.681-0.646-1.06-1.138c-0.823-1.071-1.717-2.636-2.388-4.478s-0.991-3.616-1.049-4.964
			c-0.026-0.621,0.004-1.146,0.081-1.554c0.09-0.482,0.246-0.798,0.457-0.875c0.774-0.282,3.339,2.179,4.685,5.875
			C-245.694-314.139-246.077-310.608-246.851-310.326z"/>
	</g>
	<g>
		<rect x="1" y="-464" fill="#44AEE5" width="91" height="64"/>
		<polyline fill="#0071BC" points="71,-378 71,-400 92,-400 		"/>
	</g>
	<g>
		<g id="Your_Icon_1_">
			<path fill="#FFFFFF" d="M59.5-443.729v-3.75H47.875v3.75h-3.75v-3.75H32.5v3.75h-0.796h-2.58v11.25h2.58H32.5v4.125h3.75v3.375
				H40v4.125h3.749v3.375h4.501v-3.375h3.749v-4.125h0.336h3.414v-3.375H59.5v-4.125h0.771h2.604v-11.25"/>
		</g>
		
			<line fill="none" stroke="#44AEE5" stroke-width="2.4513" stroke-miterlimit="10" x1="34.664" y1="-434.113" x2="45.5" y2="-423.566"/>
	</g>
	<g>
		<rect y="-115" fill="#44AEE5" width="91" height="64"/>
		<polyline fill="#0071BC" points="70,-29 70,-51 91,-51 		"/>
	</g>
	<path fill="#FFFFFF" d="M62.35-76.787l-7.556-7.555l2.14-2.09l-3.049-3.048l1.402-1.463l3.049,3.049l4.063-4.063l-8.131-8.131
		l-7.61,7.61l-4.675-4.675c-0.143-0.144-0.332-0.213-0.527-0.244l0.005-0.025l-12.3-2.064L31.3-87.252l0.017-0.002
		c0.033,0.188,0.105,0.372,0.252,0.518l4.674,4.674l-7.375,7.376l8.13,8.13l4.063-4.064l-3.048-3.049l1.474-1.458l3.048,3.049
		l1.839-1.852l7.561,7.561c0.181,0.181,0.426,0.282,0.682,0.282s0.501-0.102,0.682-0.282l9.05-9.052
		C62.727-75.799,62.727-76.41,62.35-76.787z M41.301-95.106l3.993,3.993l5.081,5.081l9.927,9.928l-1.597,1.598l-6.879-6.88
		l-8.129-8.13l-3.993-3.993L41.301-95.106z M55.509-71.309l-6.88-6.881L40.5-86.318l-3.993-3.993l1.834-1.834l3.993,3.993
		l8.129,8.13l6.879,6.88L55.509-71.309z M33.58-96.95l5.715,1.121l-6.414,6.415L31.78-95.08L33.58-96.95z M33.615-87.418
		l1.528-1.529l3.993,3.993l8.129,8.13l6.88,6.881l-1.527,1.526l-9.929-9.929l-5.082-5.08L33.615-87.418z"/>
	<g>
		<rect x="1" y="117" fill="#44AEE5" width="91" height="64"/>
		<polyline fill="#0071BC" points="71,203 71,181 92,181 		"/>
	</g>
	<g>
		<path fill="#FFFFFF" d="M41.205,143.762c0.488-0.45,0.603-0.752,1.004-1.279c1.593-2.087,2.905-4.346,4.061-6.699
			c0.09-0.188,0.134-0.368,0.125-0.578c-0.024-0.504-0.012-1.012-0.022-1.52c-0.021-1.162-0.03-2.325-0.046-3.489
			c0-0.084,0.021-0.154,0.068-0.226c0.519-0.759,1.231-1.227,2.126-1.427c0.246-0.056,0.497-0.069,0.746-0.097
			c0.1,0,0.202,0,0.303,0c0.137,0.011,0.274,0.021,0.41,0.037c0.608,0.073,1.191,0.23,1.728,0.537
			c0.184,0.104,0.329,0.245,0.437,0.434c0.662,1.133,1.215,2.314,1.641,3.559c0.382,1.113,0.63,2.249,0.545,3.441
			c-0.049,0.685-0.125,1.363-0.256,2.033c-0.168,0.871-0.409,1.723-0.617,2.584c-0.046,0.191-0.046,0.191,0.15,0.191
			c3.309,0,6.617,0.001,9.925,0c0.486,0,0.935,0.117,1.352,0.36c1.355,0.792,1.961,2.512,1.418,4.011
			c-0.256,0.705-0.697,1.28-1.248,1.775c-0.067,0.062-0.076,0.105-0.032,0.185c0.306,0.575,0.407,1.185,0.301,1.825
			c-0.149,0.893-0.598,1.619-1.255,2.229c-0.097,0.089-0.12,0.164-0.081,0.291c0.181,0.602,0.251,1.214,0.151,1.839
			c-0.138,0.867-0.549,1.584-1.205,2.16c-0.067,0.06-0.083,0.11-0.062,0.199c0.218,0.868,0.214,1.732-0.104,2.583
			c-0.336,0.899-0.934,1.59-1.736,2.104c-0.667,0.428-1.389,0.7-2.193,0.7c-5.06,0.001-10.119,0-15.178,0.001
			c-0.176,0-0.348-0.022-0.515-0.072c-0.609-0.187-1.117-0.53-1.56-0.979c-0.029-0.03-0.052-0.069-0.127-0.095
			c0,0.26,0.003,0.499-0.001,0.74c-0.003,0.182-0.002,0.365-0.028,0.541c-0.085,0.535-0.627,0.969-1.192,0.969
			c-3.733,0-7.468,0-11.202,0c-0.053,0-0.107-0.002-0.16-0.009c-0.54-0.082-1.063-0.614-1.149-1.185
			c-0.039-0.26-0.047-0.525-0.068-0.792c-0.046-0.58-0.091-1.161-0.136-1.743c-0.036-0.469-0.071-0.936-0.107-1.404
			c-0.045-0.573-0.089-1.15-0.133-1.725c-0.036-0.471-0.071-0.942-0.108-1.414c-0.043-0.574-0.089-1.147-0.134-1.726
			c-0.036-0.47-0.07-0.942-0.106-1.412c-0.044-0.572-0.09-1.143-0.134-1.716c-0.036-0.476-0.071-0.954-0.107-1.434
			c-0.045-0.588-0.09-1.177-0.136-1.765c-0.018-0.2-0.038-0.404-0.056-0.608c0-0.309,0-0.616,0-0.926
			c0.016-0.035,0.031-0.067,0.049-0.1c0.303-0.559,0.736-0.912,1.404-0.908c0.795,0.008,1.589,0.007,2.385,0.011
			c2.193,0.011,4.387,0.006,6.58,0.008L41.205,143.762z M51.467,159.925c0,0.002,0,0.005,0,0.007c2.495,0,4.991-0.002,7.487,0.002
			c0.207,0,0.397-0.043,0.581-0.136c0.604-0.303,1.108-0.727,1.503-1.276c0.234-0.324,0.398-0.68,0.418-1.084
			c0.028-0.534-0.207-0.952-0.592-1.299c-0.2-0.183-0.25-0.415-0.131-0.652c0.044-0.084,0.104-0.146,0.201-0.166
			c0.106-0.024,0.205-0.064,0.3-0.115c0.617-0.339,1.031-0.855,1.271-1.504c0.275-0.743,0.104-1.37-0.486-1.898
			c-0.26-0.233-0.183-0.647,0.147-0.795c0.414-0.185,0.778-0.438,1.075-0.781c0.417-0.484,0.6-1.044,0.489-1.679
			c-0.079-0.451-0.271-0.854-0.608-1.177c-0.208-0.199-0.135-0.576,0.129-0.652c0.218-0.064,0.416-0.168,0.607-0.287
			c0.772-0.484,1.188-1.365,1.04-2.229c-0.15-0.873-0.83-1.36-1.537-1.372c-1.553-0.021-3.106-0.005-4.659-0.005
			c-2.335,0-4.671,0-7.005-0.002c-0.129,0-0.133-0.009-0.106-0.135c0.003-0.015,0.006-0.025,0.008-0.039
			c0.366-1.629,0.713-3.264,0.933-4.92c0.076-0.578,0.124-1.16,0.147-1.744c0.021-0.508-0.083-1.001-0.21-1.488
			c-0.358-1.382-0.896-2.697-1.5-3.987c-0.026-0.058-0.065-0.1-0.118-0.132c-0.442-0.287-0.925-0.412-1.451-0.382
			c-0.441,0.024-0.842,0.153-1.209,0.396c-0.11,0.072-0.154,0.151-0.154,0.285c0.004,1.673,0.002,3.343,0.003,5.013
			c0,0.09-0.01,0.172-0.051,0.252c-0.524,1.014-1.064,2.019-1.635,3.007c-1.179,2.036-2.477,3.995-3.944,5.841
			c-0.064,0.079-0.139,0.145-0.222,0.202c-0.612,0.418-1.221,0.805-1.835,1.22c-0.117,0.079-0.161,0.162-0.161,0.302
			c0.004,3.993,0.003,8.021,0.004,12.013c0,0.034,0.001,0.067,0,0.101c-0.003,0.067,0.031,0.095,0.098,0.097
			c0.314,0.002,0.631,0.028,0.945,0.005c0.273-0.018,0.505,0.036,0.739,0.186c0.481,0.31,0.981,0.593,1.488,0.861
			c0.111,0.057,0.224,0.107,0.352,0.111c0.208,0.006,0.416,0.015,0.624,0.017c0.822,0.011,1.644,0.013,2.466,0.019
			C48.426,159.933,49.947,159.925,51.467,159.925z"/>
		<circle fill="#44AEE5" cx="35.774" cy="158.155" r="1.647"/>
	</g>
	<g>
		<path fill="#44AEE5" d="M-53.42-441.777c0.488-0.45,0.603-0.752,1.004-1.279c1.593-2.087,2.905-4.346,4.061-6.699
			c0.09-0.188,0.134-0.368,0.124-0.578c-0.023-0.504-0.012-1.012-0.021-1.52c-0.021-1.162-0.03-2.325-0.046-3.489
			c0-0.084,0.021-0.154,0.068-0.226c0.519-0.759,1.231-1.227,2.127-1.427c0.246-0.056,0.497-0.069,0.746-0.097
			c0.1,0,0.202,0,0.303,0c0.137,0.011,0.274,0.021,0.41,0.037c0.608,0.073,1.191,0.23,1.728,0.537
			c0.184,0.104,0.329,0.245,0.437,0.434c0.662,1.133,1.215,2.314,1.641,3.559c0.382,1.113,0.63,2.249,0.545,3.441
			c-0.049,0.685-0.125,1.363-0.256,2.033c-0.168,0.871-0.409,1.723-0.617,2.584c-0.046,0.191-0.046,0.191,0.15,0.191
			c3.309,0,6.617,0.001,9.925,0c0.486,0,0.935,0.117,1.352,0.36c1.355,0.792,1.961,2.512,1.418,4.011
			c-0.256,0.705-0.697,1.28-1.248,1.775c-0.067,0.062-0.076,0.105-0.032,0.185c0.306,0.575,0.407,1.185,0.301,1.825
			c-0.149,0.893-0.598,1.619-1.255,2.229c-0.097,0.089-0.12,0.164-0.081,0.291c0.181,0.602,0.251,1.214,0.151,1.839
			c-0.138,0.867-0.549,1.584-1.205,2.16c-0.067,0.06-0.083,0.11-0.062,0.199c0.218,0.868,0.214,1.732-0.104,2.583
			c-0.336,0.899-0.934,1.59-1.736,2.104c-0.667,0.428-1.389,0.7-2.193,0.7c-5.06,0.001-10.119,0-15.178,0.001
			c-0.176,0-0.348-0.022-0.515-0.072c-0.609-0.187-1.117-0.53-1.56-0.979c-0.029-0.03-0.052-0.069-0.127-0.095
			c0,0.26,0.003,0.499-0.001,0.74c-0.003,0.182-0.002,0.365-0.028,0.541c-0.085,0.535-0.627,0.969-1.192,0.969
			c-3.733,0-7.468,0-11.202,0c-0.053,0-0.107-0.002-0.16-0.009c-0.54-0.082-1.063-0.614-1.149-1.185
			c-0.039-0.26-0.047-0.525-0.068-0.792c-0.046-0.58-0.091-1.161-0.136-1.743c-0.036-0.469-0.071-0.936-0.107-1.404
			c-0.045-0.573-0.089-1.15-0.133-1.725c-0.036-0.471-0.071-0.942-0.108-1.414c-0.043-0.574-0.089-1.147-0.134-1.726
			c-0.036-0.47-0.07-0.942-0.106-1.412c-0.044-0.572-0.09-1.143-0.134-1.716c-0.036-0.476-0.071-0.954-0.107-1.434
			c-0.045-0.588-0.09-1.177-0.136-1.765c-0.018-0.2-0.038-0.404-0.056-0.608c0-0.309,0-0.616,0-0.926
			c0.016-0.035,0.031-0.067,0.049-0.1c0.303-0.559,0.736-0.912,1.404-0.908c0.795,0.008,1.589,0.007,2.385,0.011
			c2.193,0.011,4.387,0.006,6.58,0.008L-53.42-441.777z M-43.158-425.614c0,0.002,0,0.005,0,0.007c2.495,0,4.991-0.002,7.487,0.002
			c0.207,0,0.397-0.043,0.581-0.136c0.604-0.303,1.108-0.727,1.503-1.276c0.234-0.324,0.397-0.68,0.418-1.084
			c0.028-0.534-0.207-0.952-0.592-1.299c-0.2-0.183-0.25-0.415-0.131-0.652c0.044-0.084,0.104-0.146,0.201-0.166
			c0.106-0.024,0.205-0.064,0.3-0.115c0.617-0.339,1.031-0.855,1.271-1.504c0.275-0.743,0.104-1.37-0.486-1.898
			c-0.26-0.233-0.183-0.647,0.147-0.795c0.414-0.185,0.778-0.438,1.075-0.781c0.417-0.484,0.6-1.044,0.489-1.679
			c-0.079-0.451-0.271-0.854-0.608-1.177c-0.208-0.199-0.135-0.576,0.129-0.652c0.218-0.064,0.416-0.168,0.607-0.287
			c0.772-0.484,1.188-1.365,1.04-2.229c-0.15-0.873-0.83-1.36-1.537-1.372c-1.553-0.021-3.106-0.005-4.659-0.005
			c-2.335,0-4.671,0-7.005-0.002c-0.129,0-0.133-0.009-0.106-0.135c0.003-0.015,0.006-0.025,0.008-0.039
			c0.366-1.629,0.713-3.264,0.933-4.92c0.076-0.578,0.124-1.16,0.147-1.744c0.021-0.508-0.083-1.001-0.21-1.488
			c-0.358-1.382-0.896-2.697-1.5-3.987c-0.026-0.058-0.065-0.1-0.118-0.132c-0.442-0.287-0.925-0.412-1.451-0.382
			c-0.441,0.024-0.842,0.153-1.209,0.396c-0.11,0.072-0.154,0.151-0.154,0.285c0.004,1.673,0.002,3.343,0.003,5.013
			c0,0.09-0.01,0.172-0.051,0.252c-0.524,1.014-1.064,2.019-1.635,3.007c-1.179,2.036-2.477,3.995-3.944,5.841
			c-0.064,0.079-0.139,0.145-0.222,0.202c-0.612,0.418-1.221,0.805-1.835,1.22c-0.117,0.079-0.161,0.162-0.161,0.302
			c0.004,3.993,0.003,8.021,0.004,12.013c0,0.034,0.001,0.067,0,0.101c-0.003,0.067,0.031,0.095,0.098,0.097
			c0.314,0.002,0.631,0.028,0.945,0.005c0.273-0.018,0.505,0.036,0.739,0.186c0.481,0.31,0.981,0.593,1.488,0.861
			c0.111,0.057,0.224,0.107,0.352,0.111c0.208,0.006,0.416,0.015,0.624,0.017c0.822,0.011,1.644,0.013,2.466,0.019
			C-46.199-425.606-44.678-425.614-43.158-425.614z"/>
		<circle fill="#FFFFFF" cx="-58.851" cy="-427.384" r="1.647"/>
	</g>
	<g>
		<polygon fill="#44AEE5" points="-47,-183.34 -40,-187.415 -40,-195.566 -47,-191.479 		"/>
		<polygon fill="#44AEE5" points="-56,-187.362 -49,-183.343 -49,-191.498 -56,-195.529 		"/>
		<polygon fill="#44AEE5" points="-47.882,-201.185 -54.862,-197.156 -47.927,-193.155 -40.92,-197.196 		"/>
		<polygon fill="#44AEE5" points="-40.92,-217.868 -47.882,-221.856 -54.862,-217.829 -47.927,-213.827 		"/>
		<polygon fill="#44AEE5" points="-49,-211.081 -56,-206.993 -56,-198.854 -49,-202.93 		"/>
		<polygon fill="#44AEE5" points="-65,-202.878 -58,-198.857 -58,-207.014 -65,-211.044 		"/>
		<polygon fill="#44AEE5" points="-65,-192.358 -58,-188.339 -58,-196.495 -65,-200.524 		"/>
		<polygon fill="#44AEE5" points="-57.043,-216.699 -64.023,-212.672 -57.087,-208.67 -50.08,-212.711 		"/>
		<polygon fill="#44AEE5" points="-40,-206.993 -47,-211.081 -47,-202.93 -40,-198.854 		"/>
		<polygon fill="#44AEE5" points="-31,-211.044 -38,-207.014 -38,-198.857 -31,-202.878 		"/>
		<polygon fill="#44AEE5" points="-38,-188.339 -31,-192.358 -31,-200.524 -38,-196.495 		"/>
		<polygon fill="#44AEE5" points="-38.834,-216.699 -45.793,-212.711 -38.789,-208.67 -31.852,-212.672 		"/>
	</g>
	<path fill="#44AEE5" d="M-31.65-76.787l-7.556-7.555l2.14-2.09l-3.049-3.048l1.402-1.463l3.049,3.049l4.063-4.063l-8.131-8.131
		l-7.61,7.61l-4.675-4.675c-0.143-0.144-0.332-0.213-0.527-0.244l0.005-0.025l-12.3-2.064l2.139,12.234l0.017-0.002
		c0.033,0.188,0.105,0.372,0.252,0.518l4.674,4.674l-7.375,7.376l8.13,8.13l4.063-4.064l-3.048-3.049l1.474-1.458l3.048,3.049
		l1.839-1.852l7.561,7.561c0.181,0.181,0.426,0.282,0.682,0.282s0.501-0.102,0.682-0.282l9.05-9.052
		C-31.273-75.799-31.273-76.41-31.65-76.787z M-52.699-95.106l3.993,3.993l5.081,5.081l9.927,9.928l-1.597,1.598l-6.879-6.88
		l-8.129-8.13l-3.993-3.993L-52.699-95.106z M-38.491-71.309l-6.88-6.881l-8.129-8.129l-3.993-3.993l1.834-1.834l3.993,3.993
		l8.129,8.13l6.879,6.88L-38.491-71.309z M-60.42-96.95l5.715,1.121l-6.414,6.415l-1.101-5.666L-60.42-96.95z M-60.385-87.418
		l1.528-1.529l3.993,3.993l8.129,8.13l6.88,6.881l-1.527,1.526l-9.929-9.929l-5.082-5.08L-60.385-87.418z"/>
	<g>
		<polygon fill="#FFFFFF" stroke="#44AEE5" stroke-width="0.2" stroke-miterlimit="10" points="2467.525,-479.871 2466.196,-479.22 
			2465.502,-480.527 2464.425,-482.559 2459.09,-467.899 2464.683,-470.38 2467.232,-464.936 2470.288,-473.332 2467.85,-480.03 		
			"/>
		<polygon fill="#FFFFFF" stroke="#44AEE5" stroke-width="0.2" stroke-miterlimit="10" points="2476.08,-480.527 2475.386,-479.22 
			2474.057,-479.871 2472.878,-480.447 2470.791,-481.469 2469.231,-480.706 2471.102,-475.566 2474.971,-464.936 2477.521,-470.38 
			2483.114,-467.899 2477.525,-483.253 		"/>
		<path fill="#FFFFFF" stroke="#44AEE5" stroke-width="0.2" stroke-miterlimit="10" d="M2461.095-490.214l-0.613,4.34l4.317,0.757
			l0.33,0.623l1.725,3.25l0.47-0.23l0.691-0.338l0.691-0.338l2.085-1.021l2.613,1.277l1.325,0.649l2.054-3.873l0.06-0.01
			l0.765-0.135l0.764-0.134l2.728-0.479l-0.613-4.34l3.047-3.151l-3.047-3.15l0.613-4.339l-4.317-0.758l-2.054-3.872l-3.938,1.925
			l-3.938-1.925l-2.055,3.872l-4.317,0.758l0.613,4.339l-3.047,3.15L2461.095-490.214z M2470.791-499.942
			c3.622,0,6.567,2.946,6.567,6.567c0,1.511-0.532,2.885-1.392,3.996c-0.378,0.49-0.817,0.927-1.317,1.293
			c-0.962,0.705-2.12,1.138-3.378,1.229c-0.161,0.013-0.315,0.049-0.479,0.049c-0.492,0-0.968-0.063-1.43-0.167
			c-2.934-0.656-5.137-3.271-5.137-6.4C2464.225-496.996,2467.17-499.942,2470.791-499.942z"/>
		<path fill="#FFFFFF" stroke="#44AEE5" stroke-width="0.2" stroke-miterlimit="10" d="M2470.791-488.337
			c2.778,0,5.039-2.26,5.039-5.038s-2.261-5.037-5.039-5.037c-2.777,0-5.038,2.259-5.038,5.037S2468.014-488.337,2470.791-488.337z"
			/>
	</g>
	<g>
		<rect x="1929" y="-183" fill="#44AEE5" width="91" height="64"/>
		<polyline fill="#0071BC" points="1999,-97 1999,-119 2020,-119 		"/>
	</g>
	<g>
		<g id="Your_Icon_2_">
			<path fill="#FFFFFF" d="M1986.938-161.693v-3.75h-11.625v3.75h-3.75v-3.75h-11.625v3.75h-0.796h-2.58v11.25h2.58h0.796v4.126
				h3.75v3.374h3.75v4.125h3.749v3.375h4.501v-3.375h3.749v-4.125h0.336h3.414v-3.374h3.751v-4.126h0.771h2.604v-11.25"/>
		</g>
		
			<line fill="none" stroke="#44AEE5" stroke-width="2.4513" stroke-miterlimit="10" x1="1962.601" y1="-152.077" x2="1973.437" y2="-141.53"/>
	</g>
	<g>
		<path fill="#44AEE5" d="M-120-520v-3h-11v3h-4v-3h-12v3h-0.136H-150v12h2.864H-147v4h4v3h4v4h4v4h4v-4h4v-4h0.494H-123v-3h3v-4
			h1.43h2.57v-12H-120z M-134.196-497.756l-10.836-10.547l1.71-1.756l10.836,10.547L-134.196-497.756z"/>
	</g>
	<g>
		<polygon fill="#44AEE5" points="-52.961,35.398 -54.672,32.172 -59.85,46.399 -54.383,43.975 -51.894,49.289 -48.933,41.153 
			-51.32,34.594 		"/>
		<polygon fill="#44AEE5" points="-43.685,35.398 -48.323,33.128 -49.758,33.83 -44.132,49.289 -41.643,43.975 -41.553,44.014 
			-36.174,46.399 -41.606,31.478 		"/>
		<path fill="#44AEE5" d="M-57.914,24.237l-0.606,4.292l4.27,0.749l2.032,3.83l3.895-1.905l3.895,1.905l2.032-3.831l1.637-0.286
			l2.632-0.462l-0.606-4.292l3.014-3.117l-3.014-3.116l0.606-4.291l-4.27-0.75l-2.032-3.83l-3.895,1.904l-3.895-1.904l-2.032,3.83
			l-0.048,0.009l-4.222,0.741l0.606,4.291l-3.014,3.116L-57.914,24.237z M-48.323,14.443c3.676,0,6.667,2.99,6.667,6.667
			c0,1.46-0.489,2.862-1.413,4.058c-0.393,0.509-0.843,0.95-1.337,1.312c-0.99,0.725-2.176,1.156-3.43,1.248
			c-0.061,0.005-0.122,0.014-0.182,0.021c-0.098,0.014-0.198,0.027-0.305,0.027c-0.468,0-0.943-0.055-1.452-0.169
			c-3.021-0.676-5.215-3.409-5.215-6.498C-54.99,17.434-51.999,14.443-48.323,14.443z"/>
		<path fill="#44AEE5" d="M-48.323,26.049c2.724,0,4.939-2.216,4.939-4.938s-2.215-4.938-4.939-4.938
			c-2.723,0-4.938,2.215-4.938,4.938S-51.046,26.049-48.323,26.049z"/>
	</g>
	<g>
		<rect x="-42" y="-323.5" fill="#44AEE5" width="5" height="19"/>
		<path fill="#44AEE5" d="M-50.466-319.431H-73.25v10.43h22.784l6.216,4.018v-18.033L-50.466-319.431z M-57.01-311.981
			c-1.168,0-2.114-0.947-2.114-2.115c0-1.166,0.946-2.113,2.114-2.113c1.167,0,2.114,0.947,2.114,2.113
			C-54.896-312.929-55.842-311.981-57.01-311.981z"/>
		<rect x="-35" y="-315.5" fill="#44AEE5" width="12" height="3"/>
		<polygon fill="#44AEE5" points="-35,-321.788 -35,-318.593 -23,-322.992 -23,-326.188 		"/>
		<polygon fill="#44AEE5" points="-35,-309.876 -35,-306.567 -23,-301.006 -23,-304.314 		"/>
	</g>
	<g>
		<polyline fill="#0071BC" points="70,-262 70,-284 91,-284 		"/>
		<g>
			<rect y="-348" fill="#44AEE5" width="91" height="64"/>
			<g>
				<rect x="51.812" y="-326.201" fill="#FFFFFF" width="5" height="19"/>
				<path fill="#FFFFFF" d="M43.346-322.133H20.562v10.43h22.784l6.216,4.018v-18.033L43.346-322.133z M36.803-314.684
					c-1.168,0-2.114-0.947-2.114-2.115c0-1.166,0.946-2.113,2.114-2.113c1.167,0,2.114,0.947,2.114,2.113
					C38.917-315.631,37.97-314.684,36.803-314.684z"/>
				<rect x="58.812" y="-318.201" fill="#FFFFFF" width="12" height="3"/>
				<polygon fill="#FFFFFF" points="59,-324.49 59,-321.295 71,-325.693 71,-328.889 				"/>
				<polygon fill="#FFFFFF" points="59,-312.578 59,-309.27 71,-303.707 71,-307.016 				"/>
			</g>
		</g>
	</g>
</g>
</svg>
