<?xml version="1.0" encoding="utf-8"?>
<!-- Generator: Adobe Illustrator 16.0.0, SVG Export Plug-In . SVG Version: 6.00 Build 0)  -->
<!DOCTYPE svg PUBLIC "-//W3C//DTD SVG 1.0//EN" "http://www.w3.org/TR/2001/REC-SVG-20010904/DTD/svg10.dtd">
<svg version="1.0" id="Ebene_1" xmlns="http://www.w3.org/2000/svg" xmlns:xlink="http://www.w3.org/1999/xlink" x="0px" y="0px"
	 width="32px" height="32px" viewBox="0 0 32 32" enable-background="new 0 0 32 32" xml:space="preserve">
<g>
	<path d="M11.578,11.236l-8.832,0.979c-0.318,0.038-0.6,0.251-0.706,0.575c-0.106,0.323,0,0.661,0.235,0.874
		c2.625,2.396,6.57,5.982,6.57,5.982c-0.003,0-1.083,5.22-1.8,8.702c-0.061,0.314,0.053,0.648,0.328,0.848
		c0.273,0.2,0.625,0.203,0.902,0.046c3.091-1.755,7.722-4.397,7.722-4.397l7.717,4.4c0.282,0.154,0.636,0.151,0.907-0.049
		c0.275-0.199,0.39-0.533,0.328-0.847l-1.795-8.703l6.568-5.978c0.235-0.22,0.341-0.557,0.235-0.879
		c-0.104-0.322-0.386-0.535-0.703-0.572c-3.535-0.396-8.835-0.982-8.835-0.982l-3.658-8.097c-0.138-0.291-0.426-0.493-0.765-0.493
		s-0.629,0.205-0.76,0.493L11.578,11.236z"/>
</g>
</svg>
