<?xml version="1.0" encoding="utf-8"?>
<!-- Generator: Adobe Illustrator 16.0.0, SVG Export Plug-In . SVG Version: 6.00 Build 0)  -->
<!DOCTYPE svg PUBLIC "-//W3C//DTD SVG 1.1//EN" "http://www.w3.org/Graphics/SVG/1.1/DTD/svg11.dtd">
<svg version="1.1" id="Ebene_1" xmlns="http://www.w3.org/2000/svg" xmlns:xlink="http://www.w3.org/1999/xlink" x="0px" y="0px"
	 width="31.25px" height="25px" viewBox="0 0 31.25 25" enable-background="new 0 0 31.25 25" xml:space="preserve">
<g>
	<g>
		<g>
			<g id="XMLID_9_">
				<path fill="#808080" d="M31.25,2.959c-0.86,1.263-1.946,2.376-3.196,3.264c0.012,0.274,0.019,0.547,0.019,0.82
					C28.073,15.381,21.619,25,9.827,25C6.208,25,2.836,23.956,0,22.17c0.499,0.057,1.011,0.082,1.528,0.082
					c3.005,0,5.767-1.008,7.964-2.699c-2.804-0.05-5.171-1.877-5.993-4.383c0.392,0.075,0.796,0.111,1.212,0.111
					c0.582,0,1.15-0.074,1.688-0.224c-2.938-0.577-5.148-3.126-5.148-6.186c0-0.025,0-0.056,0-0.082
					C2.116,9.264,3.108,9.55,4.157,9.582C2.438,8.448,1.308,6.516,1.308,4.328c0-1.156,0.316-2.239,0.865-3.17
					c3.165,3.816,7.888,6.328,13.219,6.589c-0.108-0.46-0.165-0.938-0.165-1.437c0-3.487,2.868-6.31,6.411-6.31
					c1.844,0,3.513,0.765,4.68,1.989c1.459-0.28,2.83-0.808,4.074-1.529c-0.48,1.474-1.498,2.712-2.822,3.495
					C28.868,3.799,30.099,3.463,31.25,2.959z"/>
			</g>
		</g>
	</g>
</g>
<g>
</g>
<g>
</g>
<g>
</g>
<g>
</g>
<g>
</g>
<g>
</g>
<g>
</g>
<g>
</g>
<g>
</g>
<g>
</g>
<g>
</g>
<g>
</g>
<g>
</g>
<g>
</g>
<g>
</g>
</svg>
