<?xml version="1.0" encoding="utf-8"?><!DOCTYPE svg PUBLIC "-//W3C//DTD SVG 1.1//EN" "http://www.w3.org/Graphics/SVG/1.1/DTD/svg11.dtd"><svg width="69" height="75" viewBox="0 0 69 75" xmlns="http://www.w3.org/2000/svg" xmlns:xlink="http://www.w3.org/1999/xlink"><svg width="11.982" height="25" viewBox="0 0 11.982 25" id="facebook"><path fill="#808080" d="M11.982 4.167s-2.702.047-3.16.047c-.46 0-1.108.23-1.108 1.21v2.613h3.983l-.455 4.443-3.425.02V25h-5.21V12.5L0 12.48V8.038h2.484V5.16C2.484 3.105 3.517 0 7.817 0h4.163v4.167h.002z"/></svg><svg width="24.307" height="25" viewBox="0 0 24.307 25" id="gplus" x="12" y="25"><g fill="#808080"><path d="M12.82 14.273l-1.173-.91c-.357-.297-.845-.688-.845-1.404 0-.72.488-1.176.912-1.6 1.366-1.075 2.73-2.218 2.73-4.63 0-2.48-1.56-3.783-2.307-4.4h2.016L16.268 0H9.856C8.098 0 5.564.416 3.708 1.948c-1.4 1.207-2.082 2.87-2.082 4.37 0 2.54 1.954 5.118 5.4 5.118.326 0 .682-.032 1.04-.063-.16.39-.324.717-.324 1.27 0 1.01.52 1.63.977 2.217-1.466.102-4.2.263-6.216 1.502C.584 17.502 0 19.165 0 20.337 0 22.75 2.276 25 6.994 25c5.596 0 8.557-3.097 8.557-6.16.003-2.252-1.3-3.36-2.73-4.567zm-4.263-3.75c-2.798 0-4.067-3.62-4.067-5.802 0-.85.16-1.727.714-2.412.522-.653 1.43-1.076 2.28-1.076 2.7 0 4.098 3.65 4.098 6 0 .587-.065 1.628-.812 2.38-.524.523-1.4.91-2.213.91zm.033 13.112c-3.48 0-5.726-1.666-5.726-3.98s2.08-3.098 2.797-3.357c1.366-.46 3.125-.523 3.417-.523.326 0 .488 0 .748.033 2.473 1.76 3.548 2.64 3.548 4.305 0 2.018-1.66 3.522-4.783 3.522zM21.035 10.473v-3.26h-1.61v3.26H16.17V12.1h3.255v3.28h1.61V12.1h3.272v-1.627z"/></g></svg><svg width="31.25" height="25" viewBox="0 0 31.25 25" id="twitter" x="37" y="50"><path fill="#808080" d="M31.25 2.96c-.86 1.262-1.946 2.375-3.196 3.263.012.274.02.547.02.82C28.073 15.38 21.618 25 9.826 25c-3.62 0-6.99-1.044-9.827-2.83.5.057 1.01.082 1.528.082 3.005 0 5.767-1.008 7.964-2.7-2.804-.05-5.17-1.876-5.993-4.382.39.075.795.11 1.21.11.583 0 1.15-.073 1.69-.223-2.94-.577-5.15-3.126-5.15-6.186v-.08c.866.474 1.858.76 2.907.792-1.72-1.134-2.85-3.066-2.85-5.254 0-1.156.317-2.24.866-3.17 3.165 3.816 7.888 6.328 13.22 6.59-.11-.46-.166-.94-.166-1.438 0-3.487 2.868-6.31 6.41-6.31 1.845 0 3.514.765 4.68 1.99 1.46-.28 2.83-.81 4.075-1.53-.48 1.474-1.498 2.712-2.822 3.495 1.298-.156 2.53-.492 3.68-.996z"/></svg></svg>