<?xml version="1.0" encoding="utf-8"?><svg width="1141" height="1015" viewBox="0 0 1141 1015" xmlns="http://www.w3.org/2000/svg" xmlns:xlink="http://www.w3.org/1999/xlink"><svg width="50" height="50" viewBox="0 0 50 50" id="bestercode"><path d="M26.125 44.66l7-4.075v-8.15l-7 4.086zm-9-4.022l7 4.02V36.5l-7-4.03zm8.118-13.823l-6.98 4.03 6.935 4 7.007-4.04zm6.962-16.683l-6.962-3.988-6.98 4.027 6.935 4.004zm-8.08 6.788l-7 4.087v8.14l7-4.077zm-16 8.202l7 4.02v-8.156l-7-4.03zm0 10.52l7 4.02v-8.157l-7-4.03zM16.082 11.3l-6.98 4.028 6.936 4.002 7.007-4.04zm17.043 9.707l-7-4.088v8.15l7 4.075zm9-4.05l-7 4.03v8.156l7-4.02zm-7 22.703l7-4.018v-8.166l-7 4.03zM34.29 11.3l-6.958 3.99 7.004 4.04 6.937-4.002z" fill="#44AEE5"/></svg><svg width="91" height="86" viewBox="0 0 91 86" id="bestercode_flag" x="50" y="50"><path fill="#44AEE5" d="M0 0h91v64H0z"/><path fill="#0071BC" d="M70 86V64h21"/><path d="M46 50.66l7-4.075v-8.15l-7 4.086zm-9-4.022l7 4.02V42.5l-7-4.03zm8.118-13.823l-6.98 4.03 6.935 4 7.007-4.04zm6.962-16.683l-6.962-3.988-6.98 4.027 6.935 4.004zM44 22.92l-7 4.087v8.14l7-4.077zm-16 8.202l7 4.02v-8.156l-7-4.03zm0 10.52l7 4.02v-8.157l-7-4.03zM35.957 17.3l-6.98 4.028 6.936 4.002 7.007-4.04zM53 27.007l-7-4.088v8.15l7 4.075zm9-4.05l-7 4.03v8.156l7-4.02zM55 45.66l7-4.018v-8.166l-7 4.03zm-.834-28.36l-6.96 3.99 7.005 4.04 6.94-4.002z" fill="#fff"/></svg><svg width="50" height="50" viewBox="0 0 50 50" id="bestesdesign" x="141" y="136"><path fill="#44AEE5" d="M41.475 31.3l-7.556-7.554 2.14-2.09-3.05-3.048 1.4-1.463 3.05 3.05 4.063-4.064L33.393 8l-7.61 7.61-4.674-4.675c-.145-.144-.334-.213-.53-.244l.006-.023-12.3-2.064 2.14 12.234.016-.002c.033.188.105.372.252.518l4.674 4.674-7.376 7.376 8.13 8.13 4.063-4.064-3.048-3.05 1.473-1.458 3.048 3.05 1.84-1.852 7.56 7.56c.18.18.427.282.683.282s.5-.102.683-.282l9.05-9.052c.377-.377.377-.988 0-1.365zm-21.05-18.32l3.994 3.994 5.08 5.08 9.926 9.93-1.597 1.597-6.88-6.88-8.13-8.13-3.992-3.99 1.596-1.598zm14.21 23.8l-6.88-6.882-8.13-8.13-3.993-3.992 1.834-1.834 3.993 3.993 8.127 8.13 6.88 6.88-1.834 1.834zm-21.93-25.642l5.715 1.12-6.414 6.416-1.1-5.666 1.8-1.87zm.035 9.532l1.528-1.53 3.993 3.994 8.13 8.13 6.88 6.88-1.526 1.527-9.93-9.927-5.08-5.08-3.993-3.992z"/></svg><svg width="91" height="86" viewBox="0 0 91 86" id="bestesdesign_flag" x="191" y="186"><path fill="#44AEE5" d="M0 0h91v64H0z"/><path fill="#0071BC" d="M70 86V64h21"/><path fill="#fff" d="M62.35 38.213l-7.556-7.555 2.14-2.09-3.05-3.048 1.403-1.463 3.05 3.05 4.062-4.064-8.133-8.13-7.61 7.61-4.675-4.676c-.143-.144-.332-.213-.527-.244l.005-.025-12.3-2.064 2.14 12.234.017-.002c.033.188.105.372.252.518l4.672 4.674-7.375 7.376 8.13 8.13 4.063-4.064-3.047-3.05 1.474-1.457 3.048 3.05 1.84-1.853 7.56 7.56c.18.182.426.283.682.283s.5-.102.682-.282l9.05-9.05c.376-.38.376-.99 0-1.366zM41.3 19.893l3.994 3.994 5.08 5.08 9.928 9.93-1.597 1.597-6.88-6.88-8.128-8.13-3.993-3.993 1.597-1.595zM55.51 43.69l-6.88-6.88-8.13-8.127-3.993-3.993 1.834-1.835 3.995 3.993 8.13 8.13 6.878 6.88-1.833 1.833zM33.58 18.05l5.715 1.12-6.414 6.416-1.1-5.666 1.8-1.87zm.035 9.532l1.528-1.53 3.993 3.994 8.13 8.13 6.88 6.88-1.528 1.527-9.93-9.93-5.08-5.08-3.993-3.99z"/></svg><svg version="1" width="119.156" height="25" viewBox="0 0 119.156 25" id="betterplace" x="282" y="272"><path fill-rule="evenodd" clip-rule="evenodd" fill="#61696E" d="M34.445 21.513v-1.13h.87V15.47h-1.09v-1.134h2.55c0 .54-.054 1.41-.054 1.41.39-1.244 1.235-1.548 2.218-1.548.216 0 .43.03.58.062l-.17 1.413c-.145-.036-.306-.056-.53-.056-1.365 0-1.958 1.178-1.958 2.526v2.235h1.048v1.132h-3.463zm24.542-1.13v-3.465c0-1.756-.785-2.747-2.953-2.747-1.532 0-2.507.47-2.894.65v1.68h1.38v-.947c.235-.096.81-.248 1.348-.248 1.27 0 1.61.62 1.61 1.504v.234c-3.048 0-4.642.82-4.642 2.58 0 .912.616 2.057 2.34 2.057 1.427 0 2.187-.853 2.406-1.222-.04.32-.063.824-.063 1.057h2.376v-1.13l-.91-.002zm-1.51-1.74c0 .91-.698 1.82-1.898 1.82-.733 0-1.198-.427-1.198-.965 0-1.062 1.495-1.435 3.096-1.45l-.002.596zM5.05 14.17c-1.107 0-2.016.553-2.348 1.213.002.002.002-3.688.002-3.688H0v1.132h1.158v8.305c.7.274 1.498.546 2.746.546 3.09 0 4.027-2.11 4.027-4.25.004-1.852-1-3.257-2.88-3.257zm-.965 6.212c-.672 0-1.092-.15-1.38-.285v-2.572c.027-1.145.663-2.056 1.877-2.056 1.173 0 1.783.812 1.783 2.07 0 1.49-.652 2.84-2.28 2.84zm17.372-4.912h1.076v4.028c0 1.615.633 2.208 2.06 2.208.608 0 1.15-.166 1.538-.36l.057-1.13c-.345.138-.736.276-1.15.276-.717 0-.957-.333-.957-1.644v-3.38h1.904v-1.132H24.08v-1.46l-1.547.11v1.35h-1.076v1.133zm-5.037 0h1.076v4.028c0 1.615.633 2.208 2.06 2.208.608 0 1.15-.166 1.538-.36l.055-1.13c-.347.138-.738.276-1.15.276-.72 0-.96-.333-.96-1.644v-3.38h1.906v-1.132H19.04v-1.46l-1.544.11v1.35H16.42v1.133zm57.767 2.497c0-2.222-1.09-3.846-3.243-3.846-2.318 0-3.52 1.71-3.52 3.834 0 2.25 1.408 3.763 3.782 3.776 1.076 0 2.03-.29 2.525-.498l.085-1.27c-.62.317-1.407.552-2.305.552-1.422 0-2.443-.948-2.457-2.342h5.134v-.205zm-1.628-.842h-3.507c.055-.87.497-1.873 1.808-1.873s1.7 1.14 1.7 1.734v.14zM44.843 14.17c-.92 0-1.707.352-2.295 1.288v-1.12h-2.454v1.13h1.007v8.378h-.8v1.132h3.464v-1.132H42.62v-2.382c.416.15.878.215 1.367.215 2.457 0 3.834-1.727 3.834-4.1 0-2.06-1.24-3.41-2.977-3.41zm-.84 6.294c-.58 0-1.064-.11-1.38-.304v-2c0-1.67.606-2.69 1.862-2.69 1.16 0 1.77 1.006 1.77 2.345 0 1.408-.832 2.65-2.253 2.65zm21.228-3.992h1.297v-1.928c-.306-.138-.954-.373-2.044-.373-2.512 0-3.864 1.603-3.864 3.797 0 1.794.98 3.712 3.85 3.712.898 0 1.67-.25 1.96-.373l.083-1.34c-.36.208-1.146.415-1.835.415-1.903 0-2.51-1.324-2.51-2.566 0-1.366.73-2.43 2.152-2.43.345 0 .69.056.91.125v.963zM33.34 17.967c0-2.222-1.09-3.846-3.244-3.846-2.318 0-3.52 1.71-3.52 3.834 0 2.25 1.41 3.763 3.782 3.776 1.077 0 2.03-.29 2.525-.498l.083-1.27c-.62.317-1.408.552-2.305.552-1.42 0-2.44-.948-2.455-2.342h5.134v-.205zm-1.63-.842h-3.505c.055-.87.497-1.873 1.808-1.873 1.312 0 1.698 1.14 1.698 1.734v.14zm16.926 4.388h3.38v-1.13h-.965v-8.687h-2.8v1.132h1.256v7.554h-.87zm-32.904-3.546c0-2.222-1.09-3.846-3.243-3.846-2.32 0-3.52 1.71-3.52 3.834 0 2.25 1.406 3.763 3.78 3.776 1.076 0 2.03-.29 2.525-.498l.083-1.27c-.622.317-1.408.552-2.305.552-1.422 0-2.443-.948-2.457-2.342h5.134v-.205zm-1.628-.842H10.6c.054-.87.496-1.873 1.807-1.873s1.698 1.14 1.698 1.734v.14zm73.71 4.372h3.223v-.617h-1.345l.028-2.48c.028-2.03 1.135-3.6 2.396-3.6.364 0 .616.07.882.183l.112-.7c-.28-.07-.56-.154-1.01-.154-1.302 0-2.065 1.073-2.408 2.132 0 0 .084-1.294.084-1.966H87.66v.616h1.36l-.056 5.967h-1.148v.616z"/><circle fill="#61696E" cx="77.304" cy="20.587" r=".894"/><path fill="#8E969E" d="M110.096 10.136l6.096 7.12-6.15-5.657 2.02 5.087-3.266-5.456-5.27 4.583 4.64-5.373-7.523.695 6.753-1.336-5.817-7.453 6.85 6.678-2.01-6.43 2.777 6.473 6.18-5.49-4.998 5.743 7.487-2.032z"/><path fill="#BED139" d="M109.44 10.297c.003 2.083-.002 9.258-.002 9.258s-6.218-8.795-1-9.738c-1.847.002-9.416 0-9.416 0s8.344-6.486 9.716-.56c-.003-2.082.003-9.257.003-9.257s6.21 8.78 1.015 9.735l9.403.004s-8.345 6.483-9.717.556z"/><defs><path id="ea" d="M109.737 9.502l5.704-2.64s-7 12.734-7 3.242l-5.7 2.64s7-12.734 7-3.242z"/></defs><clipPath id="eb"><use xlink:href="#ea" overflow="visible"/></clipPath><path clip-path="url(#eb)" fill="#A1B960" d="M109.737 9.502l5.704-2.64s-7 12.734-7 3.242l-5.7 2.64s7-12.734 7-3.242z"/><path clip-path="url(#eb)" fill="#849D55" d="M110.096 10.136l6.096 7.12-6.15-5.657 2.02 5.087-3.266-5.456-5.27 4.583 4.64-5.373-7.523.695 6.753-1.336-5.817-7.453 6.85 6.678-2.01-6.43 2.777 6.473 6.18-5.49-4.998 5.743 7.487-2.032z"/><path clip-path="url(#eb)" fill="#8DAD24" d="M109.44 10.297c.003 2.083-.002 9.258-.002 9.258s-6.218-8.795-1-9.738c-1.847.002-9.416 0-9.416 0s8.344-6.486 9.716-.56c-.003-2.082.003-9.257.003-9.257s6.21 8.78 1.015 9.735l9.403.004s-8.345 6.483-9.717.556z"/><path fill-rule="evenodd" clip-rule="evenodd" fill="#61696E" d="M83.108 14.754c1.717 0 2.61 1.307 2.61 3.143s-.894 3.143-2.61 3.143c-1.716 0-2.61-1.307-2.61-3.143s.894-3.143 2.61-3.143zm0 6.864c2.18 0 3.3-1.68 3.3-3.72s-1.12-3.722-3.3-3.722-3.3 1.68-3.3 3.72 1.12 3.722 3.3 3.722z"/><path fill="#61696E" d="M98.223 21.708l-2.046-.308c-.63.112-1.933.546-1.933 1.57 0 .686.896 1.414 2.62 1.414 1.29 0 2.675-.435 2.675-1.57 0-.742-.52-.924-1.318-1.106zm-3.74-5.113c0 1.037.686 2.03 2.143 2.03 1.274 0 2.06-.81 2.06-2.016 0-1.094-.785-1.99-2.144-1.99-1.163 0-2.06.756-2.06 1.974zm4.78.945c-.344.95-1.227 1.704-2.525 1.704-1.163 0-1.71.406-1.71.798 0 .378.435.546 1.178.672l2.325.42c.885.154 1.74.42 1.74 1.625 0 .993-.813 2.24-3.447 2.24-1.863 0-3.306-.646-3.306-1.948 0-.91.91-1.68 1.92-1.835-.477-.112-1.136-.378-1.136-1.08 0-.727.715-1.007 1.29-1.105-.672-.182-1.835-.728-1.835-2.38 0-1.5 1.08-2.705 2.788-2.705.052 0 .103 0 .154.003h3.12v.603H98.4c.63.495.997 1.25.997 2.1 0 .34-.05.633-.135.887z"/></svg><svg width="11.982" height="25" viewBox="0 0 11.982 25" id="facebook" x="402" y="297"><path fill="#808080" d="M11.982 4.167s-2.702.047-3.16.047c-.46 0-1.108.23-1.108 1.21v2.613h3.983l-.455 4.443-3.425.02V25h-5.21V12.5L0 12.48V8.038h2.484V5.16C2.484 3.105 3.517 0 7.817 0h4.163v4.167h.002z"/></svg><svg width="50" height="50" viewBox="0 0 50 50" id="featured" x="414" y="322"><path fill="#44AEE5" d="M46.442 19.72c-.094-.282-.34-.455-.635-.497l-13.828-1.87L25.682 5.08c-.133-.264-.404-.08-.7-.08h-.006c-.298 0-.57-.178-.7.092L18.22 17.354l-13.786 2.06c-.295.045-.54.24-.63.524s-.01.59.205.797L14.09 30.43l-2.23 13.78c-.047.293.076.59.32.764.135.096.294.144.454.144.126 0 .253-.03.37-.093l12.29-6.57 12.41 6.436c.263.14.584.113.825-.064.24-.177.36-.475.307-.768L36.35 30.304l9.9-9.796c.21-.21.286-.508.19-.79zm-21.925-2.786c-.415 1.226-1.075 2.368-1.763 3.16-.345.395-.678.71-.938.92-.255.213-.436.323-.436.323s-.077-.196-.152-.52c-.08-.326-.153-.777-.188-1.302-.07-1.047.096-2.355.508-3.582.41-1.227 1.07-2.37 1.76-3.16.345-.397.678-.71.938-.92.256-.214.438-.323.438-.323s.078.197.153.52c.08.327.155.778.19 1.303.073 1.047-.095 2.356-.51 3.58zm9.728 23.18c-.35-.043-.825-.14-1.36-.3-1.068-.32-2.324-.968-3.42-1.82-1.095-.854-2.032-1.91-2.61-2.865-.287-.48-.5-.916-.63-1.243-.132-.323-.186-.537-.186-.537s.22 0 .565.05c.35.044.824.14 1.358.302 1.068.322 2.325.968 3.422 1.817 1.098.85 2.036 1.904 2.613 2.86.287.48.497.914.627 1.242.133.324.186.54.186.54s-.22 0-.567-.048z"/></svg><svg width="24.307" height="25" viewBox="0 0 24.307 25" id="gplus" x="464" y="372"><path d="M12.82 14.273l-1.173-.91c-.357-.297-.845-.688-.845-1.404 0-.72.488-1.177.912-1.6 1.366-1.076 2.73-2.22 2.73-4.63 0-2.48-1.56-3.784-2.307-4.4h2.016L16.268 0H9.856C8.098 0 5.564.416 3.708 1.948c-1.4 1.207-2.082 2.87-2.082 4.37 0 2.54 1.954 5.118 5.4 5.118.326 0 .682-.032 1.04-.063-.16.39-.324.717-.324 1.27 0 1.01.52 1.63.977 2.217-1.467.102-4.2.263-6.217 1.502C.583 17.502 0 19.165 0 20.337 0 22.75 2.276 25 6.994 25c5.596 0 8.557-3.097 8.557-6.16.004-2.252-1.3-3.36-2.73-4.567zm-4.263-3.75c-2.798 0-4.067-3.62-4.067-5.802 0-.85.16-1.726.714-2.41.522-.654 1.43-1.077 2.28-1.077 2.7 0 4.098 3.65 4.098 6 0 .587-.065 1.628-.812 2.38-.524.523-1.4.91-2.213.91zm.033 13.112c-3.48 0-5.726-1.666-5.726-3.98s2.08-3.098 2.797-3.357c1.367-.46 3.126-.523 3.418-.523.326 0 .488 0 .748.033 2.473 1.76 3.548 2.64 3.548 4.305 0 2.018-1.66 3.522-4.783 3.522zm12.445-13.162v-3.26h-1.61v3.26H16.17V12.1h3.255v3.28h1.61V12.1h3.272v-1.627z" fill="#808080"/></svg><svg width="50" height="50" viewBox="0 0 50 50" id="innovation" x="489" y="397"><path d="M31.125 15.5h5v19h-5zm-8.465 4.07H-.126V30H22.66l6.215 4.017V15.983L22.66 19.57zm-6.545 7.45c-1.168 0-2.114-.948-2.114-2.116 0-1.166.948-2.113 2.116-2.113 1.167 0 2.114.95 2.114 2.115 0 1.167-.947 2.115-2.115 2.115zm22.01-3.52h12v3h-12zm0-6.288v3.195l12-4.4v-3.195zm0 11.912v3.31l12 5.56v-3.308z" fill="#44AEE5"/></svg><svg width="91" height="86" viewBox="0 0 91 86" id="innovation_flag" x="539" y="447"><path fill="#0071BC" d="M70 86V64h21"/><path fill="#44AEE5" d="M0 0h91v64H0z"/><path d="M51.812 21.8h5v19h-5zm-8.466 4.067H20.562v10.43h22.784l6.216 4.018V22.28l-6.216 3.587zm-6.543 7.45c-1.168 0-2.114-.948-2.114-2.116 0-1.164.944-2.11 2.112-2.11 1.167 0 2.114.946 2.114 2.112 0 1.17-.947 2.116-2.114 2.116zm22.01-3.517h12v3h-12zM59 23.51v3.195l12-4.398V19.11zm0 11.912v3.308l12 5.563v-3.31z" fill="#fff"/></svg><svg version="1" width="32" height="25" viewBox="0 11.965 32 25" enable-background="new 0 11.965 32 25" id="newsletter" x="630" y="533"><path d="M15.972 27.225l-14.53-12.76H30.5zm-5.788-2.765L0 33.403V15.518zm1.32 1.16l4.47 3.924 4.466-3.924 10.072 8.845H1.432zm10.256-1.16l10.184-8.942v17.885z" fill="#808080"/></svg><svg width="50" height="50" viewBox="0 0 50 50" id="publikumspreis" x="662" y="558"><path fill="#44AEE5" d="M19.705 22.223c.488-.45.603-.752 1.004-1.28 1.59-2.086 2.903-4.345 4.06-6.698.09-.188.133-.368.124-.578-.024-.504-.012-1.012-.022-1.52-.02-1.162-.03-2.325-.046-3.49 0-.083.02-.153.068-.225.52-.76 1.23-1.227 2.126-1.427.247-.056.498-.07.747-.097h.303c.137.01.274.02.41.037.608.073 1.19.23 1.728.537.184.104.33.245.437.434.662 1.133 1.215 2.314 1.64 3.56.383 1.112.63 2.248.546 3.44-.047.685-.123 1.363-.254 2.033-.168.87-.41 1.72-.617 2.582-.047.19-.047.19.15.19 3.31 0 6.616.002 9.924 0 .486 0 .935.118 1.352.36 1.355.793 1.96 2.513 1.418 4.012-.256.705-.697 1.28-1.248 1.775-.067.06-.076.104-.032.184.306.575.407 1.185.3 1.825-.148.892-.597 1.62-1.254 2.23-.098.087-.12.162-.082.29.18.6.25 1.213.15 1.84-.137.865-.548 1.582-1.204 2.16-.067.06-.083.11-.062.197.218.868.214 1.732-.104 2.583-.336.9-.934 1.59-1.736 2.105-.667.428-1.39.7-2.193.7H22.16c-.175 0-.347-.02-.514-.07-.61-.188-1.117-.53-1.56-.98-.03-.03-.052-.07-.127-.095 0 .26 0 .5-.003.74-.003.182-.002.365-.028.54-.086.536-.628.97-1.193.97h-11.2c-.054 0-.108-.002-.16-.01-.54-.08-1.064-.613-1.15-1.184-.04-.26-.047-.525-.068-.792-.048-.58-.093-1.16-.138-1.743-.036-.467-.07-.934-.107-1.402-.045-.573-.09-1.15-.133-1.725-.036-.47-.07-.942-.108-1.414-.043-.575-.09-1.148-.134-1.727l-.105-1.412c-.045-.57-.092-1.14-.135-1.712-.036-.476-.07-.954-.107-1.434l-.136-1.765c-.02-.2-.04-.405-.057-.61v-.925c.016-.035.03-.067.05-.1.302-.56.735-.912 1.403-.908.795.008 1.59.007 2.385.01 2.193.012 4.387.007 6.58.01l4.287-.023zm10.262 16.163v.007c2.495 0 4.99-.002 7.487.002.207 0 .397-.043.58-.136.605-.305 1.11-.73 1.504-1.278.234-.324.398-.68.418-1.084.028-.535-.207-.953-.592-1.3-.2-.183-.25-.415-.13-.652.043-.084.103-.146.2-.166.106-.024.205-.064.3-.115.617-.34 1.03-.855 1.27-1.504.276-.742.105-1.37-.485-1.897-.26-.233-.185-.647.145-.795.414-.185.778-.438 1.075-.78.418-.485.6-1.045.49-1.68-.08-.45-.27-.854-.608-1.177-.208-.2-.135-.575.13-.65.217-.064.415-.168.606-.287.772-.484 1.188-1.365 1.04-2.23-.15-.872-.83-1.36-1.537-1.37-1.55-.022-3.104-.006-4.657-.006-2.335 0-4.67 0-7.005-.002-.13 0-.133-.01-.106-.135l.01-.038c.365-1.63.712-3.264.932-4.92.076-.578.124-1.16.147-1.744.02-.508-.083-1-.21-1.488-.36-1.382-.896-2.697-1.5-3.987-.026-.058-.065-.1-.12-.132-.44-.286-.922-.41-1.45-.38-.44.023-.84.152-1.21.395-.11.072-.152.15-.152.285.004 1.672.002 3.342.003 5.012 0 .09-.01.172-.05.252-.524 1.014-1.064 2.02-1.635 3.007-1.18 2.038-2.477 3.997-3.944 5.843-.063.08-.14.145-.22.202-.613.418-1.22.805-1.836 1.22-.117.08-.16.162-.16.302.003 3.993.002 8.02.003 12.013v.1c-.003.067.03.095.098.097.314.002.63.028.945.005.272-.018.504.036.738.186.48.31.98.593 1.488.86.11.058.224.108.352.112.208.006.416.015.624.017.822.01 1.644.013 2.466.02 1.518.007 3.04 0 4.56 0z"/><circle fill="#fff" cx="14.274" cy="36.616" r="1.647"/></svg><svg width="91" height="86" viewBox="0 0 91 86" id="publikumspreis_flag" x="712" y="608"><path fill="#44AEE5" d="M0 0h91v64H0z"/><path fill="#0071BC" d="M70 86V64h21"/><path fill="#fff" d="M62.35 38.213l-7.556-7.555 2.14-2.09-3.05-3.048 1.403-1.463 3.05 3.05 4.062-4.064-8.133-8.13-7.61 7.61-4.675-4.676c-.143-.144-.332-.213-.527-.244l.005-.025-12.3-2.064 2.14 12.234.017-.002c.033.188.105.372.252.518l4.672 4.674-7.375 7.376 8.13 8.13 4.063-4.064-3.047-3.05 1.474-1.457 3.048 3.05 1.84-1.853 7.56 7.56c.18.182.426.283.682.283s.5-.102.682-.282l9.05-9.05c.376-.38.376-.99 0-1.366zM41.3 19.893l3.994 3.994 5.08 5.08 9.928 9.93-1.597 1.597-6.88-6.88-8.128-8.13-3.993-3.993 1.597-1.595zM55.51 43.69l-6.88-6.88-8.13-8.127-3.993-3.993 1.834-1.835 3.995 3.993 8.13 8.13 6.878 6.88-1.833 1.833zM33.58 18.05l5.715 1.12-6.414 6.416-1.1-5.666 1.8-1.87zm.035 9.532l1.528-1.53 3.993 3.994 8.13 8.13 6.88 6.88-1.528 1.527-9.93-9.93-5.08-5.08-3.993-3.99z"/></svg><svg width="50" height="50" viewBox="0 0 50 50" id="sonderpreis" x="803" y="694"><path d="M20.164 31.398l-1.71-3.226-5.18 14.227 5.468-2.426 2.49 5.314 2.96-8.137-2.387-6.56zm9.276 0l-4.638-2.27-1.435.702 5.626 15.46 2.49-5.315.09.04L36.95 42.4l-5.43-14.923zm-14.23-11.16l-.605 4.29 4.27.75 2.032 3.83 3.895-1.906 3.895 1.905 2.032-3.83 1.635-.287 2.632-.46-.606-4.293 3.015-3.117-3.014-3.116.607-4.29-4.27-.75-2.032-3.83L24.8 7.036l-3.894-1.904-2.032 3.83-.048.01-4.222.74.606 4.29-3.014 3.117 3.015 3.116zm9.592-9.795c3.676 0 6.667 2.99 6.667 6.667 0 1.46-.49 2.862-1.415 4.058-.393.51-.843.95-1.337 1.312-.99.725-2.177 1.156-3.43 1.248-.062.005-.123.014-.183.02-.098.015-.198.028-.305.028-.468 0-.943-.055-1.452-.17-3.02-.675-5.215-3.408-5.215-6.497 0-3.677 2.99-6.668 6.667-6.668zm0 11.607c2.724 0 4.94-2.217 4.94-4.94s-2.216-4.937-4.94-4.937c-2.723 0-4.938 2.215-4.938 4.938s2.215 4.94 4.938 4.94z" fill="#44AEE5"/></svg><svg width="91" height="86" viewBox="0 0 91 86" id="sonderpreis_flag" x="853" y="744"><path fill="#44AEE5" d="M0 0h91v64H0z"/><path fill="#0071BC" d="M70 86V64h21"/><path fill="#fff" d="M62.35 38.213l-7.556-7.555 2.14-2.09-3.05-3.048 1.403-1.463 3.05 3.05 4.062-4.064-8.133-8.13-7.61 7.61-4.675-4.676c-.143-.144-.332-.213-.527-.244l.005-.025-12.3-2.064 2.14 12.234.017-.002c.033.188.105.372.252.518l4.672 4.674-7.375 7.376 8.13 8.13 4.063-4.064-3.047-3.05 1.474-1.457 3.048 3.05 1.84-1.853 7.56 7.56c.18.182.426.283.682.283s.5-.102.682-.282l9.05-9.05c.376-.38.376-.99 0-1.366zM41.3 19.893l3.994 3.994 5.08 5.08 9.928 9.93-1.597 1.597-6.88-6.88-8.128-8.13-3.993-3.993 1.597-1.595zM55.51 43.69l-6.88-6.88-8.13-8.127-3.993-3.993 1.834-1.835 3.995 3.993 8.13 8.13 6.878 6.88-1.833 1.833zM33.58 18.05l5.715 1.12-6.414 6.416-1.1-5.666 1.8-1.87zm.035 9.532l1.528-1.53 3.993 3.994 8.13 8.13 6.88 6.88-1.528 1.527-9.93-9.93-5.08-5.08-3.993-3.99z"/></svg><svg version="1.2" baseProfile="tiny" width="24" height="24" viewBox="0 0 24 24" id="star-full-outline" x="944" y="830"><path d="M3.1 11.3l3.6 3.3-1 4.6c-.1.6.1 1.2.6 1.5.2.2.5.3.8.3.2 0 .4 0 .6-.1 0 0 .1 0 .1-.1l4.1-2.3 4.1 2.3s.1 0 .1.1c.5.2 1.1.2 1.5-.1.5-.3.7-.9.6-1.5l-1-4.6c.4-.3 1-.9 1.6-1.5l1.9-1.7.1-.1c.4-.4.5-1 .3-1.5s-.6-.9-1.2-1h-.1l-4.7-.5-1.9-4.3s0-.1-.1-.1c-.1-.7-.6-1-1.1-1-.5 0-1 .3-1.3.8 0 0 0 .1-.1.1L8.7 8.2 4 8.7h-.1c-.5.1-1 .5-1.2 1-.1.6 0 1.2.4 1.6z"/></svg><svg width="31.25" height="25" viewBox="0 0 31.25 25" id="twitter" x="968" y="854"><path fill="#808080" d="M31.25 2.96c-.86 1.262-1.946 2.375-3.196 3.263.012.274.02.547.02.82C28.074 15.38 21.618 25 9.826 25c-3.62 0-6.99-1.044-9.827-2.83.5.057 1.01.082 1.527.082 3.005 0 5.767-1.008 7.964-2.7-2.803-.05-5.17-1.876-5.992-4.382.39.075.795.11 1.21.11.583 0 1.15-.073 1.69-.223-2.94-.577-5.15-3.126-5.15-6.186v-.08c.866.475 1.858.76 2.907.793-1.72-1.134-2.85-3.066-2.85-5.254 0-1.157.317-2.24.866-3.17 3.166 3.815 7.89 6.327 13.22 6.59-.11-.46-.165-.94-.165-1.44 0-3.486 2.868-6.31 6.41-6.31 1.845 0 3.514.766 4.68 1.99 1.46-.28 2.83-.81 4.075-1.53-.48 1.475-1.498 2.713-2.822 3.496 1.298-.156 2.53-.492 3.68-.996z"/></svg><svg width="50" height="50" viewBox="0 0 50 50" id="weltverbessern" x="1000" y="879"><path fill="#44AEE5" d="M38.125 13v-3h-11v3h-4v-3h-12v3h-3v12h3v4h4v3h4v4h4v4h4v-4h4v-4h4v-3h3v-4h4V13h-4zM23.853 35.165L13.017 24.618l1.71-1.756L25.563 33.41l-1.71 1.755z"/></svg><svg width="91" height="86" viewBox="0 0 91 86" id="weltverbessern_flag" x="1050" y="929"><path fill="#44AEE5" d="M0 0h91v64H0z"/><path fill="#0071BC" d="M70 86V64h21"/><path fill="#fff" d="M58.5 20.27v-3.75H46.875v3.75h-3.75v-3.75H31.5v3.75h-3.376v11.25H31.5v4.126h3.75v3.375H39v4.127h3.75v3.375h4.5v-3.374H51V39.02h3.75v-3.374h3.75V31.52h3.374V20.27"/><path stroke="#44AEE5" stroke-width="2.451" stroke-miterlimit="10" fill="none" d="M33.664 29.887L44.5 40.434"/></svg></svg>