<svg 
	width	= "35" 		
	height	= "35" 		
	viewBox	= "0 0 35 35"			
	id 		= "instagram" 	
	x		= "0" 	
	y		= "0" 
	version	= "1.1" 
	xmlns	= "http://www.w3.org/2000/svg"
	xmlns:xlink="http://www.w3.org/1999/xlink"
>
	<g
		id="g4402"
	 	transform="matrix(0.06351695,0,0,0.06351695,1.9159131e-8,9.7449864)"
	 >
		<path
			 d="m 386.878,-153.4234 -222.722,0 c -34.65384,0 -66.834124,10.7936 -93.355544,29.1955 C 28.047785,-94.564 -3.0163804e-7,-45.1295 -3.0163804e-7,10.7326 l 0,222.722 C -3.0163804e-7,323.9706 73.64,397.6106 164.156,397.6106 l 222.722,0 c 90.516,0 164.156,-73.64 164.156,-164.156 l 0,-222.722 c -10e-4,-90.516 -73.641,-164.156 -164.156,-164.156 z M 495.6,233.4546 c 0,60.045 -48.677,108.722 -108.722,108.722 l -222.722,0 c -60.045,0 -108.722,-48.677 -108.722,-108.722 l 0,-222.722 c 0,-60.046 48.677,-108.722 108.722,-108.722 l 222.722,0 c 60.045,0 108.722,48.676 108.722,108.722 l 0,222.722 z"
			 style="fill:#808080;fill-opacity:1"
			 id="XMLID_17_" />
		<path
			 d="m 275.517,-20.4234 c -78.584,0 -142.517,63.933 -142.517,142.516 0,78.583 63.933,142.517 142.517,142.517 78.584,0 142.517,-63.933 142.517,-142.517 0,-78.584 -63.933,-142.516 -142.517,-142.516 z m 0,229.6 c -48.095,0 -87.083,-38.988 -87.083,-87.083 0,-48.095 38.989,-87.083 87.083,-87.083 48.095,0 87.083,38.988 87.083,87.083 0,48.094 -38.989,87.083 -87.083,87.083 z"
			 style="fill:#808080;fill-opacity:1"
			 id="XMLID_81_" />
		<circle
			 r="34.148998"
			 cy="-19.351074"
			 cx="418.306"
			 style="fill:#808080;fill-opacity:1"
			 id="XMLID_83_" />
	</g>
</svg>