<?xml version="1.0" encoding="utf-8"?><svg width="1100" height="973" viewBox="0 0 1100 973" xmlns="http://www.w3.org/2000/svg" xmlns:xlink="http://www.w3.org/1999/xlink"><svg width="50" height="50" viewBox="0 0 50 50" id="bestercode"><path d="M26.125 44.66l7-4.075v-8.15l-7 4.086zm-9-4.022l7 4.02V36.5l-7-4.03zm8.118-13.823l-6.98 4.03 6.935 4 7.007-4.04zm6.962-16.683l-6.962-3.988-6.98 4.027 6.935 4.004zm-8.08 6.788l-7 4.087v8.14l7-4.077zm-16 8.202l7 4.02v-8.156l-7-4.03zm0 10.52l7 4.02v-8.157l-7-4.03zM16.082 11.3l-6.98 4.028 6.936 4.002 7.007-4.04zm17.043 9.707l-7-4.088v8.15l7 4.075zm9-4.05l-7 4.03v8.156l7-4.02zm-7 22.703l7-4.018v-8.166l-7 4.03zM34.29 11.3l-6.958 3.99 7.004 4.04 6.937-4.002z" fill="#44AEE5"/></svg><svg width="91" height="86" viewBox="0 0 91 86" id="bestercode_flag" x="50" y="50"><path fill="#44AEE5" d="M0 0h91v64H0z"/><path fill="#0071BC" d="M70 86V64h21"/><path d="M46 50.66l7-4.075v-8.15l-7 4.086zm-9-4.022l7 4.02V42.5l-7-4.03zm8.118-13.823l-6.98 4.03 6.935 4 7.007-4.04zm6.962-16.683l-6.962-3.988-6.98 4.027 6.935 4.004zM44 22.92l-7 4.087v8.14l7-4.077zm-16 8.202l7 4.02v-8.156l-7-4.03zm0 10.52l7 4.02v-8.157l-7-4.03zM35.957 17.3l-6.98 4.028 6.936 4.002 7.007-4.04zM53 27.007l-7-4.088v8.15l7 4.075zm9-4.05l-7 4.03v8.156l7-4.02zM55 45.66l7-4.018v-8.166l-7 4.03zm-.834-28.36l-6.96 3.99 7.005 4.04 6.94-4.002z" fill="#fff"/></svg><svg width="50" height="50" viewBox="0 0 50 50" id="bestesdesign" x="141" y="136"><path fill="#44AEE5" d="M41.475 31.3l-7.556-7.554 2.14-2.09-3.05-3.048 1.4-1.463 3.05 3.05 4.063-4.064L33.393 8l-7.61 7.61-4.674-4.675c-.145-.144-.334-.213-.53-.244l.006-.023-12.3-2.064 2.14 12.234.016-.002c.033.188.105.372.252.518l4.674 4.674-7.376 7.376 8.13 8.13 4.063-4.064-3.048-3.05 1.473-1.458 3.048 3.05 1.84-1.852 7.56 7.56c.18.18.427.282.683.282s.5-.102.683-.282l9.05-9.052c.377-.377.377-.988 0-1.365zm-21.05-18.32l3.994 3.994 5.08 5.08 9.926 9.93-1.597 1.597-6.88-6.88-8.13-8.13-3.992-3.99 1.596-1.598zm14.21 23.8l-6.88-6.882-8.13-8.13-3.993-3.992 1.834-1.834 3.993 3.993 8.127 8.13 6.88 6.88-1.834 1.834zm-21.93-25.642l5.715 1.12-6.414 6.416-1.1-5.666 1.8-1.87zm.035 9.532l1.528-1.53 3.993 3.994 8.13 8.13 6.88 6.88-1.526 1.527-9.93-9.927-5.08-5.08-3.993-3.992z"/></svg><svg width="91" height="86" viewBox="0 0 91 86" id="bestesdesign_flag" x="191" y="186"><path fill="#44AEE5" d="M0 0h91v64H0z"/><path fill="#0071BC" d="M70 86V64h21"/><path fill="#fff" d="M62.35 38.213l-7.556-7.555 2.14-2.09-3.05-3.048 1.403-1.463 3.05 3.05 4.062-4.064-8.133-8.13-7.61 7.61-4.675-4.676c-.143-.144-.332-.213-.527-.244l.005-.025-12.3-2.064 2.14 12.234.017-.002c.033.188.105.372.252.518l4.672 4.674-7.375 7.376 8.13 8.13 4.063-4.064-3.047-3.05 1.474-1.457 3.048 3.05 1.84-1.853 7.56 7.56c.18.182.426.283.682.283s.5-.102.682-.282l9.05-9.05c.376-.38.376-.99 0-1.366zM41.3 19.893l3.994 3.994 5.08 5.08 9.928 9.93-1.597 1.597-6.88-6.88-8.128-8.13-3.993-3.993 1.597-1.595zM55.51 43.69l-6.88-6.88-8.13-8.127-3.993-3.993 1.834-1.835 3.995 3.993 8.13 8.13 6.878 6.88-1.833 1.833zM33.58 18.05l5.715 1.12-6.414 6.416-1.1-5.666 1.8-1.87zm.035 9.532l1.528-1.53 3.993 3.994 8.13 8.13 6.88 6.88-1.528 1.527-9.93-9.93-5.08-5.08-3.993-3.99z"/></svg><svg version="1" width="119.156" height="25" viewBox="0 0 119.156 25" id="betterplace" x="282" y="272"><path fill-rule="evenodd" clip-rule="evenodd" fill="#61696E" d="M34.445 21.513v-1.13h.87V15.47h-1.09v-1.134h2.55c0 .54-.054 1.41-.054 1.41.39-1.244 1.235-1.548 2.218-1.548.216 0 .43.03.58.062l-.17 1.413c-.145-.036-.306-.056-.53-.056-1.365 0-1.958 1.178-1.958 2.526v2.235h1.048v1.132h-3.463zm24.542-1.13v-3.465c0-1.756-.785-2.747-2.953-2.747-1.532 0-2.507.47-2.894.65v1.68h1.38v-.947c.235-.096.81-.248 1.348-.248 1.27 0 1.61.62 1.61 1.504v.234c-3.048 0-4.642.82-4.642 2.58 0 .912.616 2.057 2.34 2.057 1.427 0 2.187-.853 2.406-1.222-.04.32-.063.824-.063 1.057h2.376v-1.13l-.91-.002zm-1.51-1.74c0 .91-.698 1.82-1.898 1.82-.733 0-1.198-.427-1.198-.965 0-1.062 1.495-1.435 3.096-1.45l-.002.596zM5.05 14.17c-1.107 0-2.016.553-2.348 1.213.002.002.002-3.688.002-3.688H0v1.132h1.158v8.305c.7.274 1.498.546 2.746.546 3.09 0 4.027-2.11 4.027-4.25.004-1.852-1-3.257-2.88-3.257zm-.965 6.212c-.672 0-1.092-.15-1.38-.285v-2.572c.027-1.145.663-2.056 1.877-2.056 1.173 0 1.783.812 1.783 2.07 0 1.49-.652 2.84-2.28 2.84zm17.372-4.912h1.076v4.028c0 1.615.633 2.208 2.06 2.208.608 0 1.15-.166 1.538-.36l.057-1.13c-.345.138-.736.276-1.15.276-.717 0-.957-.333-.957-1.644v-3.38h1.904v-1.132H24.08v-1.46l-1.547.11v1.35h-1.076v1.133zm-5.037 0h1.076v4.028c0 1.615.633 2.208 2.06 2.208.608 0 1.15-.166 1.538-.36l.055-1.13c-.347.138-.738.276-1.15.276-.72 0-.96-.333-.96-1.644v-3.38h1.906v-1.132H19.04v-1.46l-1.544.11v1.35H16.42v1.133zm57.767 2.497c0-2.222-1.09-3.846-3.243-3.846-2.318 0-3.52 1.71-3.52 3.834 0 2.25 1.408 3.763 3.782 3.776 1.076 0 2.03-.29 2.525-.498l.085-1.27c-.62.317-1.407.552-2.305.552-1.422 0-2.443-.948-2.457-2.342h5.134v-.205zm-1.628-.842h-3.507c.055-.87.497-1.873 1.808-1.873s1.7 1.14 1.7 1.734v.14zM44.843 14.17c-.92 0-1.707.352-2.295 1.288v-1.12h-2.454v1.13h1.007v8.378h-.8v1.132h3.464v-1.132H42.62v-2.382c.416.15.878.215 1.367.215 2.457 0 3.834-1.727 3.834-4.1 0-2.06-1.24-3.41-2.977-3.41zm-.84 6.294c-.58 0-1.064-.11-1.38-.304v-2c0-1.67.606-2.69 1.862-2.69 1.16 0 1.77 1.006 1.77 2.345 0 1.408-.832 2.65-2.253 2.65zm21.228-3.992h1.297v-1.928c-.306-.138-.954-.373-2.044-.373-2.512 0-3.864 1.603-3.864 3.797 0 1.794.98 3.712 3.85 3.712.898 0 1.67-.25 1.96-.373l.083-1.34c-.36.208-1.146.415-1.835.415-1.903 0-2.51-1.324-2.51-2.566 0-1.366.73-2.43 2.152-2.43.345 0 .69.056.91.125v.963zM33.34 17.967c0-2.222-1.09-3.846-3.244-3.846-2.318 0-3.52 1.71-3.52 3.834 0 2.25 1.41 3.763 3.782 3.776 1.077 0 2.03-.29 2.525-.498l.083-1.27c-.62.317-1.408.552-2.305.552-1.42 0-2.44-.948-2.455-2.342h5.134v-.205zm-1.63-.842h-3.505c.055-.87.497-1.873 1.808-1.873 1.312 0 1.698 1.14 1.698 1.734v.14zm16.926 4.388h3.38v-1.13h-.965v-8.687h-2.8v1.132h1.256v7.554h-.87zm-32.904-3.546c0-2.222-1.09-3.846-3.243-3.846-2.32 0-3.52 1.71-3.52 3.834 0 2.25 1.406 3.763 3.78 3.776 1.076 0 2.03-.29 2.525-.498l.083-1.27c-.622.317-1.408.552-2.305.552-1.422 0-2.443-.948-2.457-2.342h5.134v-.205zm-1.628-.842H10.6c.054-.87.496-1.873 1.807-1.873s1.698 1.14 1.698 1.734v.14zm73.71 4.372h3.223v-.617h-1.345l.028-2.48c.028-2.03 1.135-3.6 2.396-3.6.364 0 .616.07.882.183l.112-.7c-.28-.07-.56-.154-1.01-.154-1.302 0-2.065 1.073-2.408 2.132 0 0 .084-1.294.084-1.966H87.66v.616h1.36l-.056 5.967h-1.148v.616z"/><circle fill="#61696E" cx="77.304" cy="20.587" r=".894"/><path fill="#8E969E" d="M110.096 10.136l6.096 7.12-6.15-5.657 2.02 5.087-3.266-5.456-5.27 4.583 4.64-5.373-7.523.695 6.753-1.336-5.817-7.453 6.85 6.678-2.01-6.43 2.777 6.473 6.18-5.49-4.998 5.743 7.487-2.032z"/><path fill="#BED139" d="M109.44 10.297c.003 2.083-.002 9.258-.002 9.258s-6.218-8.795-1-9.738c-1.847.002-9.416 0-9.416 0s8.344-6.486 9.716-.56c-.003-2.082.003-9.257.003-9.257s6.21 8.78 1.015 9.735l9.403.004s-8.345 6.483-9.717.556z"/><defs><path id="ea" d="M109.737 9.502l5.704-2.64s-7 12.734-7 3.242l-5.7 2.64s7-12.734 7-3.242z"/></defs><clipPath id="eb"><use xlink:href="#ea" overflow="visible"/></clipPath><path clip-path="url(#eb)" fill="#A1B960" d="M109.737 9.502l5.704-2.64s-7 12.734-7 3.242l-5.7 2.64s7-12.734 7-3.242z"/><path clip-path="url(#eb)" fill="#849D55" d="M110.096 10.136l6.096 7.12-6.15-5.657 2.02 5.087-3.266-5.456-5.27 4.583 4.64-5.373-7.523.695 6.753-1.336-5.817-7.453 6.85 6.678-2.01-6.43 2.777 6.473 6.18-5.49-4.998 5.743 7.487-2.032z"/><path clip-path="url(#eb)" fill="#8DAD24" d="M109.44 10.297c.003 2.083-.002 9.258-.002 9.258s-6.218-8.795-1-9.738c-1.847.002-9.416 0-9.416 0s8.344-6.486 9.716-.56c-.003-2.082.003-9.257.003-9.257s6.21 8.78 1.015 9.735l9.403.004s-8.345 6.483-9.717.556z"/><path fill-rule="evenodd" clip-rule="evenodd" fill="#61696E" d="M83.108 14.754c1.717 0 2.61 1.307 2.61 3.143s-.894 3.143-2.61 3.143c-1.716 0-2.61-1.307-2.61-3.143s.894-3.143 2.61-3.143zm0 6.864c2.18 0 3.3-1.68 3.3-3.72s-1.12-3.722-3.3-3.722-3.3 1.68-3.3 3.72 1.12 3.722 3.3 3.722z"/><path fill="#61696E" d="M98.223 21.708l-2.046-.308c-.63.112-1.933.546-1.933 1.57 0 .686.896 1.414 2.62 1.414 1.29 0 2.675-.435 2.675-1.57 0-.742-.52-.924-1.318-1.106zm-3.74-5.113c0 1.037.686 2.03 2.143 2.03 1.274 0 2.06-.81 2.06-2.016 0-1.094-.785-1.99-2.144-1.99-1.163 0-2.06.756-2.06 1.974zm4.78.945c-.344.95-1.227 1.704-2.525 1.704-1.163 0-1.71.406-1.71.798 0 .378.435.546 1.178.672l2.325.42c.885.154 1.74.42 1.74 1.625 0 .993-.813 2.24-3.447 2.24-1.863 0-3.306-.646-3.306-1.948 0-.91.91-1.68 1.92-1.835-.477-.112-1.136-.378-1.136-1.08 0-.727.715-1.007 1.29-1.105-.672-.182-1.835-.728-1.835-2.38 0-1.5 1.08-2.705 2.788-2.705.052 0 .103 0 .154.003h3.12v.603H98.4c.63.495.997 1.25.997 2.1 0 .34-.05.633-.135.887z"/></svg><svg width="11.982" height="25" viewBox="0 0 11.982 25" id="facebook" x="402" y="297"><path fill="#808080" d="M11.982 4.167s-2.702.047-3.16.047c-.46 0-1.108.23-1.108 1.21v2.613h3.983l-.455 4.443-3.425.02V25h-5.21V12.5L0 12.48V8.038h2.484V5.16C2.484 3.105 3.517 0 7.817 0h4.163v4.167h.002z"/></svg><svg width="32.966" height="31.012" viewBox="0 0 32.966 31.012" id="featured" x="414" y="322"><path fill="#44AEE5" d="M32.934 11.41c-.072-.218-.262-.352-.49-.384L21.772 9.582 16.912.11c-.102-.204-.31-.062-.538-.062h-.004c-.23 0-.44-.137-.54.07l-4.678 9.464-10.64 1.59c-.228.035-.415.184-.484.405-.07.22-.01.455.157.615l7.783 7.48-1.722 10.64c-.034.226.06.455.246.59.105.073.228.11.353.11.097 0 .194-.02.284-.07l9.484-5.072 9.577 4.967c.206.108.45.088.64-.05.184-.136.275-.365.236-.59l-1.92-10.617 7.64-7.56c.162-.164.222-.394.147-.61zm-16.92-2.152c-.32.947-.83 1.828-1.36 2.438-.267.307-.523.55-.724.712-.2.164-.338.25-.338.25s-.06-.152-.116-.403c-.062-.25-.12-.598-.146-1.003-.055-.808.075-1.817.392-2.765.318-.947.825-1.83 1.356-2.44.27-.305.525-.546.726-.71.197-.163.338-.248.338-.248s.06.15.12.4.118.6.145 1.005c.057.806-.075 1.817-.393 2.762zM23.52 27.15c-.27-.035-.636-.11-1.05-.232-.824-.248-1.793-.748-2.64-1.405-.844-.66-1.567-1.476-2.014-2.212-.22-.367-.385-.703-.486-.955-.103-.25-.143-.414-.143-.414s.17 0 .437.038c.27.033.637.11 1.05.234.823.247 1.793.747 2.64 1.403.848.656 1.57 1.47 2.017 2.208.226.37.388.707.486.96.103.25.145.415.145.415s-.17.003-.44-.035z"/></svg><svg width="24.307" height="25" viewBox="0 0 24.307 25" id="gplus" x="447" y="354"><path d="M12.82 14.273l-1.173-.91c-.357-.297-.845-.688-.845-1.404 0-.72.488-1.177.912-1.6 1.366-1.076 2.73-2.22 2.73-4.63 0-2.48-1.56-3.784-2.307-4.4h2.016L16.268 0H9.856C8.098 0 5.564.416 3.708 1.948c-1.4 1.207-2.082 2.87-2.082 4.37 0 2.54 1.954 5.118 5.4 5.118.326 0 .682-.032 1.04-.063-.16.39-.324.717-.324 1.27 0 1.01.52 1.63.977 2.217-1.467.102-4.2.263-6.217 1.502C.583 17.502 0 19.165 0 20.337 0 22.75 2.276 25 6.994 25c5.596 0 8.557-3.097 8.557-6.16.004-2.252-1.3-3.36-2.73-4.567zm-4.263-3.75c-2.798 0-4.067-3.62-4.067-5.802 0-.85.16-1.726.714-2.41.522-.654 1.43-1.077 2.28-1.077 2.7 0 4.098 3.65 4.098 6 0 .587-.065 1.628-.812 2.38-.524.523-1.4.91-2.213.91zm.033 13.112c-3.48 0-5.726-1.666-5.726-3.98s2.08-3.098 2.797-3.357c1.367-.46 3.126-.523 3.418-.523.326 0 .488 0 .748.033 2.473 1.76 3.548 2.64 3.548 4.305 0 2.018-1.66 3.522-4.783 3.522zm12.445-13.162v-3.26h-1.61v3.26H16.17V12.1h3.255v3.28h1.61V12.1h3.272v-1.627z" fill="#808080"/></svg><svg width="50" height="50" viewBox="0 0 50 50" id="innovation" x="472" y="379"><path d="M31.125 15.5h5v19h-5zm-8.465 4.07H-.126V30H22.66l6.215 4.017V15.983L22.66 19.57zm-6.545 7.45c-1.168 0-2.114-.948-2.114-2.116 0-1.166.948-2.113 2.116-2.113 1.167 0 2.114.95 2.114 2.115 0 1.167-.947 2.115-2.115 2.115zm22.01-3.52h12v3h-12zm0-6.288v3.195l12-4.4v-3.195zm0 11.912v3.31l12 5.56v-3.308z" fill="#44AEE5"/></svg><svg width="91" height="86" viewBox="0 0 91 86" id="innovation_flag" x="522" y="429"><path fill="#0071BC" d="M70 86V64h21"/><path fill="#44AEE5" d="M0 0h91v64H0z"/><path d="M51.812 21.8h5v19h-5zm-8.466 4.067H20.562v10.43h22.784l6.216 4.018V22.28l-6.216 3.587zm-6.543 7.45c-1.168 0-2.114-.948-2.114-2.116 0-1.164.944-2.11 2.112-2.11 1.167 0 2.114.946 2.114 2.112 0 1.17-.947 2.116-2.114 2.116zm22.01-3.517h12v3h-12zM59 23.51v3.195l12-4.398V19.11zm0 11.912v3.308l12 5.563v-3.31z" fill="#fff"/></svg><svg version="1" width="32" height="25" viewBox="0 11.965 32 25" enable-background="new 0 11.965 32 25" id="newsletter" x="613" y="515"><path d="M15.972 27.225l-14.53-12.76H30.5zm-5.788-2.765L0 33.403V15.518zm1.32 1.16l4.47 3.924 4.466-3.924 10.072 8.845H1.432zm10.256-1.16l10.184-8.942v17.885z" fill="#808080"/></svg><svg width="50" height="50" viewBox="0 0 50 50" id="publikumspreis" x="645" y="540"><path fill="#44AEE5" d="M19.705 22.223c.488-.45.603-.752 1.004-1.28 1.59-2.086 2.903-4.345 4.06-6.698.09-.188.133-.368.124-.578-.024-.504-.012-1.012-.022-1.52-.02-1.162-.03-2.325-.046-3.49 0-.083.02-.153.068-.225.52-.76 1.23-1.227 2.126-1.427.247-.056.498-.07.747-.097h.303c.137.01.274.02.41.037.608.073 1.19.23 1.728.537.184.104.33.245.437.434.662 1.133 1.215 2.314 1.64 3.56.383 1.112.63 2.248.546 3.44-.047.685-.123 1.363-.254 2.033-.168.87-.41 1.72-.617 2.582-.047.19-.047.19.15.19 3.31 0 6.616.002 9.924 0 .486 0 .935.118 1.352.36 1.355.793 1.96 2.513 1.418 4.012-.256.705-.697 1.28-1.248 1.775-.067.06-.076.104-.032.184.306.575.407 1.185.3 1.825-.148.892-.597 1.62-1.254 2.23-.098.087-.12.162-.082.29.18.6.25 1.213.15 1.84-.137.865-.548 1.582-1.204 2.16-.067.06-.083.11-.062.197.218.868.214 1.732-.104 2.583-.336.9-.934 1.59-1.736 2.105-.667.428-1.39.7-2.193.7H22.16c-.175 0-.347-.02-.514-.07-.61-.188-1.117-.53-1.56-.98-.03-.03-.052-.07-.127-.095 0 .26 0 .5-.003.74-.003.182-.002.365-.028.54-.086.536-.628.97-1.193.97h-11.2c-.054 0-.108-.002-.16-.01-.54-.08-1.064-.613-1.15-1.184-.04-.26-.047-.525-.068-.792-.048-.58-.093-1.16-.138-1.743-.036-.467-.07-.934-.107-1.402-.045-.573-.09-1.15-.133-1.725-.036-.47-.07-.942-.108-1.414-.043-.575-.09-1.148-.134-1.727l-.105-1.412c-.045-.57-.092-1.14-.135-1.712-.036-.476-.07-.954-.107-1.434l-.136-1.765c-.02-.2-.04-.405-.057-.61v-.925c.016-.035.03-.067.05-.1.302-.56.735-.912 1.403-.908.795.008 1.59.007 2.385.01 2.193.012 4.387.007 6.58.01l4.287-.023zm10.262 16.163v.007c2.495 0 4.99-.002 7.487.002.207 0 .397-.043.58-.136.605-.305 1.11-.73 1.504-1.278.234-.324.398-.68.418-1.084.028-.535-.207-.953-.592-1.3-.2-.183-.25-.415-.13-.652.043-.084.103-.146.2-.166.106-.024.205-.064.3-.115.617-.34 1.03-.855 1.27-1.504.276-.742.105-1.37-.485-1.897-.26-.233-.185-.647.145-.795.414-.185.778-.438 1.075-.78.418-.485.6-1.045.49-1.68-.08-.45-.27-.854-.608-1.177-.208-.2-.135-.575.13-.65.217-.064.415-.168.606-.287.772-.484 1.188-1.365 1.04-2.23-.15-.872-.83-1.36-1.537-1.37-1.55-.022-3.104-.006-4.657-.006-2.335 0-4.67 0-7.005-.002-.13 0-.133-.01-.106-.135l.01-.038c.365-1.63.712-3.264.932-4.92.076-.578.124-1.16.147-1.744.02-.508-.083-1-.21-1.488-.36-1.382-.896-2.697-1.5-3.987-.026-.058-.065-.1-.12-.132-.44-.286-.922-.41-1.45-.38-.44.023-.84.152-1.21.395-.11.072-.152.15-.152.285.004 1.672.002 3.342.003 5.012 0 .09-.01.172-.05.252-.524 1.014-1.064 2.02-1.635 3.007-1.18 2.038-2.477 3.997-3.944 5.843-.063.08-.14.145-.22.202-.613.418-1.22.805-1.836 1.22-.117.08-.16.162-.16.302.003 3.993.002 8.02.003 12.013v.1c-.003.067.03.095.098.097.314.002.63.028.945.005.272-.018.504.036.738.186.48.31.98.593 1.488.86.11.058.224.108.352.112.208.006.416.015.624.017.822.01 1.644.013 2.466.02 1.518.007 3.04 0 4.56 0z"/><circle fill="#fff" cx="14.274" cy="36.616" r="1.647"/></svg><svg width="91" height="86" viewBox="0 0 91 86" id="publikumspreis_flag" x="695" y="590"><path d="M4175-464h40v44h-40zm259 42h40v44h-40zm160 346h40v44h-40zm-712 0h40v44h-40z" fill="#fff"/><path d="M3599.485-902.09v-3.06H3590v3.06h-3.06v-3.06h-9.483v3.06h-2.753v9.178h2.754v3.366h3.06v2.753h3.06v3.365h3.058v2.754h3.672v-2.754h3.06v-3.365h3.06v-2.753h3.06v-3.366h2.754v-9.18"/><path d="M3581.43-981.206l-13.453-7.3v-4.04l13.454-7.263v4.76l-8.375 4.476 8.377 4.643v4.725zm2.89-3.707l4.543-.553c.145 1.16.535 2.044 1.17 2.655.634.61 1.4.917 2.304.917.97 0 1.785-.366 2.446-1.103.662-.733.993-1.724.993-2.972 0-1.18-.316-2.115-.952-2.806-.635-.69-1.408-1.035-2.32-1.035-.602 0-1.32.117-2.153.353l.52-3.825c1.27.03 2.235-.24 2.905-.824.667-.586 1.002-1.364 1.002-2.333 0-.823-.245-1.48-.734-1.97-.49-.49-1.142-.735-1.954-.735-.803 0-1.487.278-2.056.836-.57.558-.913 1.37-1.036 2.44l-4.324-.735c.3-1.48.753-2.66 1.36-3.546.607-.886 1.452-1.583 2.538-2.088 1.087-.507 2.303-.764 3.65-.764 2.305 0 4.153.734 5.544 2.204 1.146 1.202 1.72 2.56 1.72 4.074 0 2.148-1.173 3.863-3.52 5.144 1.4.3 2.522.975 3.362 2.02.84 1.046 1.262 2.31 1.262 3.79 0 2.15-.786 3.98-2.354 5.495-1.57 1.515-3.525 2.27-5.862 2.27-2.216 0-4.053-.633-5.512-1.907-1.46-1.274-2.306-2.944-2.54-5.003zM3240-1166h30v13h-30zm34-4h7v21h-7z"/><ellipse cx="3280.593" cy="-1159.498" rx="6.657" ry="10.558"/><path d="M3281.488-1159.498c0 5.83-3.258 10.558-7.277 10.558-4.016 0-9.126-4.727-9.126-10.558s5.11-10.558 9.128-10.558c4.02 0 7.278 4.727 7.278 10.558zm-45.608-.088c0-3.637 1.94-6.39 4.1-6.39s4.71 2.753 4.71 6.39c0 3.64-2.744 6.587-4.902 6.587s-3.91-2.946-3.91-6.585z"/><path fill="#fff" d="M3284.583-1159.498c0 4.514-1.8 8.173-2.747 8.173-.945 0-2.35-3.66-2.35-8.173s1.404-8.173 2.35-8.173c.946 0 2.747 3.657 2.747 8.17z"/><path d="M3286-1161h16v4h-16zm-.306 5.84l14.524 6.717-1.68 3.63-14.523-6.714zm-1.832-10.87l15.018-5.52 1.38 3.754-15.018 5.52zm257.928 272.51l8.162-2.97-1.065-2.93-8.247 3.004c.085-.032.576 1.165.79 1.754.128.35.032.157.36 1.142zm7.47 6.147l.746-2.897-8.04-1.915c.108 1.046.052 2.032-.154 2.902l7.448 1.91zm-4.127-16.287l-2.438-1.75-4.972 5.572c.75.488 1.464 1.182 2.09 2.038l5.32-5.86zm-5.928 7.548c-.233-.425-.485-.823-.756-1.19-.63-.856-1.38-1.65-2.127-2.14-1.177-.768-2.468-1.134-3.59-.726l-4.353 1.585c-1.585.576-3.063 2.22-3.617 4.632l-12.062 4.39-.53.19c-1.474.538-2.16 2.874-1.257 5.355.903 2.482 2.784 4.033 4.257 3.498l12.785-4.654c1.622.513 4.165 1.796 5.753 1.22l4.354-1.585c1.226-.446 2.04-1.664 2.405-3.202.207-.87.253-1.882.144-2.928-.055-.562-.166-1.152-.322-1.736-.093-.348-.196-.7-.323-1.05-.216-.59-.475-1.147-.76-1.663zm-.908 8.58c-.177.062-.444-.054-.762-.314-.267-.22-.567-.54-.883-.948-.686-.893-1.43-2.196-1.99-3.73-.56-1.535-.825-3.014-.873-4.137-.024-.52 0-.957.065-1.297.075-.402.205-.665.38-.73.647-.234 2.783 1.816 3.904 4.897 1.12 3.08.8 6.02.156 6.257z"/><circle fill="#fff" cx="3521.675" cy="-887.64" r="1.494"/><path d="M3300.632-1105H3309v-3h-8.453c.087 0 .138 1.245.138 1.85 0 .357-.023.15-.053 1.15zm4.738 8.024l1.63-2.376-6.646-4.383c-.246.982-.622 1.856-1.096 2.575l6.112 4.184zm1.63-16.1l-1.63-2.388-6.335 3.406c.517.688.934 1.552 1.22 2.533l6.745-3.55zm-7.852 4.88c-.07-.463-.17-.906-.292-1.328-.286-.98-.703-1.948-1.22-2.637-.812-1.084-1.86-1.84-3.008-1.84h-4.463c-1.626 0-3.505 1-4.802 3h-12.91c-1.51 0-2.9 1.89-2.9 4.43 0 2.546 1.19 4.57 2.7 4.57h13.108c1.3 1 3.18 3 4.807 3h4.463c1.255 0 2.393-.835 3.23-2.106.473-.72.85-1.62 1.095-2.603.133-.526.227-1.097.278-1.68.03-.342.052-.696.052-1.054 0-.604-.05-1.194-.137-1.754zm-3.65 7.464c-.18 0-.383-.194-.584-.534-.17-.286-.337-.674-.487-1.15-.326-1.032-.57-2.457-.57-4.03s.244-3 .57-4.033c.15-.474.318-.86.487-1.147.2-.34.405-.534.585-.534.66 0 1.92 2.56 1.92 5.715s-1.26 5.714-1.92 5.714z"/><circle fill="#fff" cx="3280.49" cy="-1106.304" r="1.145"/><path d="M3309.516-1221.26l-43.15-24.74.15-49.738 43.3-25L3352.97-1296l-.15 49.74z"/><path stroke="#fff" stroke-width="5" stroke-miterlimit="10" fill="none" d="M3309.5-1271v83m-78.166-128.448l78.51 45.294m78.002-45.294l-78.51 45.294"/><path stroke="#fff" stroke-width=".5" stroke-miterlimit="10" d="M3480.06-888.512l-5.062 2.908v5.796l5.06-2.9zm-10.815.022v5.815l4.956 2.867v-5.807zm10.347-.637l-4.966-2.845-4.978 2.87 4.95 2.857zm0-13.258l-4.966-2.844-4.978 2.873 4.95 2.855zm-5.408 3.923l-5.06 2.908v5.796l5.06-2.9zm-10.814.022v5.815l4.956 2.867v-5.807zm0 6.745v5.816l4.956 2.87v-5.808zm10.347-7.382l-4.966-2.845-4.976 2.87 4.95 2.857zm1.28.615l5.06 2.908v5.796l-5.06-2.9zm10.813.022v5.815l-4.956 2.867v-5.807zm0 6.745v5.816l-4.956 2.87v-5.808zm-10.346-7.382l4.966-2.845 4.977 2.87-4.95 2.857z"/><path d="M3632.468-898.564l3.98-8.255 4.136 8.21 9.084 1.27-6.504 6.444 1.633 9.04-8.153-4.23-8.076 4.318 1.465-9.054-6.625-6.37z"/><path stroke="#fff" stroke-miterlimit="10" d="M3628.957-898.662" fill="none"/><path stroke="#fff" stroke-width="1.5" stroke-miterlimit="10" fill="none" d="M3637.12-888.778l4.044 3.023m-61.534-8.49l8.84 8.605m45.678-10.805l1.684-4.852"/><path stroke="#000" stroke-width="1.5" stroke-miterlimit="10" fill="none" d="M3635.428-994.328l-.624 4.925H3630"/><path stroke="#fff" stroke-width="1.5" stroke-miterlimit="10" d="M3529.07-895c0-4.79 4.047-8.664 9.048-8.664" fill="none"/><path d="M3541.79-996.52l8.162-2.97-1.065-2.93-8.247 3.004c.085-.032.576 1.165.79 1.754.128.35.032.157.36 1.142zm7.47 6.147l.746-2.897-8.04-1.915c.108 1.046.052 2.032-.154 2.902l7.448 1.91zm-4.127-16.287l-2.438-1.75-4.972 5.572c.75.488 1.464 1.182 2.09 2.038l5.32-5.86zm-5.928 7.548c-.233-.425-.485-.823-.756-1.19-.63-.856-1.38-1.65-2.127-2.14-1.177-.768-2.468-1.134-3.59-.726l-4.353 1.585c-1.585.576-3.063 2.22-3.617 4.632l-12.062 4.39-.53.19c-1.474.538-2.16 2.874-1.257 5.355.903 2.482 2.784 4.033 4.257 3.498l12.785-4.654c1.622.513 4.165 1.796 5.753 1.22l4.354-1.585c1.226-.446 2.04-1.664 2.405-3.202.207-.87.253-1.882.144-2.928-.055-.562-.166-1.152-.322-1.736-.093-.348-.196-.7-.323-1.05-.216-.59-.475-1.147-.76-1.663zm-.908 8.58c-.177.062-.444-.054-.762-.314-.267-.22-.567-.54-.883-.948-.686-.893-1.43-2.196-1.99-3.73-.56-1.535-.825-3.014-.873-4.137-.024-.52 0-.957.065-1.297.075-.402.205-.665.38-.73.647-.234 2.783 1.816 3.904 4.897 1.12 3.08.8 6.02.156 6.257z"/><circle fill="#fff" cx="3521.675" cy="-990.64" r="1.494"/><path stroke="#fff" stroke-miterlimit="10" d="M3529.07-998c0-4.79 4.047-8.664 9.048-8.664" fill="none"/><path stroke="#000" stroke-miterlimit="10" fill="none" d="M3440.5-1033.5l3.97-5.654 4.03 5.654"/><path d="M3446.545-1036h-4.148l2.075-3.39z"/><path stroke="#000" stroke-linejoin="round" stroke-miterlimit="10" fill="none" d="M3440.5-1033.5h8v18h-8z"/><path stroke="#000" stroke-miterlimit="10" fill="none" d="M3445.882-1033v18m-2.826-18v18"/><path d="M3427-1040h8v25h-8z"/><path d="M3432-1035.5h3m-3 4h3m-3 4h3m-3 4h3m-3 4h3" stroke="#fff" stroke-linejoin="round" stroke-miterlimit="10" fill="none"/><path d="M3435.57-904.983l-19.053 19.052 6.098 6.097 3.048-3.05-2.286-2.286 1.105-1.093 2.287 2.287 1.94-1.955-2.286-2.288.763-.762 2.286 2.288 2.286-2.287-2.287-2.284.76-.76 2.287 2.285 2.29-2.285-2.29-2.286.763-.764 2.287 2.286 1.998-1.95-2.287-2.286 1.054-1.098 2.287 2.287 3.05-3.048z"/><path stroke="#000" stroke-miterlimit="10" fill="none" d="M3416.5-996.5l3.97-5.654 4.03 5.654"/><path d="M3422.545-999h-4.148l2.075-3.39z"/><path stroke="#000" stroke-linejoin="round" stroke-miterlimit="10" fill="none" d="M3416.5-996.5h8v18h-8z"/><path stroke="#000" stroke-miterlimit="10" fill="none" d="M3421.882-996v18m-2.826-18v18"/><path d="M3427-1003v25h8v-4h-3v-1h3v-3h-3v-1h3v-3h-3v-1h3v-3h-3v-1h3v-3h-3v-1h3v-4z"/><path stroke="#000" stroke-width="1.448" stroke-miterlimit="10" fill="none" d="M3419.054-895.48l-1.428-8.17 8.217 1.38"/><path d="M3422.062-902.734l-1.81 1.812-1.71 1.71-1.115-4.638z"/><path fill="#fff" stroke="#000" stroke-width="1.448" stroke-linejoin="round" stroke-miterlimit="10" d="M3419.043-895.446l6.788-6.79 15.28 15.275-6.787 6.79z"/><path stroke="#000" stroke-width="1.448" stroke-miterlimit="10" fill="none" d="M3424.047-899.625l15.275 15.277m-17.675-12.878l15.277 15.277"/><path d="M3379.675-1104.24c0-.584-.475-1.057-1.058-1.057-.584 0-1.058.473-1.058 1.058v1.997c-.234-.12-.47-.23-.713-.33v-5.047c0-.586-.473-1.06-1.056-1.06-.583 0-1.06.474-1.06 1.06v4.415c-.236-.05-.475-.09-.71-.125v-5.14c0-.582-.47-1.055-1.056-1.055-.584 0-1.058.473-1.058 1.056v4.965c-.253-.006-.487-.006-.702 0v-3.06c0-.583-.473-1.056-1.056-1.056s-1.06.472-1.06 1.055v6.71l-.7.702-2.078-2.076c-.413-.413-1.082-.413-1.495 0-.412.41-.412 1.083 0 1.495l4.278 4.277c-.23 8.544-7.252 15.424-15.85 15.424-.583 0-1.057.473-1.057 1.058 0 .584.474 1.057 1.057 1.057 9.908 0 17.97-8.06 17.97-17.97 0-.28-.11-.55-.31-.746l-1.02-1.02.657-.66c.793.122 2.51.542 3.355 1.988.195.338.55.526.914.526.18 0 .363-.048.532-.145.504-.294.673-.942.38-1.444-1.178-2.017-3.266-2.715-4.518-2.954v-1.046c.522-.01 1.223 0 1.997.085 1.328.147 3.108.542 4.355 1.575v3.842c0 13.404-10.906 24.31-24.312 24.31-.583 0-1.057.474-1.057 1.057 0 .584.474 1.06 1.057 1.06 14.57 0 26.427-11.856 26.427-26.427v-8.35zm2.335 15.86c-.09 0-.182-.012-.27-.034-.598-.15-.96-.754-.813-1.35.498-1.992.75-4.054.75-6.125v-4.31c0-.613.498-1.11 1.113-1.11.614 0 1.112.497 1.112 1.112v4.31c0 2.254-.273 4.496-.815 6.665-.126.506-.58.844-1.077.844zm3.55 0c-.09 0-.18-.012-.27-.034-.597-.15-.96-.754-.81-1.35.564-2.27.748-3.76.748-6.125 0-.613.498-1.11 1.113-1.11s1.115.497 1.115 1.112c0 2.54-.207 4.223-.815 6.665-.13.506-.582.844-1.08.844z"/><path stroke="#000" stroke-width="3.005" stroke-linecap="round" stroke-linejoin="round" stroke-miterlimit="10" d="M3369.823-891.412" fill="none"/><path fill="#fff" d="M3361.295-839.722v-.328c0-1.935-3-1.935-3 0v.328c0 1.935 3 1.935 3 0z"/><path stroke="#000" stroke-width="2" stroke-miterlimit="10" d="M3393.637-896.835c1.95 3.925 1.112 11.723-1.896 14.29m6.846-10.765c.287 2.55-.037 5.468-.903 7.74" fill="none"/><path d="M3390.113-901h-.227c-.49 0-.887.396-.887.886v3.755c-.314-.142-.648-.262-1-.353v-6.4c0-.488-.398-.885-.89-.885h-.226c-.49 0-.887.397-.887.887v6.123c-.164-.005-.33-.01-.494-.01h-.506v-7.113c0-.49-.396-.886-.887-.886h-.226c-.49 0-.887.397-.887.887v7.194c-.354.037-.688.095-1 .176v-5.37c0-.488-.396-.885-.887-.885h-.227c-.49 0-.887.397-.887.887v8.613c1.145-.138 2.428.09 3.468.655 1.33.722 2.31 1.95 2.75 3.407l-1.328.444c-.366-1.204-1.09-2.1-2.187-2.696-.89-.483-1.727-.712-2.705-.566l-2.908-2.067c-.347-.345-.907-.345-1.254 0l-.16.16c-.347.35-.347.91 0 1.255l5.024 5.462c.234.397.522.74.847 1.038-2.082 1.163-6.284 1.936-10.55 1.936v7c9.79 0 16.182-2.347 18.206-7.01.767-1.348 1.484-3.233 1.725-5.05.046-.108.07-.226.07-.35v-10.228c.005-.49-.39-.887-.882-.887z"/><path fill="#44AEE5" d="M-22.683-668.01c-.094-.28-.34-.454-.635-.496l-13.828-1.87-6.295-12.408c-.135-.264-.406-.216-.7-.216h-.008c-.298 0-.57-.042-.7.228l-6.057 12.33-13.787 2.093c-.296.047-.54.26-.63.544s-.012.598.204.805l10.084 9.7-2.23 13.782c-.047.294.076.593.32.766.135.096.294.144.454.144.126 0 .253-.028.37-.09l12.29-6.57 12.41 6.435c.263.138.584.112.825-.065.24-.177.36-.475.306-.768l-2.485-13.754 9.9-9.796c.21-.212.285-.51.19-.79zm-21.925-2.785c-.415 1.226-1.075 2.368-1.763 3.16-.347.395-.68.71-.94.92-.255.213-.436.323-.436.323s-.077-.196-.152-.52c-.08-.326-.153-.777-.188-1.302-.07-1.047.096-2.355.508-3.582.41-1.227 1.07-2.37 1.76-3.16.345-.397.678-.71.938-.92.257-.214.44-.323.44-.323s.077.2.152.523c.08.326.155.777.19 1.302.072 1.048-.095 2.356-.51 3.58zm9.727 23.182c-.35-.044-.827-.14-1.36-.3-1.07-.32-2.326-.97-3.42-1.82-1.097-.855-2.034-1.912-2.61-2.866-.29-.476-.5-.912-.63-1.24-.134-.322-.188-.536-.188-.536s.22 0 .567.048c.35.046.823.143 1.357.304 1.068.322 2.325.968 3.422 1.817 1.097.852 2.035 1.907 2.612 2.863.288.478.498.914.628 1.242.134.324.187.54.187.54s-.22 0-.568-.048z"/><path stroke="#44AEE5" stroke-width="2" stroke-miterlimit="10" d="M-464.707-395.835c1.95 3.925 1.112 11.723-1.896 14.29m6.845-10.765c.287 2.55-.037 5.468-.903 7.74" fill="none"/><path fill="#44AEE5" d="M-468.23-400h-.227c-.49 0-.543.396-.543.886v3.755c-1-.142-1-.262-1-.353v-6.4c0-.488-.74-.885-1.23-.885h-.227c-.49 0-.543.397-.543.887v6.123c-1-.005-.673-.01-.838-.01H-473v-7.113c0-.49-.74-.886-1.23-.886h-.227c-.49 0-.543.397-.543.887v7.194c-1 .037-1 .095-1 .176v-5.37c0-.488-.74-.885-1.23-.885h-.227c-.49 0-.543.397-.543.887v8.613c1-.138 2.256.09 3.296.655 1.33.722 2.223 1.95 2.665 3.407l-1.37.444c-.366-1.204-1.11-2.1-2.21-2.696-.89-.483-1.733-.712-2.712-.566l-2.914-2.067c-.347-.345-.91-.345-1.256 0l-.162.16c-.347.35-.347.91 0 1.255l5.024 5.462c.233.397.693.74 1.017 1.038-2.082 1.163-6.377 1.936-10.377 1.936v7c9 0 16.01-2.347 18.033-7.01.766-1.348 1.57-3.233 1.81-5.05.046-.108.157-.226.157-.35v-10.228c0-.49-.74-.887-1.23-.887z"/><path fill="none" d="M135.305-670.555h352v20.5h-352z"/><text transform="translate(135.305 -656.666)" fill="#44AEE5" font-family="'Ebisu'" font-size="19.843">featured</text><path fill="none" d="M135.305-553.573h352v20.5h-352z"/><text transform="translate(135.305 -539.684)" fill="#44AEE5" font-family="'Ebisu'" font-size="19.843">mit code die welt verbessern</text><path fill="none" d="M135.305-436.592h352v20.5h-352z"/><text transform="translate(135.305 -422.703)" fill="#44AEE5" font-family="'Ebisu'" font-size="19.843">aha moment/innovation</text><path fill="none" d="M135.305-319.61h352v20.5h-352z"/><text transform="translate(135.3 -305.719)" fill="#44AEE5" font-family="'Ebisu'" font-size="19.843">bester code</text><path fill="none" d="M135.305-202.63h352v20.5h-352z"/><text transform="translate(135.305 -188.74)" fill="#44AEE5" font-family="'Ebisu'" font-size="19.843">bestes design</text><path fill="none" d="M134.24-84.828h352v20.5h-352z"/><text transform="translate(134.24 -70.939)" fill="#44AEE5" font-family="'Ebisu'" font-size="19.843">sonderpreis</text><path fill="none" d="M135.305 31.334h352v20.5h-352z"/><text transform="translate(135.305 45.223)" fill="#44AEE5" font-family="'Ebisu'" font-size="19.843">publikumspreis</text><path fill="#44AEE5" d="M4205.104-445.478c-.06-.18-.218-.29-.405-.317l-8.826-1.193-4.018-7.896c-.086-.168-.258-.115-.447-.115h-.005c-.19 0-.363-.047-.446.125l-3.867 7.857-8.8 1.33c-.187.03-.343.162-.4.344s-.007.38.13.512l6.436 6.19-1.423 8.796c-.03.188.048.377.203.487.087.06.19.093.29.093.082 0 .162-.02.236-.06l7.844-4.192 7.92 4.108c.168.087.373.07.526-.042s.23-.303.195-.49l-1.585-8.777 6.318-6.253c.135-.134.182-.324.122-.504z"/><path stroke="#fff" stroke-miterlimit="10" d="M4183.92-446.662" fill="none"/><path stroke="#fff" stroke-width="2" stroke-miterlimit="10" fill="none" d="M4192.083-436.778l4.043 3.023m-7.016-10.69l1.684-4.852"/><path fill="#44AEE5" d="M4621.104-66.478c-.06-.18-.218-.29-.405-.317l-8.826-1.193-4.018-7.896c-.086-.168-.258-.115-.447-.115h-.005c-.19 0-.363-.047-.446.125l-3.867 7.857-8.8 1.33c-.187.03-.343.162-.4.344s-.007.38.13.512l6.436 6.19-1.423 8.796c-.03.188.048.377.203.487.087.06.19.093.29.093.082 0 .162-.02.236-.06l7.844-4.192 7.92 4.108c.168.087.373.07.526-.042s.23-.303.195-.49l-1.585-8.777 6.318-6.253c.135-.134.182-.324.122-.504z"/><path stroke="#fff" stroke-miterlimit="10" d="M4599.92-67.662" fill="none"/><path stroke="#fff" stroke-width="2" stroke-miterlimit="10" fill="none" d="M4608.083-57.778l4.043 3.023m-7.016-10.69l1.684-4.852"/><path fill="#44AEE5" d="M3612.104-116.478c-.06-.18-.218-.29-.405-.317l-8.826-1.193-4.018-7.896c-.086-.168-.258-.115-.447-.115h-.005c-.19 0-.363-.047-.446.125l-3.867 7.857-8.8 1.33c-.187.03-.343.162-.4.344s-.007.38.13.512l6.436 6.19-1.423 8.796c-.03.188.048.377.203.487.087.06.19.093.29.093.082 0 .162-.02.236-.06l7.844-4.192 7.92 4.108c.168.087.373.07.526-.042s.23-.303.195-.49l-1.585-8.777 6.318-6.253c.135-.134.182-.324.122-.504z"/><path stroke="#fff" stroke-miterlimit="10" d="M3590.92-117.662" fill="none"/><path stroke="#fff" stroke-width="2" stroke-miterlimit="10" fill="none" d="M3599.083-107.778l4.043 3.023m-7.016-10.69l1.684-4.852"/><path fill="#44AEE5" d="M2426-634h87v64h-87z"/><path fill="#0071BC" d="M2492-548v-22h21"/><path fill="#44AEE5" d="M2919-634h91v64h-91z"/><path fill="#0071BC" d="M2989-548v-22h21m-70 22v-22h-21"/><path d="M2963-582.825l7-4.075v-8.152l-7 4.088zm-9-4.023l7 4.02v-8.155l-7-4.032zm8.056-13.822l-6.98 4.028 6.935 4 7.01-4.04zm6.962-16.684l-6.962-3.988-6.98 4.028 6.935 4.002zm-8.018 6.788l-7 4.087v8.14l7-4.074zm-16 8.203l7 4.02v-8.156l-7-4.03zm0 10.52l7 4.02v-8.157l-7-4.03zm7.895-24.342l-6.98 4.028 6.936 4.002 7.008-4.04zM2970-606.48l-7-4.086v8.15l7 4.076zm9-4.05l-7 4.03v8.157l7-4.02zm-7 22.706l7-4.02v-8.166l-7 4.03zm-.896-28.36l-6.96 3.99 7.004 4.04 6.938-4.003z" fill="#fff"/><path fill="#44AEE5" d="M-452-294.61l-8.647-8.324-8.353 8.325V-336h17zM-1-117h91v64H-1z"/><path fill="#0071BC" d="M69-31v-22h21"/><path d="M41.41-79.386l-1.328.652-.694-1.308-1.077-2.03-5.333 14.658 5.592-2.48 2.55 5.444 3.055-8.397-2.44-6.698zm8.555-.656l-.693 1.308-1.33-.652-1.178-.576-2.087-1.02-1.56.76 1.87 5.14 3.87 10.632 2.55-5.445L57-67.415l-5.59-15.353zM34.98-89.73l-.613 4.34 4.317.758.33.623 1.725 3.25.47-.23.69-.336.69-.338 2.085-1.02 2.613 1.276 1.324.65 2.054-3.873.06-.01.765-.136.765-.134 2.728-.48-.613-4.34 3.047-3.15-3.048-3.15.612-4.34-4.317-.757-2.054-3.87-3.937 1.924L40.738-105l-2.055 3.87-4.317.76.613 4.338-3.05 3.15 3.05 3.153zm9.697-9.727c3.622 0 6.567 2.946 6.567 6.567 0 1.51-.532 2.885-1.392 3.996-.378.49-.817.927-1.317 1.293-.962.703-2.12 1.136-3.378 1.227-.16.013-.315.05-.48.05-.49 0-.967-.064-1.43-.168-2.933-.657-5.136-3.27-5.136-6.4 0-3.62 2.947-6.568 6.568-6.568zm0 11.605c2.778 0 5.04-2.26 5.04-5.038s-2.262-5.037-5.04-5.037c-2.777 0-5.038 2.26-5.038 5.037s2.26 5.038 5.036 5.038z" fill="#fff" stroke="#44AEE5" stroke-width=".2" stroke-miterlimit="10"/><path fill="#44AEE5" d="M-512.483-299.913l4.462-1.98 2.033 4.345 5.757-15.82-6.496-2.364zm6.133-13.817l7.642-2.785 6.458 17.74-5.23-2.317-2.402 5.134z"/><path fill="#fff" d="M-499.072-315.732l5.758 15.82-4.463-1.98-2.034 4.344-5.76-15.82 6.497-2.364m.73-1.565l-1.148.418-6.498 2.367-1.146.417.417 1.146 5.758 15.818 1.006 2.762 1.247-2.66 1.527-3.263 3.372 1.494 2.622 1.164-.98-2.694-5.76-15.82-.417-1.147z"/><path fill="#44AEE5" d="M-503.146-311.42l-3.404 1.667-1.777-3.348-3.732-.657.53-3.75-2.632-2.725 2.634-2.725-.53-3.75 3.733-.656 1.777-3.35 3.404 1.666 3.404-1.665 1.776 3.35 3.732.654-.53 3.75 2.634 2.725-2.634 2.723.53 3.75-3.732.656-1.776 3.347z"/><path fill="#fff" d="M-500.004-329.9l1.64 3.09 3.443.603-.49 3.462 2.43 2.514-2.43 2.513.49 3.462-3.446.604-1.64 3.09-3.14-1.538-3.143 1.537-1.64-3.09-3.443-.605.49-3.462-2.433-2.515 2.432-2.515-.49-3.462 3.445-.603 1.64-3.09 3.143 1.535 3.142-1.536m.525-1.616l-1.06.518-2.606 1.274-2.605-1.273-1.063-.52-.554 1.042-1.36 2.563-2.857.5-1.162.204.165 1.17.405 2.87-2.017 2.084-.82.848.82.848 2.016 2.087-.406 2.87-.165 1.17 1.162.204 2.857.5 1.36 2.565.554 1.044 1.06-.52 2.606-1.275 2.606 1.274 1.06.52.554-1.044 1.36-2.562 2.857-.5 1.162-.205-.165-1.17-.406-2.87 2.018-2.087.82-.85-.82-.848-2.018-2.086.406-2.87.165-1.17-1.16-.205-2.857-.5-1.36-2.563-.553-1.043z"/><circle stroke="#fff" stroke-width="1.22" stroke-miterlimit="10" cx="-503.146" cy="-320.239" r="4.63" fill="none"/><path fill="#44AEE5" d="M0-350h91v64H0z"/><path fill="#0071BC" d="M70-264v-22h21"/><path fill="#44AEE5" d="M301.04 278.398l-1.712-3.226-5.178 14.227 5.467-2.426 2.49 5.314 2.96-8.137-2.387-6.56zm9.275 0l-4.638-2.27-1.435.702 5.626 15.46 2.49-5.315.09.04 5.378 2.384-5.432-14.923zm-14.23-11.16l-.605 4.29 4.27.75 2.032 3.83 3.895-1.906 3.895 1.905 2.032-3.83 1.637-.287 2.634-.46-.606-4.293 3.014-3.117-3.013-3.116.605-4.29-4.27-.75-2.032-3.83-3.894 1.903-3.896-1.904-2.03 3.83-.05.01-4.22.74.605 4.29-3.015 3.117 3.016 3.117zm9.59-9.795c3.678 0 6.67 2.99 6.67 6.667 0 1.46-.49 2.862-1.414 4.058-.39.51-.84.95-1.335 1.312-.99.725-2.176 1.156-3.43 1.248-.06.005-.122.014-.182.02-.098.015-.198.028-.305.028-.468 0-.943-.055-1.452-.17-3.02-.675-5.215-3.408-5.215-6.497 0-3.677 2.99-6.668 6.668-6.668zm.002 11.607c2.724 0 4.94-2.217 4.94-4.94s-2.216-4.937-4.94-4.937c-2.723 0-4.938 2.215-4.938 4.938s2.213 4.94 4.936 4.94z"/><path d="M46-299.34l7-4.075v-8.15l-7 4.086zm-9-4.022l7 4.02v-8.156l-7-4.03zm8.118-13.823l-6.98 4.03 6.935 4 7.007-4.04zm6.962-16.683l-6.962-3.988-6.98 4.027 6.935 4.004zM44-327.08l-7 4.087v8.14l7-4.077zm-16 8.202l7 4.02v-8.156l-7-4.03zm0 10.52l7 4.02v-8.157l-7-4.03zm7.957-24.342l-6.98 4.028 6.936 4.002 7.007-4.04zM53-322.993l-7-4.088v8.15l7 4.075zm9-4.05l-7 4.03v8.156l7-4.02zm-7 22.703l7-4.018v-8.166l-7 4.03zm-.834-28.36l-6.96 3.99 7.005 4.04 6.94-4.002zM-243.66-434.51l9.796-3.564-1.278-3.514-9.897 3.604c.104-.04.694 1.398.95 2.104.153.42.038.188.43 1.37zm8.965 7.376l.895-3.477-9.648-2.3c.13 1.255.062 2.44-.185 3.482l8.938 2.293zm-4.952-19.546l-2.925-2.1-5.967 6.688c.9.586 1.76 1.418 2.51 2.445l6.384-7.032zm-5.428 14.397c-.068-.674-.202-1.383-.39-2.083-.11-.416-.234-.84-.387-1.258-.258-.708-.568-1.377-.91-1.997-.28-.51-.582-.99-.906-1.43-.752-1.028-1.652-1.98-2.55-2.568-1.412-.92-2.96-1.36-4.307-.87l-1.528.698c-1.23 1.58-1.97 2.79-1.97 5.79h-1.8c0-2 .386-3.38 1.06-4.803l-.985.288c-1.903.69-3.68 2.627-4.342 5.522l-14.476 5.25-.64.224c-1.767.647-2.59 3.445-1.507 6.423 1.084 2.98 3.34 4.838 5.108 4.196l15.344-5.59c1.945.618 4.997 2.158 6.902 1.464l5.224-1.9c1.47-.535 2.448-1.997 2.886-3.843.248-1.04.304-2.256.172-3.512zm-21.965 6.91c-1.148.417-2.42-.176-2.838-1.323-.417-1.147.174-2.417 1.323-2.837 1.15-.416 2.42.174 2.836 1.32.42 1.15-.172 2.418-1.32 2.84zm19.19-1.953c-.213.076-.534-.062-.915-.376-.32-.264-.68-.646-1.06-1.138-.823-1.07-1.717-2.636-2.388-4.478s-.99-3.616-1.05-4.964c-.025-.62.005-1.146.082-1.554.09-.482.244-.798.455-.875.774-.284 3.34 2.177 4.685 5.873 1.346 3.697.963 7.228.19 7.51z" fill="#fff"/><path fill="#44AEE5" d="M0-581h91v64H0z"/><path fill="#0071BC" d="M70-495v-22h21"/><path fill="#fff" d="M58.5-560.73v-3.75H46.875v3.75h-3.75v-3.75H31.5v3.75h-3.376v11.25H31.5v4.126h3.75v3.375H39v4.127h3.75v3.375h4.5v-3.374H51v-4.125h3.75v-3.374h3.75v-4.126h3.374v-11.25"/><path stroke="#44AEE5" stroke-width="2.451" stroke-miterlimit="10" fill="none" d="M33.664-551.113L44.5-540.566"/><path fill="#44AEE5" d="M-1-232h91v64H-1z"/><path fill="#0071BC" d="M69-146v-22h21"/><path fill="#fff" d="M61.35-193.787l-7.556-7.555 2.14-2.09-3.05-3.048 1.403-1.463 3.05 3.05 4.062-4.064-8.133-8.13-7.61 7.61-4.675-4.676c-.143-.144-.332-.213-.527-.244l.005-.025-12.3-2.064 2.14 12.234.017-.002c.033.188.105.372.252.518l4.672 4.674-7.375 7.376 8.13 8.13 4.063-4.064-3.047-3.05 1.474-1.457 3.048 3.05 1.84-1.853 7.56 7.56c.18.182.426.283.682.283s.5-.102.682-.282l9.05-9.05c.376-.38.376-.99 0-1.366zm-21.05-18.32l3.994 3.994 5.08 5.08 9.928 9.93-1.597 1.597-6.88-6.88-8.128-8.13-3.993-3.993 1.597-1.595zm14.21 23.798l-6.88-6.88-8.13-8.13-3.993-3.99 1.834-1.835 3.995 3.993 8.13 8.13 6.878 6.88-1.833 1.834zm-21.93-25.64l5.715 1.12-6.414 6.417-1.1-5.666 1.8-1.87zm.035 9.533l1.528-1.53 3.993 3.994 8.13 8.13 6.88 6.88-1.528 1.527-9.93-9.93-5.08-5.08-3.993-3.99z"/><path fill="#44AEE5" d="M0 0h91v64H0z"/><path fill="#0071BC" d="M70 86V64h21"/><path fill="#fff" d="M40.205 26.762c.488-.45.603-.752 1.004-1.28 1.59-2.086 2.903-4.345 4.06-6.698.09-.188.133-.368.124-.578-.024-.504-.012-1.012-.022-1.52-.02-1.162-.03-2.325-.046-3.49 0-.083.02-.153.068-.225.52-.757 1.23-1.225 2.126-1.425.247-.056.498-.07.747-.097h.303c.137.01.274.02.41.037.608.073 1.19.23 1.728.537.184.105.33.246.437.435.662 1.133 1.215 2.314 1.64 3.56.383 1.112.63 2.248.546 3.44-.047.685-.123 1.363-.254 2.033-.168.87-.41 1.723-.617 2.584-.047.19-.047.19.15.19 3.31 0 6.616.002 9.924 0 .486 0 .935.118 1.352.36 1.355.793 1.96 2.513 1.418 4.012-.256.705-.697 1.28-1.248 1.775-.067.06-.076.105-.032.185.306.575.407 1.185.3 1.825-.148.892-.597 1.618-1.254 2.228-.098.09-.12.164-.082.29.18.603.25 1.215.15 1.84-.137.867-.548 1.584-1.204 2.16-.067.06-.083.11-.062.2.218.867.214 1.73-.104 2.582-.336.9-.934 1.59-1.736 2.104-.667.428-1.39.7-2.193.7H42.66c-.175 0-.347-.02-.514-.07-.61-.188-1.117-.53-1.56-.98-.03-.03-.052-.07-.127-.095 0 .26 0 .497-.003.74-.003.18-.002.363-.028.54-.086.534-.628.97-1.193.97h-11.2c-.054 0-.108-.004-.16-.01-.54-.083-1.064-.615-1.15-1.186-.04-.26-.047-.525-.068-.792-.048-.58-.093-1.16-.138-1.743-.036-.47-.07-.937-.107-1.405-.045-.573-.09-1.15-.133-1.725-.036-.47-.07-.94-.108-1.413-.043-.574-.09-1.147-.134-1.726l-.105-1.41-.134-1.716-.105-1.434-.136-1.766-.057-.608v-.926c.016-.035.03-.067.05-.1.302-.56.735-.912 1.403-.908.795.008 1.59.007 2.385.01 2.194.012 4.388.007 6.58.01l4.286-.02zm10.262 16.163v.007c2.495 0 4.99-.002 7.487.002.207 0 .397-.043.58-.136.605-.303 1.11-.727 1.504-1.276.234-.324.398-.68.418-1.084.028-.534-.207-.952-.592-1.3-.2-.182-.25-.414-.13-.65.043-.085.103-.147.2-.167.106-.022.205-.062.3-.113.617-.34 1.03-.855 1.27-1.504.276-.743.105-1.37-.485-1.898-.26-.233-.185-.647.145-.795.414-.186.778-.44 1.075-.782.418-.484.6-1.044.49-1.68-.08-.45-.27-.853-.608-1.176-.208-.2-.135-.576.13-.652.217-.064.415-.168.606-.287.772-.484 1.188-1.365 1.04-2.23-.15-.872-.83-1.36-1.537-1.37-1.55-.022-3.104-.006-4.657-.006-2.335 0-4.67 0-7.005-.002-.13 0-.133-.01-.106-.135l.01-.04c.365-1.628.712-3.263.932-4.92.076-.577.124-1.16.147-1.743.02-.508-.083-1-.21-1.488-.36-1.384-.896-2.7-1.5-3.99-.026-.057-.065-.1-.12-.13-.44-.288-.923-.413-1.45-.383-.44.024-.84.153-1.21.396-.11.072-.152.15-.152.285.004 1.672.002 3.342.003 5.012 0 .09-.01.172-.05.252-.524 1.014-1.064 2.02-1.635 3.007-1.18 2.036-2.477 3.995-3.944 5.84-.063.08-.14.146-.22.203-.613.418-1.22.805-1.836 1.22-.117.08-.16.162-.16.302.003 3.993.002 8.02.003 12.013v.1c-.003.067.03.095.098.097.314.002.63.028.945.005.272-.018.504.036.738.186.48.31.98.593 1.488.86.11.058.224.108.352.112.208.006.416.015.624.017.822.01 1.644.013 2.466.02 1.518.006 3.04-.002 4.56-.002z"/><circle fill="#44AEE5" cx="34.774" cy="41.155" r="1.647"/><path fill="#44AEE5" d="M-54.42-558.777c.488-.45.603-.752 1.004-1.28 1.593-2.086 2.905-4.345 4.06-6.698.09-.188.135-.368.125-.578-.025-.504-.014-1.012-.023-1.52-.02-1.162-.03-2.325-.046-3.49 0-.083.02-.153.07-.225.52-.76 1.23-1.227 2.126-1.427.246-.056.497-.07.746-.097h.303c.137.01.274.02.41.037.608.073 1.19.23 1.728.537.184.104.33.245.437.434.663 1.133 1.216 2.314 1.642 3.56.382 1.112.63 2.248.545 3.44-.05.685-.125 1.363-.256 2.033-.166.87-.407 1.72-.615 2.582-.046.19-.046.19.15.19 3.31 0 6.617.002 9.925 0 .485 0 .934.118 1.35.36 1.356.793 1.962 2.513 1.42 4.012-.257.705-.698 1.28-1.25 1.775-.066.06-.075.104-.03.184.305.575.406 1.185.3 1.825-.15.892-.598 1.62-1.255 2.23-.097.087-.12.162-.08.29.18.6.25 1.213.15 1.84-.138.865-.55 1.582-1.205 2.16-.067.06-.083.11-.062.197.218.868.214 1.732-.104 2.583-.336.9-.934 1.59-1.736 2.105-.667.428-1.39.7-2.193.7h-15.178c-.176 0-.348-.02-.515-.07-.61-.188-1.117-.53-1.56-.98-.03-.03-.052-.07-.127-.095 0 .26.003.5 0 .74-.004.182-.003.365-.03.54-.084.536-.626.97-1.19.97H-66.59c-.053 0-.107-.002-.16-.01-.54-.08-1.063-.613-1.15-1.184-.038-.26-.046-.525-.067-.792l-.136-1.743-.108-1.402c-.046-.573-.09-1.15-.134-1.725-.037-.47-.072-.942-.11-1.414-.042-.575-.088-1.148-.133-1.727l-.106-1.412c-.043-.57-.09-1.142-.133-1.715-.036-.476-.07-.954-.107-1.434l-.136-1.764-.055-.608v-.926c.016-.034.03-.066.05-.1.302-.558.735-.91 1.403-.907.796.008 1.59.007 2.386.01 2.193.012 4.387.007 6.58.01l4.284-.02zm10.262 16.163v.007c2.495 0 4.99-.002 7.487.002.205 0 .395-.043.58-.136.603-.305 1.107-.73 1.502-1.278.234-.324.397-.68.418-1.084.03-.535-.206-.953-.59-1.3-.2-.183-.25-.415-.132-.652.044-.084.104-.146.2-.166.107-.024.206-.064.3-.115.618-.34 1.032-.855 1.272-1.504.275-.742.104-1.37-.486-1.897-.26-.233-.183-.647.147-.795.416-.185.78-.438 1.077-.78.417-.485.6-1.045.49-1.68-.08-.45-.272-.854-.61-1.177-.207-.2-.134-.575.13-.65.218-.064.416-.168.607-.287.772-.484 1.188-1.365 1.04-2.23-.15-.872-.83-1.36-1.537-1.37-1.553-.022-3.106-.006-4.66-.006-2.334 0-4.67 0-7.004-.002-.13 0-.133-.01-.106-.135l.008-.038c.366-1.63.713-3.264.933-4.92.076-.578.124-1.16.147-1.744.02-.508-.083-1-.21-1.488-.358-1.382-.896-2.697-1.5-3.987-.026-.058-.065-.1-.118-.132-.442-.285-.925-.41-1.45-.38-.442.024-.843.153-1.21.396-.11.072-.154.15-.154.285.004 1.674.002 3.344.003 5.014 0 .09-.01.172-.05.252-.525 1.014-1.065 2.02-1.636 3.007-1.18 2.036-2.478 3.995-3.945 5.84-.064.08-.14.146-.222.203-.612.418-1.22.805-1.835 1.22-.117.08-.16.162-.16.302.003 3.993.002 8.02.003 12.013 0 .035.003.068 0 .1 0 .07.033.097.1.1.314 0 .63.027.945.004.273-.018.505.036.74.186.48.31.98.592 1.487.86.112.057.225.107.353.11.208.007.416.016.624.018.82.01 1.643.013 2.465.02 1.518.006 3.04-.002 4.56-.002z"/><circle fill="#fff" cx="-59.851" cy="-544.384" r="1.647"/><path d="M-48-300.34l7-4.075v-8.15l-7 4.086zm-9-4.022l7 4.02v-8.156l-7-4.03zm8.118-13.823l-6.98 4.03 6.935 4 7.007-4.04zm6.962-16.683l-6.962-3.988-6.98 4.027 6.935 4.004zM-50-328.08l-7 4.087v8.14l7-4.077zm-16 8.202l7 4.02v-8.156l-7-4.03zm0 10.52l7 4.02v-8.157l-7-4.03zm7.957-24.342l-6.98 4.028 6.936 4.002 7.007-4.04zM-41-323.993l-7-4.088v8.15l7 4.075zm9-4.05l-7 4.03v8.156l7-4.02zm-7 22.703l7-4.018v-8.166l-7 4.03zm-.834-28.36l-6.96 3.99 7.005 4.04 6.94-4.002zM-32.65-193.787l-7.556-7.555 2.14-2.09-3.05-3.048 1.403-1.463 3.05 3.05 4.062-4.064-8.133-8.13-7.61 7.61-4.675-4.676c-.143-.144-.332-.213-.527-.244l.005-.025-12.3-2.064 2.14 12.234.017-.002c.033.188.105.372.252.518l4.672 4.674-7.375 7.376 8.13 8.13 4.063-4.064-3.047-3.05 1.474-1.457 3.048 3.05 1.84-1.853 7.56 7.56c.18.182.426.283.682.283s.5-.102.682-.282l9.05-9.05c.376-.38.376-.99 0-1.366zm-21.05-18.32l3.994 3.994 5.08 5.08 9.928 9.93-1.597 1.597-6.88-6.88-8.128-8.13-3.993-3.993 1.597-1.595zm14.21 23.798l-6.88-6.88-8.13-8.13-3.993-3.99 1.834-1.835 3.995 3.993 8.13 8.13 6.878 6.88-1.833 1.834zm-21.93-25.64l5.715 1.12-6.414 6.417-1.1-5.666 1.8-1.87zm.035 9.533l1.528-1.53 3.993 3.994 8.13 8.13 6.88 6.88-1.528 1.527-9.93-9.93-5.08-5.08-3.993-3.99z" fill="#44AEE5"/><path d="M2466.525-596.87l-1.33.65-.693-1.307-1.077-2.032-5.335 14.66 5.593-2.48 2.55 5.445 3.055-8.396-2.438-6.7zm8.555-.657l-.694 1.307-1.33-.65-1.178-.577-2.087-1.022-1.56.765 1.873 5.14 3.87 10.63 2.55-5.444 5.592 2.48-5.59-15.352zm-14.985-9.687l-.613 4.34 4.317.757.33.623 1.723 3.25.47-.23.69-.338.692-.338 2.085-1.02 2.614 1.276 1.325.65 2.052-3.874.06-.01.765-.135.764-.134 2.73-.48-.614-4.34 3.047-3.15-3.047-3.15.613-4.34-4.318-.757-2.054-3.872-3.94 1.925-3.937-1.927-2.054 3.872-4.317.758.613 4.34-3.047 3.15 3.048 3.152zm9.696-9.728c3.624 0 6.57 2.946 6.57 6.567 0 1.51-.533 2.885-1.393 3.996-.378.49-.817.93-1.317 1.295-.963.705-2.12 1.138-3.38 1.23-.16.012-.314.048-.478.048-.492 0-.968-.063-1.43-.167-2.934-.656-5.137-3.27-5.137-6.4 0-3.62 2.945-6.567 6.566-6.567zm0 11.605c2.78 0 5.04-2.26 5.04-5.038s-2.26-5.037-5.04-5.037c-2.776 0-5.037 2.26-5.037 5.037s2.26 5.038 5.038 5.038z" fill="#fff" stroke="#44AEE5" stroke-width=".2" stroke-miterlimit="10"/><path fill="#44AEE5" d="M1928-300h91v64h-91z"/><path fill="#0071BC" d="M1998-214v-22h21"/><path fill="#fff" d="M1985.938-278.693v-3.75h-11.625v3.75h-3.75v-3.75h-11.625v3.75h-3.376v11.25h3.376v4.126h3.75v3.374h3.75v4.125h3.75v3.375h4.5v-3.375h3.75v-4.125h3.75v-3.374h3.75v-4.126h3.374v-11.25"/><path stroke="#44AEE5" stroke-width="2.451" stroke-miterlimit="10" fill="none" d="M1961.6-269.077l10.837 10.547"/><path fill="#44AEE5" d="M-121-637v-3h-11v3h-4v-3h-12v3h-3v12h3v4h4v3h4v4h4v4h4v-4h4v-4h4v-3h3v-4h4v-12h-4zm-14.196 22.244l-10.836-10.547 1.71-1.756 10.836 10.55-1.71 1.755zM-53.96-81.602l-1.712-3.226L-60.85-70.6l5.467-2.425 2.49 5.314 2.96-8.138-2.387-6.56zm9.275 0l-4.638-2.27-1.435.702 5.626 15.46 2.49-5.315.09.04 5.378 2.384-5.432-14.923zm-14.23-11.16l-.605 4.29 4.27.75 2.032 3.83 3.895-1.906 3.895 1.905 2.032-3.83 1.637-.287 2.634-.46-.606-4.293 3.014-3.117-3.013-3.116.605-4.29-4.27-.75-2.032-3.83-3.894 1.903-3.896-1.904-2.03 3.83-.05.01-4.22.74.605 4.29-3.015 3.117 3.016 3.117zm9.59-9.795c3.678 0 6.67 2.99 6.67 6.667 0 1.46-.49 2.862-1.414 4.058-.39.51-.84.95-1.335 1.312-.99.725-2.176 1.156-3.43 1.248-.06.005-.122.014-.182.02-.098.015-.198.028-.305.028-.468 0-.943-.055-1.452-.17-3.02-.675-5.215-3.408-5.215-6.497 0-3.677 2.99-6.668 6.668-6.668zm.002 11.607c2.724 0 4.94-2.217 4.94-4.94s-2.216-4.937-4.94-4.937c-2.723 0-4.938 2.215-4.938 4.938s2.213 4.94 4.936 4.94zM-43-440.5h5v19h-5zm-8.466 4.07H-74.25V-426h22.784l6.216 4.017v-18.033l-6.216 3.585zm-6.544 7.45c-1.168 0-2.114-.948-2.114-2.116 0-1.166.946-2.113 2.114-2.113 1.167 0 2.114.95 2.114 2.115 0 1.167-.946 2.115-2.114 2.115zM-36-432.5h12v3h-12zm0-6.288v3.195l12-4.4v-3.195zm0 11.912v3.31l12 5.56v-3.308z"/><path fill="#0071BC" d="M69-379v-22h21"/><path fill="#44AEE5" d="M-1-465h91v64H-1z"/><path d="M50.812-443.2h5v19h-5zm-8.466 4.067H19.562v10.43h22.784l6.216 4.018v-18.033l-6.216 3.585zm-6.543 7.45c-1.168 0-2.114-.948-2.114-2.116 0-1.164.944-2.11 2.112-2.11 1.167 0 2.114.946 2.114 2.112 0 1.17-.947 2.116-2.114 2.116zm22.01-3.517h12v3h-12zm.187-6.29v3.195l12-4.398v-3.196zm0 11.912v3.308l12 5.563v-3.31z" fill="#fff"/></svg><svg width="50" height="50" viewBox="0 0 50 50" id="sonderpreis" x="786" y="676"><path d="M20.164 31.398l-1.71-3.226-5.18 14.227 5.468-2.426 2.49 5.314 2.96-8.137-2.387-6.56zm9.276 0l-4.638-2.27-1.435.702 5.626 15.46 2.49-5.315.09.04L36.95 42.4l-5.43-14.923zm-14.23-11.16l-.605 4.29 4.27.75 2.032 3.83 3.895-1.906 3.895 1.905 2.032-3.83 1.635-.287 2.632-.46-.606-4.293 3.015-3.117-3.014-3.116.607-4.29-4.27-.75-2.032-3.83L24.8 7.036l-3.894-1.904-2.032 3.83-.048.01-4.222.74.606 4.29-3.014 3.117 3.015 3.116zm9.592-9.795c3.676 0 6.667 2.99 6.667 6.667 0 1.46-.49 2.862-1.415 4.058-.393.51-.843.95-1.337 1.312-.99.725-2.177 1.156-3.43 1.248-.062.005-.123.014-.183.02-.098.015-.198.028-.305.028-.468 0-.943-.055-1.452-.17-3.02-.675-5.215-3.408-5.215-6.497 0-3.677 2.99-6.668 6.667-6.668zm0 11.607c2.724 0 4.94-2.217 4.94-4.94s-2.216-4.937-4.94-4.937c-2.723 0-4.938 2.215-4.938 4.938s2.215 4.94 4.938 4.94z" fill="#44AEE5"/></svg><svg width="91" height="86" viewBox="0 0 91 86" id="sonderpreis_flag" x="836" y="726"><path d="M4176-347h40v44h-40zm259 42h40v44h-40zm160 346h40v44h-40zm-712 0h40v44h-40z" fill="#fff"/><path d="M3600.485-785.09v-3.06H3591v3.06h-3.06v-3.06h-9.483v3.06h-2.753v9.178h2.754v3.366h3.06v2.753h3.06v3.365h3.058v2.754h3.672v-2.754h3.06v-3.365h3.06v-2.753h3.06v-3.366h2.754v-9.18"/><path d="M3582.43-864.206l-13.453-7.3v-4.04l13.454-7.263v4.76l-8.375 4.476 8.377 4.643v4.725zm2.89-3.707l4.543-.553c.145 1.16.535 2.044 1.17 2.655.634.61 1.4.917 2.304.917.97 0 1.785-.366 2.446-1.103.662-.733.993-1.724.993-2.972 0-1.18-.316-2.115-.952-2.806-.635-.69-1.408-1.035-2.32-1.035-.602 0-1.32.117-2.153.353l.52-3.825c1.27.03 2.235-.24 2.905-.824.667-.586 1.002-1.364 1.002-2.333 0-.823-.245-1.48-.734-1.97-.49-.49-1.142-.735-1.954-.735-.803 0-1.487.278-2.056.836-.57.558-.913 1.37-1.036 2.44l-4.324-.735c.3-1.48.753-2.66 1.36-3.546.607-.886 1.452-1.583 2.538-2.088 1.087-.507 2.303-.764 3.65-.764 2.305 0 4.153.734 5.544 2.204 1.146 1.202 1.72 2.56 1.72 4.074 0 2.148-1.173 3.863-3.52 5.144 1.4.3 2.522.975 3.362 2.02.84 1.046 1.262 2.31 1.262 3.79 0 2.15-.786 3.98-2.354 5.495-1.57 1.515-3.525 2.27-5.862 2.27-2.216 0-4.053-.633-5.512-1.907-1.46-1.274-2.306-2.944-2.54-5.003zM3241-1049h30v13h-30zm34-4h7v21h-7z"/><ellipse cx="3281.593" cy="-1042.498" rx="6.657" ry="10.558"/><path d="M3282.488-1042.498c0 5.83-3.258 10.558-7.277 10.558-4.016 0-9.126-4.727-9.126-10.558s5.11-10.558 9.128-10.558c4.02 0 7.278 4.727 7.278 10.558zm-45.608-.088c0-3.637 1.94-6.39 4.1-6.39s4.71 2.753 4.71 6.39c0 3.64-2.744 6.587-4.902 6.587s-3.91-2.946-3.91-6.585z"/><path fill="#fff" d="M3285.583-1042.498c0 4.514-1.8 8.173-2.747 8.173-.945 0-2.35-3.66-2.35-8.173s1.404-8.173 2.35-8.173c.946 0 2.747 3.657 2.747 8.17z"/><path d="M3287-1044h16v4h-16zm-.307 5.845l14.523 6.715-1.68 3.632-14.522-6.715zm-1.833-10.875l15.016-5.52 1.38 3.755-15.017 5.52zm257.93 272.51l8.162-2.97-1.065-2.93-8.247 3.004c.085-.032.576 1.165.79 1.754.128.35.032.157.36 1.142zm7.47 6.147l.746-2.897-8.04-1.915c.108 1.046.052 2.032-.154 2.902l7.448 1.91zm-4.127-16.287l-2.438-1.75-4.972 5.572c.75.488 1.464 1.182 2.09 2.038l5.32-5.86zm-5.928 7.548c-.233-.425-.485-.823-.756-1.19-.63-.856-1.38-1.65-2.127-2.14-1.177-.768-2.468-1.134-3.59-.726l-4.353 1.585c-1.585.576-3.063 2.22-3.617 4.632l-12.062 4.39-.53.19c-1.474.538-2.16 2.874-1.257 5.355.903 2.482 2.784 4.033 4.257 3.498l12.785-4.654c1.622.513 4.165 1.796 5.753 1.22l4.354-1.585c1.226-.446 2.04-1.664 2.405-3.202.207-.87.253-1.882.144-2.928-.055-.562-.166-1.152-.322-1.736-.093-.348-.196-.7-.323-1.05-.216-.59-.475-1.147-.76-1.663zm-.908 8.58c-.177.062-.444-.054-.762-.314-.267-.22-.567-.54-.883-.948-.686-.893-1.43-2.196-1.99-3.73-.56-1.535-.825-3.014-.873-4.137-.024-.52 0-.957.065-1.297.075-.402.205-.665.38-.73.647-.234 2.783 1.816 3.904 4.897 1.12 3.08.8 6.02.156 6.257z"/><circle fill="#fff" cx="3522.675" cy="-770.64" r="1.494"/><path d="M3301.632-988H3310v-3h-8.453c.087 0 .138 1.245.138 1.85 0 .357-.023.15-.053 1.15zm4.738 8.024l1.63-2.376-6.646-4.383c-.246.982-.622 1.856-1.096 2.575l6.112 4.184zm1.63-16.1l-1.63-2.388-6.335 3.406c.517.688.934 1.552 1.22 2.533l6.745-3.55zm-7.852 4.88c-.07-.463-.17-.906-.292-1.328-.286-.98-.703-1.948-1.22-2.637-.812-1.084-1.86-1.84-3.008-1.84h-4.463c-1.626 0-3.505 1-4.802 3h-12.91c-1.51 0-2.9 1.89-2.9 4.43 0 2.546 1.19 4.57 2.7 4.57h13.108c1.3 1 3.18 3 4.807 3h4.463c1.255 0 2.393-.835 3.23-2.106.473-.72.85-1.62 1.095-2.603.133-.526.227-1.097.278-1.68.03-.342.052-.696.052-1.054 0-.604-.05-1.194-.137-1.754zm-3.65 7.464c-.18 0-.383-.194-.584-.534-.17-.286-.337-.674-.487-1.15-.326-1.032-.57-2.457-.57-4.03s.244-3 .57-4.033c.15-.474.318-.86.487-1.147.2-.34.405-.534.585-.534.66 0 1.92 2.56 1.92 5.715s-1.26 5.714-1.92 5.714z"/><circle fill="#fff" cx="3281.49" cy="-989.304" r="1.145"/><path d="M3310.516-1104.26l-43.15-24.74.15-49.738 43.3-25L3353.97-1179l-.15 49.74z"/><path stroke="#fff" stroke-width="5" stroke-miterlimit="10" fill="none" d="M3310.5-1154v83m-78.166-128.448l78.51 45.294m78.002-45.294l-78.51 45.294"/><path stroke="#fff" stroke-width=".5" stroke-miterlimit="10" d="M3481.06-771.512l-5.062 2.908v5.796l5.06-2.9zm-10.815.022v5.815l4.956 2.867v-5.807zm10.347-.637l-4.966-2.845-4.978 2.87 4.95 2.857zm0-13.258l-4.966-2.844-4.978 2.873 4.95 2.855zm-5.408 3.923l-5.06 2.908v5.796l5.06-2.9zm-10.814.022v5.815l4.956 2.867v-5.807zm0 6.745v5.816l4.956 2.87v-5.808zm10.347-7.382l-4.966-2.845-4.976 2.87 4.95 2.857zm1.28.615l5.06 2.908v5.796l-5.06-2.9zm10.813.022v5.815l-4.956 2.867v-5.807zm0 6.745v5.816l-4.956 2.87v-5.808zm-10.346-7.382l4.966-2.845 4.977 2.87-4.95 2.857z"/><path d="M3633.468-781.564l3.98-8.255 4.136 8.21 9.084 1.27-6.504 6.444 1.633 9.04-8.153-4.23-8.076 4.318 1.465-9.054-6.625-6.37z"/><path stroke="#fff" stroke-miterlimit="10" d="M3629.957-781.662" fill="none"/><path stroke="#fff" stroke-width="1.5" stroke-miterlimit="10" fill="none" d="M3638.12-771.778l4.044 3.023m-61.534-8.49l8.84 8.605m45.678-10.805l1.684-4.852"/><path stroke="#000" stroke-width="1.5" stroke-miterlimit="10" fill="none" d="M3636.428-877.328l-.624 4.925H3631"/><path stroke="#fff" stroke-width="1.5" stroke-miterlimit="10" d="M3530.07-778c0-4.79 4.047-8.664 9.048-8.664" fill="none"/><path d="M3542.79-879.52l8.162-2.97-1.065-2.93-8.247 3.004c.085-.032.576 1.165.79 1.754.128.35.032.157.36 1.142zm7.47 6.147l.746-2.897-8.04-1.915c.108 1.046.052 2.032-.154 2.902l7.448 1.91zm-4.127-16.287l-2.438-1.75-4.972 5.572c.75.488 1.464 1.182 2.09 2.038l5.32-5.86zm-5.928 7.548c-.233-.425-.485-.823-.756-1.19-.63-.856-1.38-1.65-2.127-2.14-1.177-.768-2.468-1.134-3.59-.726l-4.353 1.585c-1.585.576-3.063 2.22-3.617 4.632l-12.062 4.39-.53.19c-1.474.538-2.16 2.874-1.257 5.355.903 2.482 2.784 4.033 4.257 3.498l12.785-4.654c1.622.513 4.165 1.796 5.753 1.22l4.354-1.585c1.226-.446 2.04-1.664 2.405-3.202.207-.87.253-1.882.144-2.928-.055-.562-.166-1.152-.322-1.736-.093-.348-.196-.7-.323-1.05-.216-.59-.475-1.147-.76-1.663zm-.908 8.58c-.177.062-.444-.054-.762-.314-.267-.22-.567-.54-.883-.948-.686-.893-1.43-2.196-1.99-3.73-.56-1.535-.825-3.014-.873-4.137-.024-.52 0-.957.065-1.297.075-.402.205-.665.38-.73.647-.234 2.783 1.816 3.904 4.897 1.12 3.08.8 6.02.156 6.257z"/><circle fill="#fff" cx="3522.675" cy="-873.64" r="1.494"/><path stroke="#fff" stroke-miterlimit="10" d="M3530.07-881c0-4.79 4.047-8.664 9.048-8.664" fill="none"/><path stroke="#000" stroke-miterlimit="10" fill="none" d="M3441.5-916.5l3.97-5.654 4.03 5.654"/><path d="M3447.545-919h-4.148l2.075-3.39z"/><path stroke="#000" stroke-linejoin="round" stroke-miterlimit="10" fill="none" d="M3441.5-916.5h8v18h-8z"/><path stroke="#000" stroke-miterlimit="10" fill="none" d="M3446.882-916v18m-2.826-18v18"/><path d="M3428-923h8v25h-8z"/><path d="M3433-918.5h3m-3 4h3m-3 4h3m-3 4h3m-3 4h3" stroke="#fff" stroke-linejoin="round" stroke-miterlimit="10" fill="none"/><path d="M3436.57-787.983l-19.053 19.052 6.098 6.097 3.048-3.05-2.286-2.286 1.105-1.093 2.287 2.287 1.94-1.955-2.286-2.288.763-.762 2.286 2.288 2.286-2.287-2.287-2.284.76-.76 2.287 2.285 2.29-2.285-2.29-2.286.763-.764 2.287 2.286 1.998-1.95-2.287-2.286 1.054-1.098 2.287 2.287 3.05-3.048z"/><path stroke="#000" stroke-miterlimit="10" fill="none" d="M3417.5-879.5l3.97-5.654 4.03 5.654"/><path d="M3423.545-882h-4.148l2.075-3.39z"/><path stroke="#000" stroke-linejoin="round" stroke-miterlimit="10" fill="none" d="M3417.5-879.5h8v18h-8z"/><path stroke="#000" stroke-miterlimit="10" fill="none" d="M3422.882-879v18m-2.826-18v18"/><path d="M3428-886v25h8v-4h-3v-1h3v-3h-3v-1h3v-3h-3v-1h3v-3h-3v-1h3v-3h-3v-1h3v-4z"/><path stroke="#000" stroke-width="1.448" stroke-miterlimit="10" fill="none" d="M3420.054-778.48l-1.428-8.17 8.217 1.38"/><path d="M3423.062-785.734l-1.81 1.812-1.71 1.71-1.115-4.638z"/><path fill="#fff" stroke="#000" stroke-width="1.448" stroke-linejoin="round" stroke-miterlimit="10" d="M3420.042-778.447l6.788-6.79 15.28 15.275-6.79 6.79z"/><path stroke="#000" stroke-width="1.448" stroke-miterlimit="10" fill="none" d="M3425.047-782.625l15.275 15.277m-17.675-12.878l15.277 15.277"/><path d="M3380.675-987.24c0-.584-.475-1.057-1.058-1.057-.584 0-1.058.473-1.058 1.058v1.997c-.234-.12-.47-.23-.713-.33v-5.047c0-.586-.473-1.06-1.056-1.06-.583 0-1.06.474-1.06 1.06v4.415c-.236-.05-.475-.09-.71-.125v-5.14c0-.582-.47-1.055-1.056-1.055-.584 0-1.058.473-1.058 1.056v4.965c-.253-.006-.487-.006-.702 0v-3.06c0-.583-.473-1.056-1.056-1.056s-1.06.472-1.06 1.055v6.71l-.7.702-2.078-2.076c-.413-.413-1.082-.413-1.495 0-.412.41-.412 1.083 0 1.495l4.278 4.277c-.23 8.544-7.252 15.424-15.85 15.424-.583 0-1.057.473-1.057 1.058 0 .584.474 1.057 1.057 1.057 9.908 0 17.97-8.06 17.97-17.97 0-.28-.11-.55-.31-.746l-1.02-1.02.657-.66c.793.122 2.51.542 3.355 1.988.195.338.55.526.914.526.18 0 .363-.048.532-.145.504-.294.673-.942.38-1.444-1.178-2.017-3.266-2.715-4.518-2.954v-1.046c.522-.01 1.223 0 1.997.085 1.328.147 3.108.542 4.355 1.575v3.842c0 13.404-10.906 24.31-24.312 24.31-.583 0-1.057.474-1.057 1.057 0 .584.474 1.06 1.057 1.06 14.57 0 26.427-11.856 26.427-26.427v-8.35zm2.335 15.86c-.09 0-.182-.012-.27-.034-.598-.15-.96-.754-.813-1.35.498-1.992.75-4.054.75-6.125v-4.31c0-.613.498-1.11 1.113-1.11.614 0 1.112.497 1.112 1.112v4.31c0 2.254-.273 4.496-.815 6.665-.126.506-.58.844-1.077.844zm3.55 0c-.09 0-.18-.012-.27-.034-.597-.15-.96-.754-.81-1.35.564-2.27.748-3.76.748-6.125 0-.613.498-1.11 1.113-1.11s1.115.497 1.115 1.112c0 2.54-.207 4.223-.815 6.665-.13.506-.582.844-1.08.844z"/><path stroke="#000" stroke-width="3.005" stroke-linecap="round" stroke-linejoin="round" stroke-miterlimit="10" d="M3370.823-774.412" fill="none"/><path fill="#fff" d="M3362.295-722.722v-.328c0-1.935-3-1.935-3 0v.328c0 1.935 3 1.935 3 0z"/><path stroke="#000" stroke-width="2" stroke-miterlimit="10" d="M3394.637-779.835c1.95 3.925 1.112 11.723-1.896 14.29m6.846-10.765c.287 2.55-.037 5.468-.903 7.74" fill="none"/><path d="M3391.113-784h-.227c-.49 0-.887.396-.887.886v3.755c-.314-.142-.648-.262-1-.353v-6.4c0-.488-.398-.885-.89-.885h-.226c-.49 0-.887.397-.887.887v6.123c-.164-.005-.33-.01-.494-.01h-.506v-7.113c0-.49-.396-.886-.887-.886h-.226c-.49 0-.887.397-.887.887v7.194c-.354.037-.688.095-1 .176v-5.37c0-.488-.396-.885-.887-.885h-.227c-.49 0-.887.397-.887.887v8.613c1.145-.138 2.428.09 3.468.655 1.33.722 2.31 1.95 2.75 3.407l-1.328.444c-.366-1.204-1.09-2.1-2.187-2.696-.89-.483-1.727-.712-2.705-.566l-2.908-2.067c-.347-.345-.907-.345-1.254 0l-.16.16c-.347.35-.347.91 0 1.255l5.024 5.462c.234.397.522.74.847 1.038-2.082 1.163-6.284 1.936-10.55 1.936v7c9.79 0 16.182-2.347 18.206-7.01.767-1.348 1.484-3.233 1.725-5.05.046-.108.07-.226.07-.35v-10.228c.005-.49-.39-.887-.882-.887z"/><path fill="#44AEE5" d="M-21.683-551.01c-.094-.28-.34-.454-.635-.496l-13.828-1.87-6.295-12.408c-.135-.264-.406-.216-.7-.216h-.008c-.298 0-.57-.042-.7.228l-6.057 12.33-13.787 2.093c-.296.047-.54.26-.63.544s-.012.598.204.805l10.084 9.7-2.23 13.782c-.047.294.076.593.32.766.135.096.294.144.454.144.126 0 .253-.028.37-.09l12.29-6.57 12.41 6.435c.263.138.584.112.825-.065.24-.177.36-.475.306-.768l-2.485-13.754 9.9-9.796c.21-.212.285-.51.19-.79zm-21.925-2.785c-.415 1.226-1.075 2.368-1.763 3.16-.347.395-.68.71-.94.92-.255.213-.436.323-.436.323s-.077-.196-.152-.52c-.08-.326-.153-.777-.188-1.302-.07-1.047.096-2.355.508-3.582.41-1.227 1.07-2.37 1.76-3.16.345-.397.678-.71.938-.92.257-.214.44-.323.44-.323s.077.2.152.523c.08.326.155.777.19 1.302.072 1.048-.095 2.356-.51 3.58zm9.727 23.182c-.35-.044-.827-.14-1.36-.3-1.07-.32-2.326-.97-3.42-1.82-1.097-.855-2.034-1.912-2.61-2.866-.29-.476-.5-.912-.63-1.24-.134-.322-.188-.536-.188-.536s.22 0 .567.048c.35.046.823.143 1.357.304 1.068.322 2.325.968 3.422 1.817 1.097.852 2.035 1.907 2.612 2.863.288.478.498.914.628 1.242.134.324.187.54.187.54s-.22 0-.568-.048z"/><path stroke="#44AEE5" stroke-width="2" stroke-miterlimit="10" d="M-463.707-278.835c1.95 3.925 1.112 11.723-1.896 14.29m6.845-10.765c.287 2.55-.037 5.468-.903 7.74" fill="none"/><path fill="#44AEE5" d="M-467.23-283h-.227c-.49 0-.543.396-.543.886v3.755c-1-.142-1-.262-1-.353v-6.4c0-.488-.74-.885-1.23-.885h-.227c-.49 0-.543.397-.543.887v6.123c-1-.005-.673-.01-.838-.01H-472v-7.113c0-.49-.74-.886-1.23-.886h-.227c-.49 0-.543.397-.543.887v7.194c-1 .037-1 .095-1 .176v-5.37c0-.488-.74-.885-1.23-.885h-.227c-.49 0-.543.397-.543.887v8.613c1-.138 2.256.09 3.296.655 1.33.722 2.223 1.95 2.665 3.407l-1.37.444c-.366-1.204-1.11-2.1-2.21-2.696-.89-.483-1.733-.712-2.712-.566l-2.914-2.067c-.347-.345-.91-.345-1.256 0l-.162.16c-.347.35-.347.91 0 1.255l5.024 5.462c.233.397.693.74 1.017 1.038-2.082 1.163-6.377 1.936-10.377 1.936v7c9 0 16.01-2.347 18.033-7.01.766-1.348 1.57-3.233 1.81-5.05.046-.108.157-.226.157-.35v-10.228c0-.49-.74-.887-1.23-.887z"/><path fill="none" d="M136.305-553.555h352v20.5h-352z"/><text transform="translate(136.305 -539.666)" fill="#44AEE5" font-family="'Ebisu'" font-size="19.843">featured</text><path fill="none" d="M136.305-436.573h352v20.5h-352z"/><text transform="translate(136.305 -422.684)" fill="#44AEE5" font-family="'Ebisu'" font-size="19.843">mit code die welt verbessern</text><path fill="none" d="M136.305-319.592h352v20.5h-352z"/><text transform="translate(136.305 -305.703)" fill="#44AEE5" font-family="'Ebisu'" font-size="19.843">aha moment/innovation</text><path fill="none" d="M136.305-202.61h352v20.5h-352z"/><text transform="translate(136.3 -188.719)" fill="#44AEE5" font-family="'Ebisu'" font-size="19.843">bester code</text><path fill="none" d="M136.305-85.63h352v20.5h-352z"/><text transform="translate(136.305 -71.74)" fill="#44AEE5" font-family="'Ebisu'" font-size="19.843">bestes design</text><path fill="none" d="M135.24 32.172h352v20.5h-352z"/><text transform="translate(135.24 46.06)" fill="#44AEE5" font-family="'Ebisu'" font-size="19.843">sonderpreis</text><path fill="none" d="M136.305 148.334h352v20.5h-352z"/><text transform="translate(136.305 162.223)" fill="#44AEE5" font-family="'Ebisu'" font-size="19.843">publikumspreis</text><path fill="#44AEE5" d="M4206.104-328.478c-.06-.18-.218-.29-.405-.317l-8.826-1.193-4.018-7.896c-.086-.168-.258-.115-.447-.115h-.005c-.19 0-.363-.047-.446.125l-3.867 7.857-8.8 1.33c-.187.03-.343.162-.4.344s-.007.38.13.512l6.436 6.19-1.423 8.796c-.03.188.048.377.203.487.087.06.19.093.29.093.082 0 .162-.02.236-.06l7.844-4.192 7.92 4.108c.168.087.373.07.526-.042s.23-.303.195-.49l-1.585-8.777 6.318-6.253c.135-.134.182-.324.122-.504z"/><path stroke="#fff" stroke-miterlimit="10" d="M4184.92-329.662" fill="none"/><path stroke="#fff" stroke-width="2" stroke-miterlimit="10" fill="none" d="M4193.083-319.778l4.043 3.023m-7.016-10.69l1.684-4.852"/><path fill="#44AEE5" d="M4622.104 50.522c-.06-.18-.218-.29-.405-.317l-8.826-1.193-4.018-7.896c-.086-.168-.258-.115-.447-.115h-.005c-.19 0-.363-.047-.446.125l-3.867 7.857-8.8 1.33c-.187.03-.343.162-.4.344s-.007.38.13.512l6.436 6.19-1.423 8.796c-.03.188.048.377.203.487.087.06.19.093.29.093.082 0 .162-.02.236-.06l7.844-4.192 7.92 4.108c.168.087.373.07.526-.042s.23-.303.195-.49l-1.585-8.777 6.318-6.253c.135-.134.182-.324.122-.504z"/><path stroke="#fff" stroke-miterlimit="10" d="M4600.92 49.338" fill="none"/><path stroke="#fff" stroke-width="2" stroke-miterlimit="10" fill="none" d="M4609.083 59.222l4.043 3.023m-7.016-10.69l1.684-4.852"/><path fill="#44AEE5" d="M3613.104.522c-.06-.18-.218-.29-.405-.317l-8.826-1.193-4.018-7.896c-.086-.17-.257-.116-.447-.116h-.005c-.19 0-.363-.05-.446.123l-3.867 7.857-8.8 1.33c-.187.028-.343.16-.4.343s-.007.38.13.512l6.436 6.19-1.423 8.796c-.03.19.048.38.203.49.087.06.19.092.29.092.082 0 .162-.02.236-.058l7.844-4.193 7.92 4.107c.168.087.373.07.526-.042s.23-.303.195-.49l-1.585-8.777 6.318-6.252c.135-.133.182-.323.122-.503z"/><path stroke="#fff" stroke-miterlimit="10" d="M3591.92-.662" fill="none"/><path stroke="#fff" stroke-width="2" stroke-miterlimit="10" fill="none" d="M3600.083 9.222l4.043 3.023m-7.016-10.69l1.684-4.852"/><path fill="#44AEE5" d="M2427-517h87v64h-87z"/><path fill="#0071BC" d="M2493-431v-22h21"/><path fill="#44AEE5" d="M2920-517h91v64h-91z"/><path fill="#0071BC" d="M2990-431v-22h21m-70 22v-22h-21"/><path d="M2964-465.825l7-4.075v-8.152l-7 4.088zm-9-4.023l7 4.02v-8.155l-7-4.032zm8.056-13.822l-6.98 4.028 6.935 4 7.01-4.04zm6.962-16.684l-6.962-3.988-6.98 4.028 6.935 4.002zm-8.018 6.788l-7 4.087v8.14l7-4.074zm-16 8.203l7 4.02v-8.156l-7-4.03zm0 10.52l7 4.02v-8.157l-7-4.03zm7.895-24.342l-6.98 4.028 6.936 4.002 7.008-4.04zM2971-489.48l-7-4.086v8.15l7 4.076zm9-4.05l-7 4.03v8.157l7-4.02zm-7 22.706l7-4.02v-8.166l-7 4.03zm-.896-28.36l-6.96 3.99 7.004 4.04 6.938-4.003z" fill="#fff"/><path fill="#44AEE5" d="M-451-177.61l-8.647-8.324-8.353 8.325V-219h17zM0 0h91v64H0z"/><path fill="#0071BC" d="M70 86V64h21"/><path d="M42.41 37.614l-1.328.652-.694-1.308-1.077-2.03-5.333 14.658 5.592-2.48 2.55 5.444 3.055-8.397-2.44-6.698zm8.555-.656l-.693 1.308-1.33-.652-1.178-.576-2.087-1.02-1.56.76 1.87 5.14 3.87 10.632 2.55-5.445L58 49.585l-5.59-15.353zM35.98 27.27l-.613 4.34 4.317.758.33.623 1.725 3.25.47-.23.69-.336.69-.338 2.085-1.02 2.613 1.276 1.324.65 2.054-3.873.06-.01.765-.136.765-.134 2.728-.48-.613-4.34 3.047-3.15-3.048-3.15.612-4.34-4.317-.757L49.615 12l-3.94 1.924L41.74 12l-2.055 3.87-4.317.76.613 4.338-3.05 3.15 3.05 3.153zm9.697-9.727c3.622 0 6.567 2.946 6.567 6.567 0 1.51-.532 2.885-1.392 3.996-.378.49-.817.927-1.317 1.293-.962.703-2.12 1.136-3.378 1.227-.16.013-.315.05-.48.05-.49 0-.967-.064-1.43-.168-2.933-.657-5.136-3.27-5.136-6.4 0-3.62 2.947-6.568 6.568-6.568zm0 11.605c2.778 0 5.04-2.26 5.04-5.038s-2.262-5.037-5.04-5.037c-2.777 0-5.038 2.26-5.038 5.037s2.26 5.038 5.036 5.038z" fill="#fff" stroke="#44AEE5" stroke-width=".2" stroke-miterlimit="10"/><path fill="#44AEE5" d="M-511.483-182.913l4.462-1.98 2.033 4.345 5.757-15.82-6.496-2.364zm6.133-13.817l7.642-2.785 6.458 17.74-5.23-2.317-2.402 5.134z"/><path fill="#fff" d="M-498.072-198.732l5.758 15.82-4.463-1.98-2.034 4.344-5.76-15.82 6.497-2.364m.73-1.565l-1.148.418-6.498 2.367-1.146.417.417 1.146 5.758 15.818 1.006 2.762 1.247-2.66 1.527-3.263 3.372 1.494 2.622 1.164-.98-2.694-5.76-15.82-.417-1.147z"/><path fill="#44AEE5" d="M-502.146-194.42l-3.404 1.667-1.777-3.348-3.732-.657.53-3.75-2.632-2.725 2.634-2.725-.53-3.75 3.733-.656 1.777-3.35 3.404 1.666 3.404-1.665 1.776 3.35 3.732.654-.53 3.75 2.634 2.725-2.634 2.723.53 3.75-3.732.656-1.776 3.347z"/><path fill="#fff" d="M-499.004-212.9l1.64 3.09 3.443.603-.49 3.462 2.43 2.514-2.43 2.513.49 3.462-3.446.604-1.64 3.09-3.14-1.538-3.143 1.537-1.64-3.09-3.443-.605.49-3.462-2.433-2.515 2.432-2.515-.49-3.462 3.445-.603 1.64-3.09 3.143 1.535 3.142-1.536m.525-1.616l-1.06.518-2.606 1.274-2.605-1.273-1.063-.52-.554 1.042-1.36 2.563-2.857.5-1.162.204.165 1.17.405 2.87-2.017 2.084-.82.848.82.848 2.016 2.087-.406 2.87-.165 1.17 1.162.204 2.857.5 1.36 2.565.554 1.044 1.06-.52 2.606-1.275 2.606 1.274 1.06.52.554-1.044 1.36-2.562 2.857-.5 1.162-.205-.165-1.17-.406-2.87 2.018-2.087.82-.85-.82-.848-2.018-2.086.406-2.87.165-1.17-1.16-.205-2.857-.5-1.36-2.563-.553-1.043z"/><circle stroke="#fff" stroke-width="1.22" stroke-miterlimit="10" cx="-502.146" cy="-203.239" r="4.63" fill="none"/><path fill="#44AEE5" d="M1-233h91v64H1z"/><path fill="#0071BC" d="M71-147v-22h21"/><path fill="#44AEE5" d="M302.04 395.398l-1.712-3.226-5.178 14.227 5.467-2.426 2.49 5.314 2.96-8.137-2.387-6.56zm9.275 0l-4.638-2.27-1.435.702 5.626 15.46 2.49-5.315.09.04 5.378 2.384-5.432-14.923zm-14.23-11.16l-.605 4.29 4.27.75 2.032 3.83 3.895-1.906 3.895 1.905 2.032-3.83 1.637-.287 2.634-.46-.606-4.293 3.014-3.117-3.013-3.116.605-4.29-4.27-.75-2.032-3.83-3.894 1.903-3.896-1.904-2.03 3.83-.05.01-4.22.74.605 4.29-3.015 3.117 3.016 3.117zm9.59-9.795c3.678 0 6.67 2.99 6.67 6.667 0 1.46-.49 2.862-1.414 4.058-.39.51-.84.95-1.335 1.312-.99.725-2.176 1.156-3.43 1.248-.06.005-.122.014-.182.02-.098.015-.198.028-.305.028-.468 0-.943-.055-1.452-.17-3.02-.675-5.215-3.408-5.215-6.497 0-3.677 2.99-6.668 6.668-6.668zm.002 11.607c2.724 0 4.94-2.217 4.94-4.94s-2.216-4.937-4.94-4.937c-2.723 0-4.938 2.215-4.938 4.938s2.213 4.94 4.936 4.94z"/><path d="M47-182.34l7-4.075v-8.15l-7 4.086zm-9-4.022l7 4.02v-8.156l-7-4.03zm8.118-13.823l-6.98 4.03 6.935 4 7.007-4.04zm6.962-16.683l-6.962-3.988-6.98 4.027 6.935 4.004zM45-210.08l-7 4.087v8.14l7-4.077zm-16 8.202l7 4.02v-8.156l-7-4.03zm0 10.52l7 4.02v-8.157l-7-4.03zm7.957-24.342l-6.98 4.028 6.936 4.002 7.007-4.04zM54-205.993l-7-4.088v8.15l7 4.075zm9-4.05l-7 4.03v8.156l7-4.02zm-7 22.703l7-4.018v-8.166l-7 4.03zm-.834-28.36l-6.96 3.99 7.005 4.04 6.94-4.002zM-242.66-317.51l9.796-3.564-1.278-3.514-9.897 3.604c.104-.04.694 1.398.95 2.104.153.42.038.188.43 1.37zm8.965 7.376l.895-3.477-9.648-2.3c.13 1.255.062 2.44-.185 3.482l8.938 2.293zm-4.952-19.546l-2.925-2.1-5.967 6.688c.9.586 1.76 1.418 2.51 2.445l6.384-7.032zm-5.428 14.397c-.068-.674-.202-1.383-.39-2.083-.11-.416-.234-.84-.387-1.258-.258-.708-.568-1.377-.91-1.997-.28-.51-.582-.99-.906-1.43-.752-1.028-1.652-1.98-2.55-2.568-1.412-.92-2.96-1.36-4.307-.87l-1.528.698c-1.23 1.58-1.97 2.79-1.97 5.79h-1.8c0-2 .386-3.38 1.06-4.803l-.985.288c-1.903.69-3.68 2.627-4.342 5.522l-14.476 5.25-.64.224c-1.767.647-2.59 3.445-1.507 6.423 1.084 2.98 3.34 4.838 5.108 4.196l15.344-5.59c1.945.618 4.997 2.158 6.902 1.464l5.224-1.9c1.47-.535 2.448-1.997 2.886-3.843.248-1.04.304-2.256.172-3.512zm-21.965 6.91c-1.148.417-2.42-.176-2.838-1.323-.417-1.147.174-2.417 1.323-2.837 1.15-.416 2.42.174 2.836 1.32.42 1.15-.172 2.418-1.32 2.84zm19.19-1.953c-.213.076-.534-.062-.915-.376-.32-.264-.68-.646-1.06-1.138-.823-1.07-1.717-2.636-2.388-4.478s-.99-3.616-1.05-4.964c-.025-.62.005-1.146.082-1.554.09-.482.244-.798.455-.875.774-.284 3.34 2.177 4.685 5.873 1.346 3.697.963 7.228.19 7.51z" fill="#fff"/><path fill="#44AEE5" d="M1-464h91v64H1z"/><path fill="#0071BC" d="M71-378v-22h21"/><path fill="#fff" d="M59.5-443.73v-3.75H47.875v3.75h-3.75v-3.75H32.5v3.75h-3.376v11.25H32.5v4.126h3.75v3.375H40v4.127h3.75v3.375h4.5v-3.374H52v-4.125h3.75v-3.374h3.75v-4.126h3.374v-11.25"/><path stroke="#44AEE5" stroke-width="2.451" stroke-miterlimit="10" fill="none" d="M34.664-434.113L45.5-423.566"/><path fill="#44AEE5" d="M0-115h91v64H0z"/><path fill="#0071BC" d="M70-29v-22h21"/><path fill="#fff" d="M62.35-76.787l-7.556-7.555 2.14-2.09-3.05-3.048 1.403-1.463 3.05 3.05 4.062-4.064-8.133-8.13-7.61 7.61-4.675-4.676c-.143-.144-.332-.213-.527-.244l.005-.025-12.3-2.064 2.14 12.234.017-.002c.033.188.105.372.252.518l4.672 4.674-7.375 7.376 8.13 8.13 4.063-4.064-3.047-3.05 1.474-1.457 3.048 3.05 1.84-1.853 7.56 7.56c.18.182.426.283.682.283s.5-.102.682-.282l9.05-9.05c.376-.38.376-.99 0-1.366zM41.3-95.107l3.994 3.994 5.08 5.08 9.928 9.93-1.597 1.597-6.88-6.88-8.128-8.13-3.993-3.993 1.597-1.595zM55.51-71.31l-6.88-6.88-8.13-8.127-3.993-3.993 1.834-1.835 3.995 3.993 8.13 8.13 6.878 6.88-1.833 1.833zM33.58-96.95l5.715 1.12-6.414 6.416-1.1-5.666 1.8-1.87zm.035 9.532l1.528-1.53 3.993 3.994 8.13 8.13 6.88 6.88-1.528 1.527-9.93-9.93-5.08-5.08-3.993-3.99z"/><path fill="#44AEE5" d="M1 117h91v64H1z"/><path fill="#0071BC" d="M71 203v-22h21"/><path fill="#fff" d="M41.205 143.762c.488-.45.603-.752 1.004-1.28 1.59-2.086 2.903-4.345 4.06-6.698.09-.188.133-.368.124-.578-.024-.504-.012-1.012-.022-1.52-.02-1.162-.03-2.325-.046-3.49 0-.083.02-.153.068-.225.52-.757 1.23-1.225 2.126-1.425.247-.056.498-.07.747-.097h.303c.137.01.274.02.41.037.608.073 1.19.23 1.728.537.184.105.33.246.437.435.662 1.133 1.215 2.314 1.64 3.56.383 1.112.63 2.248.546 3.44-.047.685-.123 1.363-.254 2.033-.168.87-.41 1.723-.617 2.584-.047.19-.047.19.15.19 3.31 0 6.616.002 9.924 0 .486 0 .935.118 1.352.36 1.355.793 1.96 2.513 1.418 4.012-.256.705-.697 1.28-1.248 1.775-.067.06-.076.105-.032.185.306.575.407 1.185.3 1.825-.148.892-.597 1.618-1.254 2.228-.098.09-.12.164-.082.29.18.603.25 1.215.15 1.84-.137.867-.548 1.584-1.204 2.16-.067.06-.083.11-.062.2.218.867.214 1.73-.104 2.582-.336.9-.934 1.59-1.736 2.104-.667.428-1.39.7-2.193.7H43.66c-.175 0-.347-.02-.514-.07-.61-.188-1.117-.53-1.56-.98-.03-.03-.052-.07-.127-.095 0 .26 0 .497-.003.74-.003.18-.002.363-.028.54-.086.534-.628.97-1.193.97h-11.2c-.054 0-.108-.004-.16-.01-.54-.083-1.064-.615-1.15-1.186-.04-.26-.047-.525-.068-.792-.048-.58-.093-1.16-.138-1.743-.036-.47-.07-.937-.107-1.405-.045-.573-.09-1.15-.133-1.725-.036-.47-.07-.94-.108-1.413-.043-.574-.09-1.147-.134-1.726l-.105-1.41-.134-1.716-.105-1.434-.136-1.766-.057-.608v-.926c.016-.035.03-.067.05-.1.302-.56.735-.912 1.403-.908.795.008 1.59.007 2.385.01 2.194.012 4.388.007 6.58.01l4.286-.02zm10.262 16.163v.007c2.495 0 4.99-.002 7.487.002.207 0 .397-.043.58-.136.605-.303 1.11-.727 1.504-1.276.234-.324.398-.68.418-1.084.028-.534-.207-.952-.592-1.3-.2-.182-.25-.414-.13-.65.043-.085.103-.147.2-.167.106-.022.205-.062.3-.113.617-.34 1.03-.855 1.27-1.504.276-.743.105-1.37-.485-1.898-.26-.233-.185-.647.145-.795.414-.186.778-.44 1.075-.782.418-.484.6-1.044.49-1.68-.08-.45-.27-.853-.608-1.176-.208-.2-.135-.576.13-.652.217-.064.415-.168.606-.287.772-.484 1.188-1.365 1.04-2.23-.15-.872-.83-1.36-1.537-1.37-1.55-.022-3.104-.006-4.657-.006-2.335 0-4.67 0-7.005-.002-.13 0-.133-.01-.106-.135l.01-.04c.365-1.628.712-3.263.932-4.92.076-.577.124-1.16.147-1.743.02-.508-.083-1-.21-1.488-.36-1.384-.896-2.7-1.5-3.99-.026-.057-.065-.1-.12-.13-.44-.288-.923-.413-1.45-.383-.44.024-.84.153-1.21.396-.11.072-.152.15-.152.285.004 1.672.002 3.342.003 5.012 0 .09-.01.172-.05.252-.524 1.014-1.064 2.02-1.635 3.007-1.18 2.036-2.477 3.995-3.944 5.84-.063.08-.14.146-.22.203-.613.418-1.22.805-1.836 1.22-.117.08-.16.162-.16.302.003 3.993.002 8.02.003 12.013v.1c-.003.067.03.095.098.097.314.002.63.028.945.005.272-.018.504.036.738.186.48.31.98.593 1.488.86.11.058.224.108.352.112.208.006.416.015.624.017.822.01 1.644.013 2.466.02 1.518.006 3.04-.002 4.56-.002z"/><circle fill="#44AEE5" cx="35.774" cy="158.155" r="1.647"/><path fill="#44AEE5" d="M-53.42-441.777c.488-.45.603-.752 1.004-1.28 1.593-2.086 2.905-4.345 4.06-6.698.09-.188.135-.368.125-.578-.025-.504-.014-1.012-.023-1.52-.02-1.162-.03-2.325-.046-3.49 0-.083.02-.153.07-.225.52-.76 1.23-1.227 2.126-1.427.246-.056.497-.07.746-.097h.303c.137.01.274.02.41.037.608.073 1.19.23 1.728.537.184.104.33.245.437.434.663 1.133 1.216 2.314 1.642 3.56.382 1.112.63 2.248.545 3.44-.05.685-.125 1.363-.256 2.033-.166.87-.407 1.72-.615 2.582-.046.19-.046.19.15.19 3.31 0 6.617.002 9.925 0 .485 0 .934.118 1.35.36 1.356.793 1.962 2.513 1.42 4.012-.257.705-.698 1.28-1.25 1.775-.066.06-.075.104-.03.184.305.575.406 1.185.3 1.825-.15.892-.598 1.62-1.255 2.23-.097.087-.12.162-.08.29.18.6.25 1.213.15 1.84-.138.865-.55 1.582-1.205 2.16-.067.06-.083.11-.062.197.218.868.214 1.732-.104 2.583-.336.9-.934 1.59-1.736 2.105-.667.428-1.39.7-2.193.7h-15.178c-.176 0-.348-.02-.515-.07-.61-.188-1.117-.53-1.56-.98-.03-.03-.052-.07-.127-.095 0 .26.003.5 0 .74-.004.182-.003.365-.03.54-.084.536-.626.97-1.19.97H-65.59c-.053 0-.107-.002-.16-.01-.54-.08-1.063-.613-1.15-1.184-.038-.26-.046-.525-.067-.792l-.136-1.743-.108-1.402c-.046-.573-.09-1.15-.134-1.725-.037-.47-.072-.942-.11-1.414-.042-.575-.088-1.148-.133-1.727l-.106-1.412c-.043-.57-.09-1.142-.133-1.715-.036-.476-.07-.954-.107-1.434l-.136-1.764-.055-.608v-.926c.016-.034.03-.066.05-.1.302-.558.735-.91 1.403-.907.796.008 1.59.007 2.386.01 2.193.012 4.387.007 6.58.01l4.284-.02zm10.262 16.163v.007c2.495 0 4.99-.002 7.487.002.205 0 .395-.043.58-.136.603-.305 1.107-.73 1.502-1.278.234-.324.397-.68.418-1.084.03-.535-.206-.953-.59-1.3-.2-.183-.25-.415-.132-.652.044-.084.104-.146.2-.166.107-.024.206-.064.3-.115.618-.34 1.032-.855 1.272-1.504.275-.742.104-1.37-.486-1.897-.26-.233-.183-.647.147-.795.416-.185.78-.438 1.077-.78.417-.485.6-1.045.49-1.68-.08-.45-.272-.854-.61-1.177-.207-.2-.134-.575.13-.65.218-.064.416-.168.607-.287.772-.484 1.188-1.365 1.04-2.23-.15-.872-.83-1.36-1.537-1.37-1.553-.022-3.106-.006-4.66-.006-2.334 0-4.67 0-7.004-.002-.13 0-.133-.01-.106-.135l.008-.038c.366-1.63.713-3.264.933-4.92.076-.578.124-1.16.147-1.744.02-.508-.083-1-.21-1.488-.358-1.382-.896-2.697-1.5-3.987-.026-.058-.065-.1-.118-.132-.442-.285-.925-.41-1.45-.38-.442.024-.843.153-1.21.396-.11.072-.154.15-.154.285.004 1.674.002 3.344.003 5.014 0 .09-.01.172-.05.252-.525 1.014-1.065 2.02-1.636 3.007-1.18 2.036-2.478 3.995-3.945 5.84-.064.08-.14.146-.222.203-.612.418-1.22.805-1.835 1.22-.117.08-.16.162-.16.302.003 3.993.002 8.02.003 12.013 0 .035.003.068 0 .1 0 .07.033.097.1.1.314 0 .63.027.945.004.273-.018.505.036.74.186.48.31.98.592 1.487.86.112.057.225.107.353.11.208.007.416.016.624.018.82.01 1.643.013 2.465.02 1.518.006 3.04-.002 4.56-.002z"/><circle fill="#fff" cx="-58.851" cy="-427.384" r="1.647"/><path d="M-47-183.34l7-4.075v-8.15l-7 4.086zm-9-4.022l7 4.02v-8.156l-7-4.03zm8.118-13.823l-6.98 4.03 6.935 4 7.007-4.04zm6.962-16.683l-6.962-3.988-6.98 4.027 6.935 4.004zM-49-211.08l-7 4.087v8.14l7-4.077zm-16 8.202l7 4.02v-8.156l-7-4.03zm0 10.52l7 4.02v-8.157l-7-4.03zm7.957-24.342l-6.98 4.028 6.936 4.002 7.007-4.04zM-40-206.993l-7-4.088v8.15l7 4.075zm9-4.05l-7 4.03v8.156l7-4.02zm-7 22.703l7-4.018v-8.166l-7 4.03zm-.834-28.36l-6.96 3.99 7.005 4.04 6.94-4.002zM-31.65-76.787l-7.556-7.555 2.14-2.09-3.05-3.048 1.403-1.463 3.05 3.05 4.062-4.064-8.133-8.13-7.61 7.61-4.675-4.676c-.143-.144-.332-.213-.527-.244l.005-.025-12.3-2.064 2.14 12.234.017-.002c.033.188.105.372.252.518l4.672 4.674-7.375 7.376 8.13 8.13 4.063-4.064-3.047-3.05 1.474-1.457 3.048 3.05 1.84-1.853 7.56 7.56c.18.182.426.283.682.283s.5-.102.682-.282l9.05-9.05c.376-.38.376-.99 0-1.366zm-21.05-18.32l3.994 3.994 5.08 5.08 9.928 9.93-1.597 1.597-6.88-6.88-8.128-8.13-3.993-3.993 1.597-1.595zm14.21 23.798l-6.88-6.88-8.13-8.13-3.993-3.99 1.834-1.835 3.995 3.993 8.13 8.13 6.878 6.88-1.833 1.834zm-21.93-25.64l5.715 1.12-6.414 6.417-1.1-5.666 1.8-1.87zm.035 9.533l1.528-1.53 3.993 3.994 8.13 8.13 6.88 6.88-1.528 1.527-9.93-9.93-5.08-5.08-3.993-3.99z" fill="#44AEE5"/><path d="M2467.525-479.87l-1.33.65-.693-1.307-1.077-2.032-5.335 14.66 5.593-2.48 2.55 5.445 3.055-8.396-2.438-6.7zm8.555-.657l-.694 1.307-1.33-.65-1.178-.577-2.087-1.022-1.56.765 1.873 5.14 3.87 10.63 2.55-5.444 5.592 2.48-5.59-15.352zm-14.985-9.687l-.613 4.34 4.317.757.33.623 1.723 3.25.47-.23.69-.338.692-.338 2.085-1.02 2.614 1.276 1.325.65 2.052-3.874.06-.01.765-.135.764-.134 2.73-.48-.614-4.34 3.047-3.15-3.047-3.15.613-4.34-4.318-.757-2.054-3.872-3.94 1.925-3.937-1.927-2.054 3.872-4.317.758.613 4.34-3.047 3.15 3.048 3.152zm9.696-9.728c3.624 0 6.57 2.946 6.57 6.567 0 1.51-.533 2.885-1.393 3.996-.378.49-.817.93-1.317 1.295-.963.705-2.12 1.138-3.38 1.23-.16.012-.314.048-.478.048-.492 0-.968-.063-1.43-.167-2.934-.656-5.137-3.27-5.137-6.4 0-3.62 2.945-6.567 6.566-6.567zm0 11.605c2.78 0 5.04-2.26 5.04-5.038s-2.26-5.037-5.04-5.037c-2.776 0-5.037 2.26-5.037 5.037s2.26 5.038 5.038 5.038z" fill="#fff" stroke="#44AEE5" stroke-width=".2" stroke-miterlimit="10"/><path fill="#44AEE5" d="M1929-183h91v64h-91z"/><path fill="#0071BC" d="M1999-97v-22h21"/><path fill="#fff" d="M1986.938-161.693v-3.75h-11.625v3.75h-3.75v-3.75h-11.625v3.75h-3.376v11.25h3.376v4.126h3.75v3.374h3.75v4.125h3.75v3.375h4.5v-3.375h3.75v-4.125h3.75v-3.374h3.75v-4.126h3.374v-11.25"/><path stroke="#44AEE5" stroke-width="2.451" stroke-miterlimit="10" fill="none" d="M1962.6-152.077l10.837 10.547"/><path fill="#44AEE5" d="M-120-520v-3h-11v3h-4v-3h-12v3h-3v12h3v4h4v3h4v4h4v4h4v-4h4v-4h4v-3h3v-4h4v-12h-4zm-14.196 22.244l-10.836-10.547 1.71-1.756 10.836 10.55-1.71 1.755zM-52.96 35.398l-1.712-3.226L-59.85 46.4l5.467-2.425 2.49 5.314 2.96-8.138-2.387-6.56zm9.275 0l-4.638-2.27-1.435.702 5.626 15.46 2.49-5.315.09.04 5.378 2.384-5.432-14.923zm-14.23-11.16l-.605 4.29 4.27.75 2.032 3.83 3.895-1.906 3.895 1.905 2.032-3.83 1.637-.287 2.634-.46-.606-4.293 3.014-3.117-3.013-3.116.605-4.29-4.27-.75-2.032-3.83-3.894 1.903-3.896-1.904-2.03 3.83-.05.01-4.22.74.605 4.29-3.015 3.117 3.016 3.117zm9.59-9.795c3.678 0 6.67 2.99 6.67 6.667 0 1.46-.49 2.862-1.414 4.058-.39.51-.84.95-1.335 1.312-.99.725-2.176 1.156-3.43 1.248-.06.005-.122.014-.182.02-.098.015-.198.028-.305.028-.468 0-.943-.055-1.452-.17-3.02-.675-5.215-3.408-5.215-6.497 0-3.677 2.99-6.668 6.668-6.668zm.002 11.607c2.724 0 4.94-2.217 4.94-4.94s-2.216-4.937-4.94-4.937c-2.723 0-4.938 2.215-4.938 4.938s2.213 4.94 4.936 4.94zM-42-323.5h5v19h-5zm-8.466 4.07H-73.25V-309h22.784l6.216 4.017v-18.033l-6.216 3.585zm-6.544 7.45c-1.168 0-2.114-.948-2.114-2.116 0-1.166.946-2.113 2.114-2.113 1.167 0 2.114.95 2.114 2.115 0 1.167-.946 2.115-2.114 2.115zM-35-315.5h12v3h-12zm0-6.288v3.195l12-4.4v-3.195zm0 11.912v3.31l12 5.56v-3.308z"/><path fill="#0071BC" d="M70-262v-22h21"/><path fill="#44AEE5" d="M0-348h91v64H0z"/><path d="M51.812-326.2h5v19h-5zm-8.466 4.067H20.562v10.43h22.784l6.216 4.018v-18.033l-6.216 3.585zm-6.543 7.45c-1.168 0-2.114-.948-2.114-2.116 0-1.164.944-2.11 2.112-2.11 1.167 0 2.114.946 2.114 2.112 0 1.17-.947 2.116-2.114 2.116zm22.01-3.517h12v3h-12zm.187-6.29v3.195l12-4.398v-3.196zm0 11.912v3.308l12 5.563v-3.31z" fill="#fff"/></svg><svg width="31.25" height="25" viewBox="0 0 31.25 25" id="twitter" x="927" y="812"><path fill="#808080" d="M31.25 2.96c-.86 1.262-1.946 2.375-3.196 3.263.012.274.02.547.02.82C28.074 15.38 21.618 25 9.826 25c-3.62 0-6.99-1.044-9.827-2.83.5.057 1.01.082 1.527.082 3.005 0 5.767-1.008 7.964-2.7-2.803-.05-5.17-1.876-5.992-4.382.39.075.795.11 1.21.11.583 0 1.15-.073 1.69-.223-2.94-.577-5.15-3.126-5.15-6.186v-.08c.866.475 1.858.76 2.907.793-1.72-1.134-2.85-3.066-2.85-5.254 0-1.157.317-2.24.866-3.17 3.166 3.815 7.89 6.327 13.22 6.59-.11-.46-.165-.94-.165-1.44 0-3.486 2.868-6.31 6.41-6.31 1.845 0 3.514.766 4.68 1.99 1.46-.28 2.83-.81 4.075-1.53-.48 1.475-1.498 2.713-2.822 3.496 1.298-.156 2.53-.492 3.68-.996z"/></svg><svg width="50" height="50" viewBox="0 0 50 50" id="weltverbessern" x="959" y="837"><path fill="#44AEE5" d="M38.125 13v-3h-11v3h-4v-3h-12v3h-3v12h3v4h4v3h4v4h4v4h4v-4h4v-4h4v-3h3v-4h4V13h-4zM23.853 35.165L13.017 24.618l1.71-1.756L25.563 33.41l-1.71 1.755z"/></svg><svg width="91" height="86" viewBox="0 0 91 86" id="weltverbessern_flag" x="1009" y="887"><path fill="#44AEE5" d="M0 0h91v64H0z"/><path fill="#0071BC" d="M70 86V64h21"/><path fill="#fff" d="M58.5 20.27v-3.75H46.875v3.75h-3.75v-3.75H31.5v3.75h-3.376v11.25H31.5v4.126h3.75v3.375H39v4.127h3.75v3.375h4.5v-3.374H51V39.02h3.75v-3.374h3.75V31.52h3.374V20.27"/><path stroke="#44AEE5" stroke-width="2.451" stroke-miterlimit="10" fill="none" d="M33.664 29.887L44.5 40.434"/></svg></svg>