<?xml version="1.0" encoding="utf-8"?><svg width="341" height="245" viewBox="0 0 341 245" xmlns="http://www.w3.org/2000/svg" xmlns:xlink="http://www.w3.org/1999/xlink"><svg version="1" width="119.156" height="25" viewBox="0 0 119.156 25" id="betterplace"><path fill-rule="evenodd" clip-rule="evenodd" fill="#61696E" d="M34.445 21.513v-1.13h.87V15.47h-1.09v-1.134h2.55c0 .54-.054 1.41-.054 1.41.39-1.244 1.235-1.548 2.218-1.548.216 0 .43.03.58.062l-.17 1.413c-.145-.036-.306-.056-.53-.056-1.365 0-1.958 1.178-1.958 2.526v2.235h1.048v1.132h-3.463zm24.542-1.13v-3.465c0-1.756-.785-2.747-2.953-2.747-1.532 0-2.507.47-2.894.65v1.68h1.38v-.947c.235-.096.81-.248 1.348-.248 1.27 0 1.61.62 1.61 1.504v.234c-3.048 0-4.642.82-4.642 2.58 0 .912.616 2.057 2.34 2.057 1.427 0 2.187-.853 2.406-1.222-.04.32-.063.824-.063 1.057h2.376v-1.13l-.91-.002zm-1.51-1.74c0 .91-.698 1.82-1.898 1.82-.733 0-1.198-.427-1.198-.965 0-1.062 1.495-1.435 3.096-1.45l-.002.596zM5.05 14.17c-1.107 0-2.016.553-2.348 1.213.002.002.002-3.688.002-3.688H0v1.132h1.158v8.305c.7.274 1.498.546 2.746.546 3.09 0 4.027-2.11 4.027-4.25.004-1.852-1-3.257-2.88-3.257zm-.965 6.212c-.672 0-1.092-.15-1.38-.285v-2.572c.027-1.145.663-2.056 1.877-2.056 1.173 0 1.783.812 1.783 2.07 0 1.49-.652 2.84-2.28 2.84zm17.372-4.912h1.076v4.028c0 1.615.633 2.208 2.06 2.208.608 0 1.15-.166 1.538-.36l.057-1.13c-.345.138-.736.276-1.15.276-.717 0-.957-.333-.957-1.644v-3.38h1.904v-1.132H24.08v-1.46l-1.547.11v1.35h-1.076v1.133zm-5.037 0h1.076v4.028c0 1.615.633 2.208 2.06 2.208.608 0 1.15-.166 1.538-.36l.055-1.13c-.347.138-.738.276-1.15.276-.72 0-.96-.333-.96-1.644v-3.38h1.906v-1.132H19.04v-1.46l-1.544.11v1.35H16.42v1.133zm57.767 2.497c0-2.222-1.09-3.846-3.243-3.846-2.318 0-3.52 1.71-3.52 3.834 0 2.25 1.408 3.763 3.782 3.776 1.076 0 2.03-.29 2.525-.498l.085-1.27c-.62.317-1.407.552-2.305.552-1.422 0-2.443-.948-2.457-2.342h5.134v-.205zm-1.628-.842h-3.507c.055-.87.497-1.873 1.808-1.873s1.7 1.14 1.7 1.734v.14zM44.843 14.17c-.92 0-1.707.352-2.295 1.288v-1.12h-2.454v1.13h1.007v8.378h-.8v1.132h3.464v-1.132H42.62v-2.382c.416.15.878.215 1.367.215 2.457 0 3.834-1.727 3.834-4.1 0-2.06-1.24-3.41-2.977-3.41zm-.84 6.294c-.58 0-1.064-.11-1.38-.304v-2c0-1.67.606-2.69 1.862-2.69 1.16 0 1.77 1.006 1.77 2.345 0 1.408-.832 2.65-2.253 2.65zm21.228-3.992h1.297v-1.928c-.306-.138-.954-.373-2.044-.373-2.512 0-3.864 1.603-3.864 3.797 0 1.794.98 3.712 3.85 3.712.898 0 1.67-.25 1.96-.373l.083-1.34c-.36.208-1.146.415-1.835.415-1.903 0-2.51-1.324-2.51-2.566 0-1.366.73-2.43 2.152-2.43.345 0 .69.056.91.125v.963zM33.34 17.967c0-2.222-1.09-3.846-3.244-3.846-2.318 0-3.52 1.71-3.52 3.834 0 2.25 1.41 3.763 3.782 3.776 1.077 0 2.03-.29 2.525-.498l.083-1.27c-.62.317-1.408.552-2.305.552-1.42 0-2.44-.948-2.455-2.342h5.134v-.205zm-1.63-.842h-3.505c.055-.87.497-1.873 1.808-1.873 1.312 0 1.698 1.14 1.698 1.734v.14zm16.926 4.388h3.38v-1.13h-.965v-8.687h-2.8v1.132h1.256v7.554h-.87zm-32.904-3.546c0-2.222-1.09-3.846-3.243-3.846-2.32 0-3.52 1.71-3.52 3.834 0 2.25 1.406 3.763 3.78 3.776 1.076 0 2.03-.29 2.525-.498l.083-1.27c-.622.317-1.408.552-2.305.552-1.422 0-2.443-.948-2.457-2.342h5.134v-.205zm-1.628-.842H10.6c.054-.87.496-1.873 1.807-1.873s1.698 1.14 1.698 1.734v.14zm73.71 4.372h3.223v-.617h-1.345l.028-2.48c.028-2.03 1.135-3.6 2.396-3.6.364 0 .616.07.882.183l.112-.7c-.28-.07-.56-.154-1.01-.154-1.302 0-2.065 1.073-2.408 2.132 0 0 .084-1.294.084-1.966H87.66v.616h1.36l-.056 5.967h-1.148v.616z"/><circle fill="#61696E" cx="77.304" cy="20.587" r=".894"/><path fill="#8E969E" d="M110.096 10.136l6.096 7.12-6.15-5.657 2.02 5.087-3.266-5.456-5.27 4.583 4.64-5.373-7.523.695 6.753-1.336-5.817-7.453 6.85 6.678-2.01-6.43 2.777 6.473 6.18-5.49-4.998 5.743 7.487-2.032z"/><path fill="#BED139" d="M109.44 10.297c.003 2.083-.002 9.258-.002 9.258s-6.218-8.795-1-9.738c-1.847.002-9.416 0-9.416 0s8.344-6.486 9.716-.56c-.003-2.082.003-9.257.003-9.257s6.21 8.78 1.015 9.735l9.403.004s-8.345 6.483-9.717.556z"/><defs><path id="aa" d="M109.737 9.502l5.704-2.64s-7 12.734-7 3.242l-5.7 2.64s7-12.734 7-3.242z"/></defs><clipPath id="ab"><use xlink:href="#aa" overflow="visible"/></clipPath><path clip-path="url(#ab)" fill="#A1B960" d="M109.737 9.502l5.704-2.64s-7 12.734-7 3.242l-5.7 2.64s7-12.734 7-3.242z"/><path clip-path="url(#ab)" fill="#849D55" d="M110.096 10.136l6.096 7.12-6.15-5.657 2.02 5.087-3.266-5.456-5.27 4.583 4.64-5.373-7.523.695 6.753-1.336-5.817-7.453 6.85 6.678-2.01-6.43 2.777 6.473 6.18-5.49-4.998 5.743 7.487-2.032z"/><path clip-path="url(#ab)" fill="#8DAD24" d="M109.44 10.297c.003 2.083-.002 9.258-.002 9.258s-6.218-8.795-1-9.738c-1.847.002-9.416 0-9.416 0s8.344-6.486 9.716-.56c-.003-2.082.003-9.257.003-9.257s6.21 8.78 1.015 9.735l9.403.004s-8.345 6.483-9.717.556z"/><path fill-rule="evenodd" clip-rule="evenodd" fill="#61696E" d="M83.108 14.754c1.717 0 2.61 1.307 2.61 3.143s-.894 3.143-2.61 3.143c-1.716 0-2.61-1.307-2.61-3.143s.894-3.143 2.61-3.143zm0 6.864c2.18 0 3.3-1.68 3.3-3.72s-1.12-3.722-3.3-3.722-3.3 1.68-3.3 3.72 1.12 3.722 3.3 3.722z"/><path fill="#61696E" d="M98.223 21.708l-2.046-.308c-.63.112-1.933.546-1.933 1.57 0 .686.896 1.414 2.62 1.414 1.29 0 2.675-.435 2.675-1.57 0-.742-.52-.924-1.318-1.106zm-3.74-5.113c0 1.037.686 2.03 2.143 2.03 1.274 0 2.06-.81 2.06-2.016 0-1.094-.785-1.99-2.144-1.99-1.163 0-2.06.756-2.06 1.974zm4.78.945c-.344.95-1.227 1.704-2.525 1.704-1.163 0-1.71.406-1.71.798 0 .378.435.546 1.178.672l2.325.42c.885.154 1.74.42 1.74 1.625 0 .993-.813 2.24-3.447 2.24-1.863 0-3.306-.646-3.306-1.948 0-.91.91-1.68 1.92-1.835-.477-.112-1.136-.378-1.136-1.08 0-.727.715-1.007 1.29-1.105-.672-.182-1.835-.728-1.835-2.38 0-1.5 1.08-2.705 2.788-2.705.052 0 .103 0 .154.003h3.12v.603H98.4c.63.495.997 1.25.997 2.1 0 .34-.05.633-.135.887z"/></svg><svg width="11.982" height="25" viewBox="0 0 11.982 25" id="facebook" x="120" y="25"><path fill="#808080" d="M11.982 4.167s-2.702.047-3.16.047c-.46 0-1.108.23-1.108 1.21v2.613h3.983l-.455 4.443-3.425.02V25h-5.21V12.5L0 12.48V8.038h2.484V5.16C2.484 3.105 3.517 0 7.817 0h4.163v4.167h.002z"/></svg><svg width="24.307" height="25" viewBox="0 0 24.307 25" id="gplus" x="132" y="50"><path d="M12.82 14.273l-1.173-.91c-.357-.297-.845-.688-.845-1.404 0-.72.488-1.177.912-1.6 1.366-1.076 2.73-2.22 2.73-4.63 0-2.48-1.56-3.784-2.307-4.4h2.016L16.268 0H9.856C8.098 0 5.564.416 3.708 1.948c-1.4 1.207-2.082 2.87-2.082 4.37 0 2.54 1.954 5.118 5.4 5.118.326 0 .682-.032 1.04-.063-.16.39-.324.717-.324 1.27 0 1.01.52 1.63.977 2.217-1.467.102-4.2.263-6.217 1.502C.583 17.502 0 19.165 0 20.337 0 22.75 2.276 25 6.994 25c5.596 0 8.557-3.097 8.557-6.16.004-2.252-1.3-3.36-2.73-4.567zm-4.263-3.75c-2.798 0-4.067-3.62-4.067-5.802 0-.85.16-1.726.714-2.41.522-.654 1.43-1.077 2.28-1.077 2.7 0 4.098 3.65 4.098 6 0 .587-.065 1.628-.812 2.38-.524.523-1.4.91-2.213.91zm.033 13.112c-3.48 0-5.726-1.666-5.726-3.98s2.08-3.098 2.797-3.357c1.367-.46 3.126-.523 3.418-.523.326 0 .488 0 .748.033 2.473 1.76 3.548 2.64 3.548 4.305 0 2.018-1.66 3.522-4.783 3.522zm12.445-13.162v-3.26h-1.61v3.26H16.17V12.1h3.255v3.28h1.61V12.1h3.272v-1.627z" fill="#808080"/></svg><svg version="1" width="32" height="25" viewBox="0 11.965 32 25" enable-background="new 0 11.965 32 25" id="newsletter" x="157" y="75"><path d="M15.972 27.225l-14.53-12.76H30.5zm-5.788-2.765L0 33.403V15.518zm1.32 1.16l4.47 3.924 4.466-3.924 10.072 8.845H1.432zm10.256-1.16l10.184-8.942v17.885z" fill="#808080"/></svg><svg version="1" width="32" height="32" viewBox="0 0 32 32" id="star" x="189" y="100"><path d="M11.578 11.236l-8.832.98c-.318.037-.6.25-.706.574-.106.323 0 .66.235.874 2.625 2.396 6.57 5.982 6.57 5.982-.003 0-1.083 5.22-1.8 8.702-.06.314.053.648.328.848.273.2.625.203.902.046 3.09-1.755 7.722-4.397 7.722-4.397l7.717 4.4c.282.154.636.15.907-.05.277-.198.39-.532.33-.846l-1.795-8.705 6.568-5.978c.235-.22.34-.557.235-.88-.104-.32-.386-.534-.703-.57-3.535-.397-8.835-.983-8.835-.983l-3.66-8.097c-.137-.29-.425-.493-.764-.493s-.63.205-.76.493l-3.658 8.098z"/></svg><svg version="1.2" baseProfile="tiny" width="24" height="24" viewBox="0 0 24 24" id="star-full-outline" x="221" y="132"><path d="M3.1 11.3l3.6 3.3-1 4.6c-.1.6.1 1.2.6 1.5.2.2.5.3.8.3.2 0 .4 0 .6-.1 0 0 .1 0 .1-.1l4.1-2.3 4.1 2.3s.1 0 .1.1c.5.2 1.1.2 1.5-.1.5-.3.7-.9.6-1.5l-1-4.6c.4-.3 1-.9 1.6-1.5l1.9-1.7.1-.1c.4-.4.5-1 .3-1.5s-.6-.9-1.2-1h-.1l-4.7-.5-1.9-4.3s0-.1-.1-.1c-.1-.7-.6-1-1.1-1-.5 0-1 .3-1.3.8 0 0 0 .1-.1.1L8.7 8.2 4 8.7h-.1c-.5.1-1 .5-1.2 1-.1.6 0 1.2.4 1.6z"/></svg><svg version="1" width="32" height="32" viewBox="0 0 32 32" id="star-primary" x="245" y="156"><path fill="#F86D14" d="M11.578 11.236l-8.832.98c-.318.037-.6.25-.706.574-.106.323 0 .66.235.874 2.625 2.396 6.57 5.982 6.57 5.982-.003 0-1.083 5.22-1.8 8.7-.06.315.053.65.328.85.273.2.625.202.902.046 3.09-1.756 7.722-4.396 7.722-4.396l7.717 4.4c.282.152.636.15.907-.05.277-.2.393-.533.33-.847l-1.795-8.705 6.568-5.98c.234-.22.34-.556.234-.878-.104-.322-.387-.535-.703-.572-3.535-.396-8.835-.982-8.835-.982l-3.66-8.096c-.138-.29-.426-.493-.765-.493s-.63.205-.76.493l-3.657 8.1z"/></svg><svg version="1" width="32" height="32" viewBox="0 0 32 32" id="star-secondary" x="277" y="188"><path fill="#808080" d="M11.578 11.236l-8.832.98c-.318.037-.6.25-.706.574-.106.323 0 .66.235.874 2.625 2.396 6.57 5.982 6.57 5.982-.003 0-1.083 5.22-1.8 8.7-.06.315.053.65.328.85.273.2.625.202.902.046 3.09-1.756 7.722-4.396 7.722-4.396l7.717 4.4c.282.152.636.15.907-.05.277-.2.393-.533.33-.847l-1.795-8.705 6.568-5.98c.234-.22.34-.556.234-.878-.104-.322-.387-.535-.703-.572-3.535-.396-8.835-.982-8.835-.982l-3.66-8.096c-.138-.29-.426-.493-.765-.493s-.63.205-.76.493l-3.657 8.1z"/></svg><svg width="31.25" height="25" viewBox="0 0 31.25 25" id="twitter" x="309" y="220"><path fill="#808080" d="M31.25 2.96c-.86 1.262-1.946 2.375-3.196 3.263.012.274.02.547.02.82C28.074 15.38 21.618 25 9.826 25c-3.62 0-6.99-1.044-9.827-2.83.5.057 1.01.082 1.527.082 3.005 0 5.767-1.008 7.964-2.7-2.803-.05-5.17-1.876-5.992-4.382.39.075.795.11 1.21.11.583 0 1.15-.073 1.69-.223-2.94-.577-5.15-3.126-5.15-6.186v-.08c.866.475 1.858.76 2.907.793-1.72-1.134-2.85-3.066-2.85-5.254 0-1.157.317-2.24.866-3.17 3.166 3.815 7.89 6.327 13.22 6.59-.11-.46-.165-.94-.165-1.44 0-3.486 2.868-6.31 6.41-6.31 1.845 0 3.514.766 4.68 1.99 1.46-.28 2.83-.81 4.075-1.53-.48 1.475-1.498 2.713-2.822 3.496 1.298-.156 2.53-.492 3.68-.996z"/></svg></svg>