<?xml version="1.0" encoding="UTF-8" standalone="no"?>
<svg
   xmlns:dc="http://purl.org/dc/elements/1.1/"
   xmlns:cc="http://creativecommons.org/ns#"
   xmlns:rdf="http://www.w3.org/1999/02/22-rdf-syntax-ns#"
   xmlns:svg="http://www.w3.org/2000/svg"
   xmlns="http://www.w3.org/2000/svg"
   viewBox="0 0 1361.9333 957.89331"
   height="957.89331"
   width="1361.9333"
   xml:space="preserve"
   id="svg2"
   version="1.1"><metadata
     id="metadata8"><rdf:RDF><cc:Work
         rdf:about=""><dc:format>image/svg+xml</dc:format><dc:type
           rdf:resource="http://purl.org/dc/dcmitype/StillImage" /></cc:Work></rdf:RDF></metadata><defs
     id="defs6" /><g
     transform="matrix(1.3333333,0,0,-1.3333333,0,957.89333)"
     id="g10"><g
       transform="scale(0.1)"
       id="g12"><path
         id="path14"
         style="fill:#ffffff;fill-opacity:1;fill-rule:nonzero;stroke:none"
         d="m 4052.25,2267.19 2760,1430 -2760,1440 v -2870" /><path
         id="path16"
         style="fill:#e3e2e0;fill-opacity:1;fill-rule:nonzero;stroke:none"
         d="m 6472.67,3520.94 -0.26,0.17 339.84,176.08 -339.58,-176.25" /><path
         id="path18"
         style="fill:#e3e2e0;fill-opacity:1;fill-rule:nonzero;stroke:none"
         d="m 6472.41,3521.11 -2420.16,1616.08 2760,-1440 -339.84,-176.08" /><path
         id="path20"
         style="fill:#252423;fill-opacity:1;fill-rule:nonzero;stroke:none"
         d="m 4052.72,2267.19 -0.47,2870 2760,-1440 z m 6059.78,3367.19 c 0,0 -99.8,703.89 -406.08,1013.86 -388.42,406.83 -823.8,408.85 -1023.46,432.67 -1429.37,103.32 -3573.5,103.32 -3573.5,103.32 h -4.44 c 0,0 -2144.08,0 -3573.5,-103.32 C 1331.85,7057.09 896.625,7055.07 508.066,6648.24 201.813,6338.27 102.152,5634.38 102.152,5634.38 102.152,5634.38 0,4807.78 0,3981.19 v -774.93 c 0,-826.58 102.152,-1653.17 102.152,-1653.17 0,0 99.661,-703.899 405.914,-1013.871 C 896.625,132.379 1407.03,145.25 1634.36,102.609 2451.53,24.25 5107.25,0 5107.25,0 c 0,0 2146.34,3.23047 3575.71,106.551 199.66,23.82 635.04,25.828 1023.46,432.668 306.28,309.972 406.08,1013.871 406.08,1013.871 0,0 102,826.59 102,1653.17 v 774.93 c 0,826.59 -102,1653.19 -102,1653.19" /></g></g></svg>