<?xml version="1.0" encoding="utf-8"?>
<!-- Generator: Adobe Illustrator 16.0.0, SVG Export Plug-In . SVG Version: 6.00 Build 0)  -->
<!DOCTYPE svg PUBLIC "-//W3C//DTD SVG 1.1//EN" "http://www.w3.org/Graphics/SVG/1.1/DTD/svg11.dtd">
<svg version="1.1" id="Ebene_1" xmlns="http://www.w3.org/2000/svg" xmlns:xlink="http://www.w3.org/1999/xlink" x="0px" y="0px"
	 width="487.98px" height="100px" viewBox="0 0 487.98 100" enable-background="new 0 0 487.98 100" xml:space="preserve">
<g>
	<polygon fill="#00A5DC" points="0,100 0,71.999 0,53.999 0,0 487.98,0 487.98,71.999 27.822,71.999 	"/>
	<path fill="#FFFFFF" d="M460.147,20.412h4.585v-4.614h-4.585V20.412z M454.033,20.412h4.59v-4.614h-4.59V20.412z M447.923,20.412
		h4.582v-4.614h-4.582V20.412z M441.805,20.412h4.587v-4.614h-4.587V20.412z M435.694,20.412h4.584v-4.614h-4.584V20.412z
		 M423.464,20.412h4.582v-4.614h-4.582V20.412z M399.009,20.412h4.587v-4.614h-4.587V20.412z M380.666,20.412h4.586v-4.614h-4.586
		V20.412z M374.555,20.412h4.584v-4.614h-4.584V20.412z M368.438,20.412h4.582v-4.614h-4.582V20.412z M337.866,20.412h4.587v-4.614
		h-4.587V20.412z M313.408,20.412h4.586v-4.614h-4.586V20.412z M288.957,20.412h4.584v-4.614h-4.584V20.412z M233.93,20.412h4.586
		v-4.614h-4.586V20.412z M227.814,20.412h4.584v-4.614h-4.584V20.412z M221.696,20.412h4.588v-4.614h-4.588V20.412z M215.586,20.412
		h4.586v-4.614h-4.586V20.412z M203.359,20.412h4.583v-4.614h-4.583V20.412z M178.902,20.412h4.587v-4.614h-4.587V20.412z
		 M166.676,20.412h4.584v-4.614h-4.584V20.412z M160.562,20.412h4.584v-4.614h-4.584V20.412z M154.448,20.412h4.586v-4.614h-4.586
		V20.412z M148.332,20.412h4.588v-4.614h-4.588V20.412z M123.875,20.412h4.583v-4.614h-4.583V20.412z M117.763,20.412h4.587v-4.614
		h-4.587V20.412z M111.649,20.412h4.584v-4.614h-4.584V20.412z M93.305,20.412h4.586v-4.614h-4.586V20.412z M68.85,20.412h4.586
		v-4.614H68.85V20.412z M50.511,20.412h4.585v-4.614h-4.585V20.412z M44.395,20.412h4.584v-4.614h-4.584V20.412z M38.282,20.412
		h4.583v-4.614h-4.583V20.412z M32.167,20.412h4.586v-4.614h-4.586V20.412z M343.984,21.951h4.584v-4.614h-4.584V21.951z
		 M331.754,21.951h4.58v-4.614h-4.58V21.951z M386.776,23.487h4.586v-4.612h-4.586V23.487z M362.323,23.487h4.589v-4.612h-4.589
		V23.487z M240.043,23.487h4.584v-4.612h-4.584V23.487z M142.219,23.487h4.584v-4.612h-4.584V23.487z M129.993,23.487h4.584v-4.612
		h-4.584V23.487z M105.534,23.487h4.584v-4.612h-4.584V23.487z M56.622,23.487h4.586v-4.612h-4.586V23.487z M447.923,26.567h4.582
		v-4.616h-4.582V26.567z M417.354,26.567h4.586v-4.616h-4.586V26.567z M399.009,26.567h4.587v-4.616h-4.587V26.567z M350.094,26.567
		h4.586v-4.616h-4.586V26.567z M325.641,26.567h4.584v-4.616h-4.584V26.567z M313.408,26.567h4.586v-4.616h-4.586V26.567z
		 M288.957,26.567h4.584v-4.616h-4.584V26.567z M215.586,26.567h4.586v-4.616h-4.586V26.567z M203.359,26.567h4.583v-4.616h-4.583
		V26.567z M178.902,26.567h4.587v-4.616h-4.587V26.567z M93.305,26.567h4.586v-4.616h-4.586V26.567z M68.85,26.567h4.586v-4.616
		H68.85V26.567z M32.167,26.567h4.586v-4.616h-4.586V26.567z M362.323,29.644h4.589v-4.616h-4.589V29.644z M240.043,29.644h4.584
		v-4.616h-4.584V29.644z M142.219,29.644h4.584v-4.616h-4.584V29.644z M105.534,29.644h4.584v-4.616h-4.584V29.644z M56.622,29.644
		h4.586v-4.616h-4.586V29.644z M447.923,32.719h4.582v-4.617h-4.582V32.719z M411.237,32.719h4.584v-4.617h-4.584V32.719z
		 M399.009,32.719h4.587v-4.617h-4.587V32.719z M350.094,32.719h4.586v-4.617h-4.586V32.719z M325.641,32.719h4.584v-4.617h-4.584
		V32.719z M313.408,32.719h4.586v-4.617h-4.586V32.719z M288.957,32.719h4.584v-4.617h-4.584V32.719z M215.586,32.719h4.586v-4.617
		h-4.586V32.719z M203.359,32.719h4.583v-4.617h-4.583V32.719z M185.018,32.719h4.586v-4.617h-4.586V32.719z M178.902,32.719h4.587
		v-4.617h-4.587V32.719z M93.305,32.719h4.586v-4.617h-4.586V32.719z M68.85,32.719h4.586v-4.617H68.85V32.719z M362.323,35.794
		h4.589V31.18h-4.589V35.794z M240.043,35.794h4.584V31.18h-4.584V35.794z M142.219,35.794h4.584V31.18h-4.584V35.794z
		 M105.534,35.794h4.584V31.18h-4.584V35.794z M56.622,35.794h4.586V31.18h-4.586V35.794z M447.923,38.871h4.582v-4.616h-4.582
		V38.871z M405.121,38.871h4.586v-4.616h-4.586V38.871z M399.009,38.871h4.587v-4.616h-4.587V38.871z M350.094,38.871h4.586v-4.616
		h-4.586V38.871z M325.641,38.871h4.584v-4.616h-4.584V38.871z M313.408,38.871h4.586v-4.616h-4.586V38.871z M307.299,38.871h4.586
		v-4.616h-4.586V38.871z M301.184,38.871h4.586v-4.616h-4.586V38.871z M295.068,38.871h4.582v-4.616h-4.582V38.871z M288.957,38.871
		h4.584v-4.616h-4.584V38.871z M215.586,38.871h4.586v-4.616h-4.586V38.871z M203.359,38.871h4.583v-4.616h-4.583V38.871z
		 M191.131,38.871h4.586v-4.616h-4.586V38.871z M178.902,38.871h4.587v-4.616h-4.587V38.871z M160.562,38.871h4.584v-4.616h-4.584
		V38.871z M154.448,38.871h4.586v-4.616h-4.586V38.871z M148.332,38.871h4.588v-4.616h-4.588V38.871z M93.305,38.871h4.586v-4.616
		h-4.586V38.871z M68.85,38.871h4.586v-4.616H68.85V38.871z M362.323,41.949h4.589v-4.614h-4.589V41.949z M343.984,41.949h4.584
		v-4.614h-4.584V41.949z M337.866,41.949h4.587v-4.614h-4.587V41.949z M331.754,41.949h4.58v-4.614h-4.58V41.949z M240.043,41.949
		h4.584v-4.614h-4.584V41.949z M142.219,41.949h4.584v-4.614h-4.584V41.949z M129.993,41.949h4.584v-4.614h-4.584V41.949z
		 M123.875,41.949h4.583v-4.614h-4.583V41.949z M117.763,41.949h4.587v-4.614h-4.587V41.949z M105.534,41.949h4.584v-4.614h-4.584
		V41.949z M56.622,41.949h4.586v-4.614h-4.586V41.949z M447.923,45.024h4.582v-4.616h-4.582V45.024z M411.237,45.024h4.584v-4.616
		h-4.584V45.024z M399.009,45.024h4.587v-4.616h-4.587V45.024z M350.094,45.024h4.586v-4.616h-4.586V45.024z M325.641,45.024h4.584
		v-4.616h-4.584V45.024z M313.408,45.024h4.586v-4.616h-4.586V45.024z M288.957,45.024h4.584v-4.616h-4.584V45.024z M215.586,45.024
		h4.586v-4.616h-4.586V45.024z M203.359,45.024h4.583v-4.616h-4.583V45.024z M197.247,45.024h4.583v-4.616h-4.583V45.024z
		 M178.902,45.024h4.587v-4.616h-4.587V45.024z M93.305,45.024h4.586v-4.616h-4.586V45.024z M68.85,45.024h4.586v-4.616H68.85
		V45.024z M362.323,48.104h4.589v-4.618h-4.589V48.104z M240.043,48.104h4.584v-4.618h-4.584V48.104z M142.219,48.104h4.584v-4.618
		h-4.584V48.104z M129.993,48.104h4.584v-4.618h-4.584V48.104z M105.534,48.104h4.584v-4.618h-4.584V48.104z M56.622,48.104h4.586
		v-4.618h-4.586V48.104z M32.167,48.104h4.586v-4.618h-4.586V48.104z M447.923,51.176h4.582v-4.613h-4.582V51.176z M417.354,51.176
		h4.586v-4.613h-4.586V51.176z M399.009,51.176h4.587v-4.613h-4.587V51.176z M350.094,51.176h4.586v-4.613h-4.586V51.176z
		 M325.641,51.176h4.584v-4.613h-4.584V51.176z M313.408,51.176h4.586v-4.613h-4.586V51.176z M288.957,51.176h4.584v-4.613h-4.584
		V51.176z M215.586,51.176h4.586v-4.613h-4.586V51.176z M203.359,51.176h4.583v-4.613h-4.583V51.176z M178.902,51.176h4.587v-4.613
		h-4.587V51.176z M93.305,51.176h4.586v-4.613h-4.586V51.176z M68.85,51.176h4.586v-4.613H68.85V51.176z M386.776,54.255h4.586
		V49.64h-4.586V54.255z M362.323,54.255h4.589V49.64h-4.589V54.255z M240.043,54.255h4.584V49.64h-4.584V54.255z M142.219,54.255
		h4.584V49.64h-4.584V54.255z M129.993,54.255h4.584V49.64h-4.584V54.255z M105.534,54.255h4.584V49.64h-4.584V54.255z
		 M56.622,54.255h4.586V49.64h-4.586V54.255z M32.167,54.255h4.586V49.64h-4.586V54.255z M447.923,57.333h4.582v-4.616h-4.582
		V57.333z M423.464,57.333h4.582v-4.616h-4.582V57.333z M399.009,57.333h4.587v-4.616h-4.587V57.333z M380.666,57.333h4.586v-4.616
		h-4.586V57.333z M374.555,57.333h4.584v-4.616h-4.584V57.333z M368.438,57.333h4.582v-4.616h-4.582V57.333z M350.094,57.333h4.586
		v-4.616h-4.586V57.333z M325.641,57.333h4.584v-4.616h-4.584V57.333z M313.408,57.333h4.586v-4.616h-4.586V57.333z M288.957,57.333
		h4.584v-4.616h-4.584V57.333z M233.93,57.333h4.586v-4.616h-4.586V57.333z M227.814,57.333h4.584v-4.616h-4.584V57.333z
		 M221.696,57.333h4.588v-4.616h-4.588V57.333z M215.586,57.333h4.586v-4.616h-4.586V57.333z M203.359,57.333h4.583v-4.616h-4.583
		V57.333z M178.902,57.333h4.587v-4.616h-4.587V57.333z M166.676,57.333h4.584v-4.616h-4.584V57.333z M160.562,57.333h4.584v-4.616
		h-4.584V57.333z M154.448,57.333h4.586v-4.616h-4.586V57.333z M148.332,57.333h4.588v-4.616h-4.588V57.333z M123.875,57.333h4.583
		v-4.616h-4.583V57.333z M117.763,57.333h4.587v-4.616h-4.587V57.333z M111.649,57.333h4.584v-4.616h-4.584V57.333z M87.192,57.333
		h4.584v-4.616h-4.584V57.333z M81.079,57.333h4.584v-4.616h-4.584V57.333z M74.966,57.333h4.584v-4.616h-4.584V57.333z
		 M50.511,57.333h4.585v-4.616h-4.585V57.333z M44.395,57.333h4.584v-4.616h-4.584V57.333z M38.282,57.333h4.583v-4.616h-4.583
		V57.333z"/>
</g>
<g>
</g>
<g>
</g>
<g>
</g>
<g>
</g>
<g>
</g>
<g>
</g>
<g>
</g>
<g>
</g>
<g>
</g>
<g>
</g>
<g>
</g>
<g>
</g>
<g>
</g>
<g>
</g>
<g>
</g>
</svg>
